Hubli.ufo
<glyph name="exclam" format="1">
  <advance width="351"/>
  <unicode hex="0021"/>
  <outline>
    <contour>
      <point x="204" y="102" type="curve" smooth="yes"/>
      <point x="206" y="88"/>
      <point x="206" y="72"/>
      <point x="206" y="50" type="curve" smooth="yes"/>
      <point x="206" y="33"/>
      <point x="205" y="16"/>
      <point x="203" y="3" type="curve" smooth="yes"/>
      <point x="200" y="-15"/>
      <point x="182" y="-27"/>
      <point x="165" y="-25" type="curve" smooth="yes"/>
      <point x="147" y="-22"/>
      <point x="135" y="-4"/>
      <point x="137" y="13" type="curve" smooth="yes"/>
      <point x="139" y="24"/>
      <point x="140" y="37"/>
      <point x="140" y="50" type="curve" smooth="yes"/>
      <point x="140" y="68"/>
      <point x="140" y="80"/>
      <point x="138" y="92" type="curve" smooth="yes"/>
      <point x="136" y="110"/>
      <point x="148" y="127"/>
      <point x="166" y="130" type="curve" smooth="yes"/>
      <point x="184" y="132"/>
      <point x="201" y="120"/>
    </contour>
    <contour>
      <point x="141" y="286" type="curve" smooth="yes"/>
      <point x="149" y="582" type="line" smooth="yes"/>
      <point x="149" y="600"/>
      <point x="165" y="614"/>
      <point x="183" y="614" type="curve" smooth="yes"/>
      <point x="201" y="614"/>
      <point x="215" y="598"/>
      <point x="215" y="580" type="curve" smooth="yes"/>
      <point x="207" y="284" type="line" smooth="yes"/>
      <point x="207" y="266"/>
      <point x="191" y="252"/>
      <point x="173" y="252" type="curve" smooth="yes"/>
      <point x="155" y="252"/>
      <point x="141" y="268"/>
    </contour>
  </outline>
</glyph>
<glyph name="comma" format="1">
  <advance width="255.0"/>
  <unicode hex="002C"/>
  <outline>
    <contour>
      <point x="154" y="102" type="curve" smooth="yes"/>
      <point x="158" y="86"/>
      <point x="161" y="64"/>
      <point x="161" y="40" type="curve" smooth="yes"/>
      <point x="161" y="-16"/>
      <point x="142" y="-72"/>
      <point x="111" y="-114" type="curve" smooth="yes"/>
      <point x="100" y="-129"/>
      <point x="79" y="-132"/>
      <point x="65" y="-122" type="curve" smooth="yes"/>
      <point x="50" y="-111"/>
      <point x="47" y="-90"/>
      <point x="57" y="-76" type="curve" smooth="yes"/>
      <point x="80" y="-44"/>
      <point x="95" y="-2"/>
      <point x="95" y="40" type="curve" smooth="yes"/>
      <point x="95" y="56"/>
      <point x="94" y="72"/>
      <point x="90" y="82" type="curve" smooth="yes"/>
      <point x="85" y="99"/>
      <point x="95" y="118"/>
      <point x="112" y="124" type="curve" smooth="yes"/>
      <point x="129" y="129"/>
      <point x="148" y="119"/>
    </contour>
  </outline>
</glyph>
<glyph name="period" format="1">
  <advance width="245.0"/>
  <unicode hex="002E"/>
  <outline>
    <contour>
      <point x="156" y="102" type="curve" smooth="yes"/>
      <point x="158" y="88"/>
      <point x="158" y="72"/>
      <point x="158" y="50" type="curve" smooth="yes"/>
      <point x="158" y="33"/>
      <point x="157" y="16"/>
      <point x="155" y="3" type="curve" smooth="yes"/>
      <point x="152" y="-15"/>
      <point x="134" y="-27"/>
      <point x="117" y="-25" type="curve" smooth="yes"/>
      <point x="99" y="-22"/>
      <point x="87" y="-4"/>
      <point x="89" y="13" type="curve" smooth="yes"/>
      <point x="91" y="24"/>
      <point x="92" y="37"/>
      <point x="92" y="50" type="curve" smooth="yes"/>
      <point x="92" y="68"/>
      <point x="92" y="80"/>
      <point x="90" y="92" type="curve" smooth="yes"/>
      <point x="88" y="110"/>
      <point x="100" y="127"/>
      <point x="118" y="130" type="curve" smooth="yes"/>
      <point x="136" y="132"/>
      <point x="153" y="120"/>
    </contour>
  </outline>
</glyph>
<glyph name="zero" format="1">
  <advance width="612.0"/>
  <unicode hex="0030"/>
  <outline>
    <contour>
      <point x="303" y="583" type="curve" smooth="yes"/>
      <point x="434" y="583"/>
      <point x="546" y="464"/>
      <point x="546" y="286" type="curve" smooth="yes"/>
      <point x="546" y="117"/>
      <point x="453" y="-13"/>
      <point x="303" y="-13" type="curve" smooth="yes"/>
      <point x="164" y="-13"/>
      <point x="58" y="118"/>
      <point x="58" y="284" type="curve"/>
      <point x="58" y="464"/>
      <point x="161" y="583"/>
    </contour>
    <contour>
      <point x="303" y="517" type="curve" smooth="yes"/>
      <point x="193" y="517"/>
      <point x="124" y="416"/>
      <point x="124" y="284" type="curve" smooth="yes"/>
      <point x="124" y="162"/>
      <point x="195" y="53"/>
      <point x="303" y="53" type="curve" smooth="yes"/>
      <point x="420" y="53"/>
      <point x="480" y="163"/>
      <point x="480" y="286" type="curve" smooth="yes"/>
      <point x="480" y="416"/>
      <point x="405" y="517"/>
    </contour>
  </outline>
</glyph>
<glyph name="one" format="1">
  <advance width="343.0"/>
  <unicode hex="0031"/>
  <outline>
    <contour>
      <point x="246" y="541" type="curve" smooth="yes"/>
      <point x="246" y="434"/>
      <point x="247" y="153"/>
      <point x="246" y="27" type="curve" smooth="yes"/>
      <point x="246" y="9"/>
      <point x="231" y="-6"/>
      <point x="213" y="-6" type="curve" smooth="yes"/>
      <point x="195" y="-6"/>
      <point x="180" y="9"/>
      <point x="180" y="27" type="curve" smooth="yes"/>
      <point x="181" y="153"/>
      <point x="180" y="434"/>
      <point x="180" y="541" type="curve" smooth="yes"/>
      <point x="180" y="559"/>
      <point x="195" y="574"/>
      <point x="213" y="574" type="curve" smooth="yes"/>
      <point x="231" y="574"/>
      <point x="246" y="559"/>
    </contour>
    <contour>
      <point x="230" y="519" type="curve" smooth="yes"/>
      <point x="82" y="433" type="line" smooth="yes"/>
      <point x="66" y="425"/>
      <point x="45" y="430"/>
      <point x="36" y="445" type="curve" smooth="yes"/>
      <point x="28" y="461"/>
      <point x="33" y="482"/>
      <point x="48" y="491" type="curve" smooth="yes"/>
      <point x="196" y="577" type="line" smooth="yes"/>
      <point x="212" y="585"/>
      <point x="233" y="580"/>
      <point x="242" y="565" type="curve" smooth="yes"/>
      <point x="250" y="549"/>
      <point x="245" y="528"/>
    </contour>
  </outline>
</glyph>
<glyph name="two" format="1">
  <advance width="565.0"/>
  <unicode hex="0032"/>
  <outline>
    <contour>
      <point x="84" y="59" type="curve" smooth="yes"/>
      <point x="254" y="228" type="line" smooth="yes"/>
      <point x="357" y="330"/>
      <point x="392" y="367"/>
      <point x="392" y="428" type="curve" smooth="yes"/>
      <point x="392" y="477"/>
      <point x="350" y="516"/>
      <point x="279" y="516" type="curve" smooth="yes"/>
      <point x="231" y="516"/>
      <point x="192" y="502"/>
      <point x="149" y="473" type="curve" smooth="yes"/>
      <point x="135" y="463"/>
      <point x="114" y="467"/>
      <point x="104" y="482" type="curve" smooth="yes"/>
      <point x="94" y="496"/>
      <point x="98" y="517"/>
      <point x="113" y="527" type="curve" smooth="yes"/>
      <point x="168" y="564"/>
      <point x="217" y="582"/>
      <point x="279" y="582" type="curve" smooth="yes"/>
      <point x="404" y="582"/>
      <point x="458" y="505"/>
      <point x="458" y="428" type="curve" smooth="yes"/>
      <point x="458" y="355"/>
      <point x="427" y="308"/>
      <point x="300" y="182" type="curve" smooth="yes"/>
      <point x="130" y="13" type="line" smooth="yes"/>
      <point x="118" y="0"/>
      <point x="96" y="0"/>
      <point x="84" y="13" type="curve" smooth="yes"/>
      <point x="71" y="25"/>
      <point x="71" y="47"/>
    </contour>
    <contour>
      <point x="462" y="-6" type="curve" smooth="yes"/>
      <point x="365" y="-6"/>
      <point x="156" y="-6"/>
      <point x="97" y="-6" type="curve" smooth="yes"/>
      <point x="79" y="-6"/>
      <point x="64" y="9"/>
      <point x="64" y="27" type="curve" smooth="yes"/>
      <point x="64" y="45"/>
      <point x="79" y="60"/>
      <point x="97" y="60" type="curve" smooth="yes"/>
      <point x="156" y="60"/>
      <point x="365" y="60"/>
      <point x="462" y="60" type="curve" smooth="yes"/>
      <point x="480" y="60"/>
      <point x="495" y="45"/>
      <point x="495" y="27" type="curve" smooth="yes"/>
      <point x="495" y="9"/>
      <point x="480" y="-6"/>
    </contour>
  </outline>
</glyph>
<glyph name="three" format="1">
  <advance width="565.0"/>
  <unicode hex="0033"/>
  <outline>
    <contour>
      <point x="127" y="575" type="curve" smooth="yes"/>
      <point x="224" y="575"/>
      <point x="384" y="575"/>
      <point x="443" y="575" type="curve" smooth="yes"/>
      <point x="461" y="575"/>
      <point x="476" y="560"/>
      <point x="476" y="542" type="curve" smooth="yes"/>
      <point x="476" y="524"/>
      <point x="461" y="509"/>
      <point x="443" y="509" type="curve" smooth="yes"/>
      <point x="384" y="509"/>
      <point x="224" y="509"/>
      <point x="127" y="509" type="curve" smooth="yes"/>
      <point x="109" y="509"/>
      <point x="94" y="524"/>
      <point x="94" y="542" type="curve" smooth="yes"/>
      <point x="94" y="560"/>
      <point x="109" y="575"/>
    </contour>
    <contour>
      <point x="122" y="86" type="curve" smooth="yes"/>
      <point x="163" y="69"/>
      <point x="215" y="56"/>
      <point x="276" y="56" type="curve" smooth="yes"/>
      <point x="372" y="56"/>
      <point x="426" y="99"/>
      <point x="426" y="168" type="curve" smooth="yes"/>
      <point x="426" y="233"/>
      <point x="370" y="272"/>
      <point x="289" y="272" type="curve" smooth="yes"/>
      <point x="243" y="272"/>
      <point x="205" y="265"/>
      <point x="183" y="258" type="curve" smooth="yes"/>
      <point x="166" y="253"/>
      <point x="147" y="264"/>
      <point x="142" y="281" type="curve" smooth="yes"/>
      <point x="137" y="298"/>
      <point x="148" y="317"/>
      <point x="165" y="322" type="curve" smooth="yes"/>
      <point x="191" y="329"/>
      <point x="235" y="338"/>
      <point x="289" y="338" type="curve" smooth="yes"/>
      <point x="422" y="338"/>
      <point x="492" y="265"/>
      <point x="492" y="168" type="curve" smooth="yes"/>
      <point x="492" y="69"/>
      <point x="428" y="-10"/>
      <point x="276" y="-10" type="curve" smooth="yes"/>
      <point x="205" y="-10"/>
      <point x="145" y="5"/>
      <point x="96" y="26" type="curve" smooth="yes"/>
      <point x="80" y="33"/>
      <point x="72" y="52"/>
      <point x="79" y="69" type="curve" smooth="yes"/>
      <point x="86" y="85"/>
      <point x="105" y="93"/>
    </contour>
    <contour>
      <point x="456" y="509" type="curve" smooth="yes"/>
      <point x="202" y="270" type="line" smooth="yes"/>
      <point x="189" y="258"/>
      <point x="167" y="258"/>
      <point x="155" y="271" type="curve" smooth="yes"/>
      <point x="143" y="284"/>
      <point x="143" y="306"/>
      <point x="156" y="318" type="curve" smooth="yes"/>
      <point x="410" y="557" type="line" smooth="yes"/>
      <point x="423" y="569"/>
      <point x="445" y="569"/>
      <point x="457" y="556" type="curve" smooth="yes"/>
      <point x="469" y="543"/>
      <point x="469" y="521"/>
    </contour>
  </outline>
</glyph>
<glyph name="five" format="1">
  <advance width="554"/>
  <unicode hex="0035"/>
  <outline>
    <contour>
      <point x="140" y="576" type="curve" smooth="yes"/>
      <point x="241" y="576"/>
      <point x="358" y="576"/>
      <point x="420" y="576" type="curve" smooth="yes"/>
      <point x="438" y="576"/>
      <point x="453" y="561"/>
      <point x="453" y="543" type="curve" smooth="yes"/>
      <point x="453" y="525"/>
      <point x="438" y="510"/>
      <point x="420" y="510" type="curve" smooth="yes"/>
      <point x="358" y="510"/>
      <point x="241" y="510"/>
      <point x="140" y="510" type="curve" smooth="yes"/>
      <point x="122" y="510"/>
      <point x="107" y="525"/>
      <point x="107" y="543" type="curve" smooth="yes"/>
      <point x="107" y="561"/>
      <point x="122" y="576"/>
    </contour>
    <contour>
      <point x="120" y="95" type="curve" smooth="yes"/>
      <point x="162" y="75"/>
      <point x="221" y="56"/>
      <point x="279" y="56" type="curve" smooth="yes"/>
      <point x="375" y="56"/>
      <point x="423" y="108"/>
      <point x="423" y="180" type="curve" smooth="yes"/>
      <point x="423" y="247"/>
      <point x="369" y="292"/>
      <point x="291" y="292" type="curve" smooth="yes"/>
      <point x="219" y="292"/>
      <point x="180" y="279"/>
      <point x="150" y="269" type="curve" smooth="yes"/>
      <point x="133" y="264"/>
      <point x="114" y="274"/>
      <point x="108" y="291" type="curve" smooth="yes"/>
      <point x="103" y="308"/>
      <point x="113" y="327"/>
      <point x="130" y="333" type="curve" smooth="yes"/>
      <point x="166" y="343"/>
      <point x="209" y="358"/>
      <point x="291" y="358" type="curve" smooth="yes"/>
      <point x="415" y="358"/>
      <point x="489" y="281"/>
      <point x="489" y="180" type="curve" smooth="yes"/>
      <point x="489" y="76"/>
      <point x="427" y="-10"/>
      <point x="279" y="-10" type="curve" smooth="yes"/>
      <point x="211" y="-10"/>
      <point x="142" y="11"/>
      <point x="92" y="35" type="curve" smooth="yes"/>
      <point x="76" y="43"/>
      <point x="69" y="63"/>
      <point x="76" y="79" type="curve" smooth="yes"/>
      <point x="84" y="95"/>
      <point x="104" y="102"/>
    </contour>
    <contour>
      <point x="173" y="536" type="curve" smooth="yes"/>
      <point x="173" y="306" type="line" smooth="yes"/>
      <point x="173" y="288"/>
      <point x="158" y="273"/>
      <point x="140" y="273" type="curve" smooth="yes"/>
      <point x="122" y="273"/>
      <point x="107" y="288"/>
      <point x="107" y="306" type="curve" smooth="yes"/>
      <point x="107" y="536" type="line" smooth="yes"/>
      <point x="107" y="554"/>
      <point x="122" y="569"/>
      <point x="140" y="569" type="curve" smooth="yes"/>
      <point x="158" y="569"/>
      <point x="173" y="554"/>
    </contour>
  </outline>
</glyph>
<glyph name="six" format="1">
  <advance width="612.0"/>
  <unicode hex="0036"/>
  <outline>
    <contour>
      <point x="413" y="501" type="curve" smooth="yes"/>
      <point x="388" y="509"/>
      <point x="367" y="514"/>
      <point x="335" y="514" type="curve" smooth="yes"/>
      <point x="213" y="514"/>
      <point x="144" y="416"/>
      <point x="144" y="266" type="curve" smooth="yes"/>
      <point x="144" y="129"/>
      <point x="211" y="56"/>
      <point x="314" y="56" type="curve" smooth="yes"/>
      <point x="414" y="56"/>
      <point x="458" y="121"/>
      <point x="458" y="184" type="curve" smooth="yes"/>
      <point x="458" y="254"/>
      <point x="406" y="298"/>
      <point x="334" y="298" type="curve" smooth="yes"/>
      <point x="253" y="298"/>
      <point x="187" y="240"/>
      <point x="160" y="142" type="curve" smooth="yes"/>
      <point x="155" y="125"/>
      <point x="136" y="114"/>
      <point x="119" y="119" type="curve" smooth="yes"/>
      <point x="102" y="124"/>
      <point x="91" y="143"/>
      <point x="96" y="160" type="curve" smooth="yes"/>
      <point x="133" y="294"/>
      <point x="227" y="364"/>
      <point x="334" y="364" type="curve" smooth="yes"/>
      <point x="448" y="364"/>
      <point x="524" y="290"/>
      <point x="524" y="184" type="curve" smooth="yes"/>
      <point x="524" y="91"/>
      <point x="466" y="-10"/>
      <point x="314" y="-10" type="curve" smooth="yes"/>
      <point x="179" y="-10"/>
      <point x="78" y="77"/>
      <point x="78" y="266" type="curve" smooth="yes"/>
      <point x="78" y="468"/>
      <point x="181" y="580"/>
      <point x="335" y="580" type="curve" smooth="yes"/>
      <point x="375" y="580"/>
      <point x="402" y="573"/>
      <point x="433" y="563" type="curve" smooth="yes"/>
      <point x="450" y="558"/>
      <point x="460" y="539"/>
      <point x="454" y="522" type="curve" smooth="yes"/>
      <point x="449" y="505"/>
      <point x="430" y="495"/>
    </contour>
  </outline>
</glyph>
<glyph name="seven" format="1">
  <advance width="496"/>
  <unicode hex="0037"/>
  <outline>
    <contour>
      <point x="473" y="525" type="curve" smooth="yes"/>
      <point x="432" y="449"/>
      <point x="323" y="303"/>
      <point x="292" y="249" type="curve" smooth="yes"/>
      <point x="264" y="201"/>
      <point x="243" y="142"/>
      <point x="243" y="85" type="curve" smooth="yes"/>
      <point x="243" y="27" type="line" smooth="yes"/>
      <point x="243" y="9"/>
      <point x="228" y="-6"/>
      <point x="210" y="-6" type="curve" smooth="yes"/>
      <point x="192" y="-6"/>
      <point x="177" y="9"/>
      <point x="177" y="27" type="curve" smooth="yes"/>
      <point x="177" y="85" type="line" smooth="yes"/>
      <point x="177" y="154"/>
      <point x="202" y="223"/>
      <point x="234" y="281" type="curve" smooth="yes"/>
      <point x="265" y="335"/>
      <point x="374" y="481"/>
      <point x="415" y="557" type="curve" smooth="yes"/>
      <point x="423" y="572"/>
      <point x="444" y="579"/>
      <point x="460" y="570" type="curve" smooth="yes"/>
      <point x="475" y="562"/>
      <point x="482" y="541"/>
    </contour>
    <contour>
      <point x="435" y="509" type="curve" smooth="yes"/>
      <point x="71" y="509" type="line" smooth="yes"/>
      <point x="53" y="509"/>
      <point x="38" y="524"/>
      <point x="38" y="542" type="curve" smooth="yes"/>
      <point x="38" y="560"/>
      <point x="53" y="575"/>
      <point x="71" y="575" type="curve" smooth="yes"/>
      <point x="435" y="575" type="line" smooth="yes"/>
      <point x="453" y="575"/>
      <point x="468" y="560"/>
      <point x="468" y="542" type="curve" smooth="yes"/>
      <point x="468" y="524"/>
      <point x="453" y="509"/>
    </contour>
  </outline>
</glyph>
<glyph name="eight" format="1">
  <advance width="600"/>
  <unicode hex="0038"/>
  <outline>
    <contour>
      <point x="302" y="338" type="curve" smooth="yes"/>
      <point x="447" y="338"/>
      <point x="530" y="262"/>
      <point x="530" y="163" type="curve" smooth="yes"/>
      <point x="530" y="71"/>
      <point x="475" y="-14"/>
      <point x="302" y="-14" type="curve" smooth="yes"/>
      <point x="140" y="-14"/>
      <point x="72" y="71"/>
      <point x="72" y="162" type="curve" smooth="yes"/>
      <point x="72" y="262"/>
      <point x="147" y="338"/>
    </contour>
    <contour>
      <point x="302" y="587" type="curve" smooth="yes"/>
      <point x="431" y="587"/>
      <point x="502" y="517"/>
      <point x="502" y="430" type="curve" smooth="yes"/>
      <point x="502" y="349"/>
      <point x="444" y="273"/>
      <point x="302" y="273" type="curve" smooth="yes"/>
      <point x="154" y="273"/>
      <point x="100" y="349"/>
      <point x="100" y="430" type="curve" smooth="yes"/>
      <point x="100" y="517"/>
      <point x="167" y="587"/>
    </contour>
    <contour>
      <point x="302" y="272" type="curve" smooth="yes"/>
      <point x="205" y="272"/>
      <point x="138" y="234"/>
      <point x="138" y="162" type="curve" smooth="yes"/>
      <point x="138" y="97"/>
      <point x="200" y="52"/>
      <point x="302" y="52" type="curve" smooth="yes"/>
      <point x="411" y="52"/>
      <point x="464" y="97"/>
      <point x="464" y="163" type="curve" smooth="yes"/>
      <point x="464" y="234"/>
      <point x="393" y="272"/>
    </contour>
    <contour>
      <point x="302" y="521" type="curve" smooth="yes"/>
      <point x="223" y="521"/>
      <point x="166" y="489"/>
      <point x="166" y="430" type="curve" smooth="yes"/>
      <point x="166" y="375"/>
      <point x="216" y="339"/>
      <point x="302" y="339" type="curve" smooth="yes"/>
      <point x="384" y="339"/>
      <point x="436" y="375"/>
      <point x="436" y="430" type="curve" smooth="yes"/>
      <point x="436" y="489"/>
      <point x="377" y="521"/>
    </contour>
  </outline>
</glyph>
<glyph name="nine" format="1">
  <advance width="600"/>
  <unicode hex="0039"/>
  <outline>
    <contour>
      <point x="186" y="73" type="curve" smooth="yes"/>
      <point x="211" y="66"/>
      <point x="233" y="60"/>
      <point x="265" y="60" type="curve" smooth="yes"/>
      <point x="394" y="60"/>
      <point x="453" y="147"/>
      <point x="453" y="289" type="curve" smooth="yes"/>
      <point x="453" y="430"/>
      <point x="390" y="516"/>
      <point x="283" y="516" type="curve" smooth="yes"/>
      <point x="190" y="516"/>
      <point x="142" y="453"/>
      <point x="142" y="389" type="curve" smooth="yes"/>
      <point x="142" y="311"/>
      <point x="191" y="267"/>
      <point x="274" y="267" type="curve" smooth="yes"/>
      <point x="360" y="267"/>
      <point x="412" y="320"/>
      <point x="454" y="387" type="curve" smooth="yes"/>
      <point x="463" y="402"/>
      <point x="484" y="407"/>
      <point x="499" y="398" type="curve" smooth="yes"/>
      <point x="514" y="389"/>
      <point x="519" y="368"/>
      <point x="510" y="353" type="curve" smooth="yes"/>
      <point x="456" y="264"/>
      <point x="384" y="201"/>
      <point x="274" y="201" type="curve" smooth="yes"/>
      <point x="147" y="201"/>
      <point x="76" y="271"/>
      <point x="76" y="389" type="curve" smooth="yes"/>
      <point x="76" y="483"/>
      <point x="142" y="582"/>
      <point x="283" y="582" type="curve" smooth="yes"/>
      <point x="420" y="582"/>
      <point x="519" y="484"/>
      <point x="519" y="289" type="curve" smooth="yes"/>
      <point x="519" y="97"/>
      <point x="432" y="-6"/>
      <point x="265" y="-6" type="curve" smooth="yes"/>
      <point x="225" y="-6"/>
      <point x="199" y="0"/>
      <point x="168" y="9" type="curve" smooth="yes"/>
      <point x="151" y="14"/>
      <point x="140" y="33"/>
      <point x="145" y="50" type="curve" smooth="yes"/>
      <point x="150" y="67"/>
      <point x="169" y="78"/>
    </contour>
  </outline>
</glyph>
<glyph name="colon" format="1">
  <advance width="245.0"/>
  <unicode hex="003A"/>
  <outline>
    <contour>
      <point x="154" y="389" type="curve" smooth="yes"/>
      <point x="154" y="375"/>
      <point x="154" y="366"/>
      <point x="154" y="346" type="curve" smooth="yes"/>
      <point x="154" y="333"/>
      <point x="155" y="311"/>
      <point x="157" y="300" type="curve" smooth="yes"/>
      <point x="159" y="283"/>
      <point x="147" y="265"/>
      <point x="129" y="262" type="curve" smooth="yes"/>
      <point x="112" y="260"/>
      <point x="94" y="272"/>
      <point x="91" y="290" type="curve" smooth="yes"/>
      <point x="89" y="303"/>
      <point x="88" y="329"/>
      <point x="88" y="346" type="curve" smooth="yes"/>
      <point x="88" y="366"/>
      <point x="88" y="375"/>
      <point x="88" y="389" type="curve" smooth="yes"/>
      <point x="88" y="407"/>
      <point x="103" y="422"/>
      <point x="121" y="422" type="curve" smooth="yes"/>
      <point x="139" y="422"/>
      <point x="154" y="407"/>
    </contour>
    <contour>
      <point x="154" y="121" type="curve" smooth="yes"/>
      <point x="154" y="107"/>
      <point x="154" y="98"/>
      <point x="154" y="78" type="curve" smooth="yes"/>
      <point x="154" y="65"/>
      <point x="155" y="43"/>
      <point x="157" y="32" type="curve" smooth="yes"/>
      <point x="159" y="15"/>
      <point x="147" y="-3"/>
      <point x="129" y="-6" type="curve" smooth="yes"/>
      <point x="112" y="-8"/>
      <point x="94" y="4"/>
      <point x="91" y="22" type="curve" smooth="yes"/>
      <point x="89" y="35"/>
      <point x="88" y="61"/>
      <point x="88" y="78" type="curve" smooth="yes"/>
      <point x="88" y="98"/>
      <point x="88" y="107"/>
      <point x="88" y="121" type="curve" smooth="yes"/>
      <point x="88" y="139"/>
      <point x="103" y="154"/>
      <point x="121" y="154" type="curve" smooth="yes"/>
      <point x="139" y="154"/>
      <point x="154" y="139"/>
    </contour>
  </outline>
</glyph>
<glyph name="semicolon" format="1">
  <advance width="250"/>
  <unicode hex="003B"/>
  <outline>
    <contour>
      <point x="156" y="389" type="curve" smooth="yes"/>
      <point x="156" y="375"/>
      <point x="156" y="366"/>
      <point x="156" y="346" type="curve" smooth="yes"/>
      <point x="156" y="333"/>
      <point x="157" y="311"/>
      <point x="159" y="300" type="curve" smooth="yes"/>
      <point x="161" y="283"/>
      <point x="149" y="265"/>
      <point x="131" y="262" type="curve" smooth="yes"/>
      <point x="114" y="260"/>
      <point x="96" y="272"/>
      <point x="93" y="290" type="curve" smooth="yes"/>
      <point x="91" y="303"/>
      <point x="90" y="329"/>
      <point x="90" y="346" type="curve" smooth="yes"/>
      <point x="90" y="366"/>
      <point x="90" y="375"/>
      <point x="90" y="389" type="curve" smooth="yes"/>
      <point x="90" y="407"/>
      <point x="105" y="422"/>
      <point x="123" y="422" type="curve" smooth="yes"/>
      <point x="141" y="422"/>
      <point x="156" y="407"/>
    </contour>
    <contour>
      <point x="153" y="102" type="curve" smooth="yes"/>
      <point x="157" y="86"/>
      <point x="160" y="64"/>
      <point x="160" y="40" type="curve" smooth="yes"/>
      <point x="160" y="-16"/>
      <point x="141" y="-72"/>
      <point x="110" y="-114" type="curve" smooth="yes"/>
      <point x="99" y="-129"/>
      <point x="78" y="-132"/>
      <point x="64" y="-122" type="curve" smooth="yes"/>
      <point x="49" y="-111"/>
      <point x="46" y="-90"/>
      <point x="56" y="-76" type="curve" smooth="yes"/>
      <point x="79" y="-44"/>
      <point x="94" y="-2"/>
      <point x="94" y="40" type="curve" smooth="yes"/>
      <point x="94" y="56"/>
      <point x="93" y="72"/>
      <point x="89" y="82" type="curve" smooth="yes"/>
      <point x="84" y="99"/>
      <point x="94" y="118"/>
      <point x="111" y="124" type="curve" smooth="yes"/>
      <point x="128" y="129"/>
      <point x="147" y="119"/>
    </contour>
  </outline>
</glyph>
<glyph name="question" format="1">
  <advance width="356"/>
  <unicode hex="003F"/>
  <outline>
    <contour>
      <point x="203" y="102" type="curve" smooth="yes"/>
      <point x="205" y="88"/>
      <point x="205" y="72"/>
      <point x="205" y="50" type="curve" smooth="yes"/>
      <point x="205" y="33"/>
      <point x="204" y="16"/>
      <point x="202" y="3" type="curve" smooth="yes"/>
      <point x="199" y="-15"/>
      <point x="181" y="-27"/>
      <point x="164" y="-25" type="curve" smooth="yes"/>
      <point x="146" y="-22"/>
      <point x="134" y="-4"/>
      <point x="136" y="13" type="curve" smooth="yes"/>
      <point x="138" y="24"/>
      <point x="139" y="37"/>
      <point x="139" y="50" type="curve" smooth="yes"/>
      <point x="139" y="68"/>
      <point x="139" y="80"/>
      <point x="137" y="92" type="curve" smooth="yes"/>
      <point x="135" y="110"/>
      <point x="147" y="127"/>
      <point x="165" y="130" type="curve" smooth="yes"/>
      <point x="183" y="132"/>
      <point x="200" y="120"/>
    </contour>
    <contour>
      <point x="51" y="569" type="curve" smooth="yes"/>
      <point x="94" y="596"/>
      <point x="138" y="611"/>
      <point x="185" y="611" type="curve" smooth="yes"/>
      <point x="294" y="611"/>
      <point x="335" y="540"/>
      <point x="335" y="482" type="curve" smooth="yes"/>
      <point x="335" y="428"/>
      <point x="301" y="386"/>
      <point x="234" y="352" type="curve" smooth="yes"/>
      <point x="204" y="337"/>
      <point x="185" y="324"/>
      <point x="185" y="307" type="curve" smooth="yes"/>
      <point x="185" y="295"/>
      <point x="192" y="285"/>
      <point x="205" y="274" type="curve" smooth="yes"/>
      <point x="219" y="263"/>
      <point x="222" y="241"/>
      <point x="211" y="228" type="curve" smooth="yes"/>
      <point x="200" y="214"/>
      <point x="178" y="211"/>
      <point x="165" y="222" type="curve" smooth="yes"/>
      <point x="130" y="249"/>
      <point x="119" y="279"/>
      <point x="119" y="307" type="curve" smooth="yes"/>
      <point x="119" y="340"/>
      <point x="134" y="375"/>
      <point x="204" y="412" type="curve" smooth="yes"/>
      <point x="241" y="430"/>
      <point x="269" y="450"/>
      <point x="269" y="482" type="curve" smooth="yes"/>
      <point x="269" y="514"/>
      <point x="238" y="545"/>
      <point x="185" y="545" type="curve" smooth="yes"/>
      <point x="150" y="545"/>
      <point x="118" y="534"/>
      <point x="87" y="513" type="curve" smooth="yes"/>
      <point x="72" y="504"/>
      <point x="51" y="508"/>
      <point x="41" y="523" type="curve" smooth="yes"/>
      <point x="32" y="538"/>
      <point x="36" y="559"/>
    </contour>
  </outline>
</glyph>
<glyph name="A" format="1">
  <advance width="587"/>
  <unicode hex="0041"/>
  <outline>
    <contour>
      <point x="320" y="541" type="curve" smooth="yes"/>
      <point x="249" y="380"/>
      <point x="154" y="150"/>
      <point x="110" y="17" type="curve" smooth="yes"/>
      <point x="105" y="0"/>
      <point x="86" y="-10"/>
      <point x="69" y="-4" type="curve" smooth="yes"/>
      <point x="52" y="1"/>
      <point x="42" y="20"/>
      <point x="48" y="37" type="curve" smooth="yes"/>
      <point x="92" y="172"/>
      <point x="187" y="404"/>
      <point x="260" y="567" type="curve" smooth="yes"/>
      <point x="267" y="584"/>
      <point x="287" y="591"/>
      <point x="303" y="584" type="curve" smooth="yes"/>
      <point x="320" y="577"/>
      <point x="327" y="557"/>
    </contour>
    <contour>
      <point x="326" y="568" type="curve" smooth="yes"/>
      <point x="403" y="404"/>
      <point x="505" y="158"/>
      <point x="549" y="38" type="curve" smooth="yes"/>
      <point x="555" y="22"/>
      <point x="546" y="2"/>
      <point x="529" y="-4" type="curve" smooth="yes"/>
      <point x="513" y="-10"/>
      <point x="493" y="-1"/>
      <point x="487" y="16" type="curve" smooth="yes"/>
      <point x="443" y="134"/>
      <point x="343" y="378"/>
      <point x="266" y="540" type="curve" smooth="yes"/>
      <point x="259" y="556"/>
      <point x="266" y="576"/>
      <point x="282" y="584" type="curve" smooth="yes"/>
      <point x="298" y="591"/>
      <point x="318" y="584"/>
    </contour>
    <contour>
      <point x="146" y="236" type="curve" smooth="yes"/>
      <point x="447" y="236" type="line" smooth="yes"/>
      <point x="465" y="236"/>
      <point x="480" y="221"/>
      <point x="480" y="203" type="curve" smooth="yes"/>
      <point x="480" y="185"/>
      <point x="465" y="170"/>
      <point x="447" y="170" type="curve" smooth="yes"/>
      <point x="146" y="170" type="line" smooth="yes"/>
      <point x="128" y="170"/>
      <point x="113" y="185"/>
      <point x="113" y="203" type="curve" smooth="yes"/>
      <point x="113" y="221"/>
      <point x="128" y="236"/>
    </contour>
  </outline>
</glyph>
<glyph name="B" format="1">
  <advance width="558"/>
  <unicode hex="0042"/>
  <outline>
    <contour>
      <point x="142" y="336" type="curve" smooth="yes"/>
      <point x="310" y="336" type="line" smooth="yes"/>
      <point x="449" y="336"/>
      <point x="510" y="251"/>
      <point x="510" y="162" type="curve" smooth="yes"/>
      <point x="510" y="78"/>
      <point x="465" y="-6"/>
      <point x="307" y="-6" type="curve" smooth="yes"/>
      <point x="132" y="-6" type="line" smooth="yes"/>
      <point x="114" y="-6"/>
      <point x="99" y="9"/>
      <point x="99" y="27" type="curve" smooth="yes"/>
      <point x="99" y="543" type="line" smooth="yes"/>
      <point x="99" y="561"/>
      <point x="114" y="576"/>
      <point x="132" y="576" type="curve" smooth="yes"/>
      <point x="290" y="576" type="line" smooth="yes"/>
      <point x="414" y="576"/>
      <point x="464" y="502"/>
      <point x="464" y="428" type="curve" smooth="yes"/>
      <point x="464" y="356"/>
      <point x="409" y="288"/>
      <point x="331" y="271" type="curve" smooth="yes"/>
      <point x="314" y="267"/>
      <point x="296" y="278"/>
      <point x="292" y="296" type="curve" smooth="yes"/>
      <point x="288" y="313"/>
      <point x="299" y="331"/>
      <point x="317" y="335" type="curve" smooth="yes"/>
      <point x="363" y="346"/>
      <point x="398" y="384"/>
      <point x="398" y="428" type="curve" smooth="yes"/>
      <point x="398" y="474"/>
      <point x="358" y="510"/>
      <point x="290" y="510" type="curve" smooth="yes"/>
      <point x="132" y="510" type="line"/>
      <point x="165" y="543" type="line"/>
      <point x="165" y="27" type="line"/>
      <point x="132" y="60" type="line"/>
      <point x="307" y="60" type="line" smooth="yes"/>
      <point x="403" y="60"/>
      <point x="444" y="106"/>
      <point x="444" y="162" type="curve" smooth="yes"/>
      <point x="444" y="221"/>
      <point x="397" y="270"/>
      <point x="310" y="270" type="curve" smooth="yes"/>
      <point x="142" y="270" type="line" smooth="yes"/>
      <point x="124" y="270"/>
      <point x="109" y="285"/>
      <point x="109" y="303" type="curve" smooth="yes"/>
      <point x="109" y="321"/>
      <point x="124" y="336"/>
    </contour>
  </outline>
</glyph>
<glyph name="C" format="1">
  <advance width="564"/>
  <unicode hex="0043"/>
  <outline>
    <contour>
      <point x="452" y="491" type="curve" smooth="yes"/>
      <point x="420" y="506"/>
      <point x="378" y="519"/>
      <point x="331" y="519" type="curve" smooth="yes"/>
      <point x="212" y="519"/>
      <point x="123" y="418"/>
      <point x="123" y="282" type="curve" smooth="yes"/>
      <point x="123" y="157"/>
      <point x="191" y="47"/>
      <point x="338" y="47" type="curve" smooth="yes"/>
      <point x="388" y="47"/>
      <point x="416" y="56"/>
      <point x="455" y="74" type="curve" smooth="yes"/>
      <point x="472" y="81"/>
      <point x="492" y="74"/>
      <point x="499" y="58" type="curve" smooth="yes"/>
      <point x="506" y="41"/>
      <point x="499" y="21"/>
      <point x="483" y="14" type="curve" smooth="yes"/>
      <point x="434" y="-8"/>
      <point x="400" y="-19"/>
      <point x="338" y="-19" type="curve" smooth="yes"/>
      <point x="149" y="-19"/>
      <point x="57" y="119"/>
      <point x="57" y="282" type="curve"/>
      <point x="57" y="462"/>
      <point x="178" y="585"/>
      <point x="331" y="585" type="curve" smooth="yes"/>
      <point x="390" y="585"/>
      <point x="440" y="570"/>
      <point x="480" y="551" type="curve" smooth="yes"/>
      <point x="496" y="543"/>
      <point x="503" y="523"/>
      <point x="496" y="507" type="curve" smooth="yes"/>
      <point x="488" y="491"/>
      <point x="468" y="484"/>
    </contour>
  </outline>
</glyph>
<glyph name="D" format="1">
  <advance width="601"/>
  <unicode hex="0044"/>
  <outline>
    <contour>
      <point x="285" y="-6" type="curve" smooth="yes"/>
      <point x="130" y="-6" type="line" smooth="yes"/>
      <point x="112" y="-6"/>
      <point x="97" y="9"/>
      <point x="97" y="27" type="curve" smooth="yes"/>
      <point x="97" y="543" type="line" smooth="yes"/>
      <point x="97" y="561"/>
      <point x="112" y="576"/>
      <point x="130" y="576" type="curve" smooth="yes"/>
      <point x="285" y="576" type="line" smooth="yes"/>
      <point x="429" y="576"/>
      <point x="549" y="458"/>
      <point x="549" y="285" type="curve" smooth="yes"/>
      <point x="549" y="122"/>
      <point x="450" y="-6"/>
    </contour>
    <contour>
      <point x="285" y="60" type="line" smooth="yes"/>
      <point x="412" y="60"/>
      <point x="483" y="162"/>
      <point x="483" y="285" type="curve" smooth="yes"/>
      <point x="483" y="414"/>
      <point x="397" y="510"/>
      <point x="285" y="510" type="curve" smooth="yes"/>
      <point x="130" y="510" type="line"/>
      <point x="163" y="543" type="line"/>
      <point x="163" y="27" type="line"/>
      <point x="130" y="60" type="line"/>
    </contour>
  </outline>
</glyph>
<glyph name="E" format="1">
  <advance width="496"/>
  <unicode hex="0045"/>
  <outline>
    <contour>
      <point x="160" y="543" type="curve" smooth="yes"/>
      <point x="160" y="424"/>
      <point x="161" y="143"/>
      <point x="160" y="27" type="curve" smooth="yes"/>
      <point x="160" y="9"/>
      <point x="145" y="-6"/>
      <point x="127" y="-6" type="curve" smooth="yes"/>
      <point x="109" y="-6"/>
      <point x="94" y="9"/>
      <point x="94" y="27" type="curve" smooth="yes"/>
      <point x="95" y="143"/>
      <point x="94" y="424"/>
      <point x="94" y="543" type="curve" smooth="yes"/>
      <point x="94" y="561"/>
      <point x="109" y="576"/>
      <point x="127" y="576" type="curve" smooth="yes"/>
      <point x="145" y="576"/>
      <point x="160" y="561"/>
    </contour>
    <contour>
      <point x="137" y="60" type="curve" smooth="yes"/>
      <point x="230" y="60"/>
      <point x="350" y="60"/>
      <point x="408" y="60" type="curve" smooth="yes"/>
      <point x="426" y="60"/>
      <point x="441" y="45"/>
      <point x="441" y="27" type="curve" smooth="yes"/>
      <point x="441" y="9"/>
      <point x="426" y="-6"/>
      <point x="408" y="-6" type="curve" smooth="yes"/>
      <point x="350" y="-6"/>
      <point x="230" y="-6"/>
      <point x="137" y="-6" type="curve" smooth="yes"/>
      <point x="119" y="-6"/>
      <point x="104" y="9"/>
      <point x="104" y="27" type="curve" smooth="yes"/>
      <point x="104" y="45"/>
      <point x="119" y="60"/>
    </contour>
    <contour>
      <point x="137" y="576" type="curve" smooth="yes"/>
      <point x="230" y="576"/>
      <point x="348" y="576"/>
      <point x="406" y="576" type="curve" smooth="yes"/>
      <point x="424" y="576"/>
      <point x="439" y="561"/>
      <point x="439" y="543" type="curve" smooth="yes"/>
      <point x="439" y="525"/>
      <point x="424" y="510"/>
      <point x="406" y="510" type="curve" smooth="yes"/>
      <point x="348" y="510"/>
      <point x="230" y="510"/>
      <point x="137" y="510" type="curve" smooth="yes"/>
      <point x="119" y="510"/>
      <point x="104" y="525"/>
      <point x="104" y="543" type="curve" smooth="yes"/>
      <point x="104" y="561"/>
      <point x="119" y="576"/>
    </contour>
    <contour>
      <point x="137" y="337" type="curve" smooth="yes"/>
      <point x="230" y="337"/>
      <point x="308" y="337"/>
      <point x="366" y="337" type="curve" smooth="yes"/>
      <point x="384" y="337"/>
      <point x="399" y="322"/>
      <point x="399" y="304" type="curve" smooth="yes"/>
      <point x="399" y="286"/>
      <point x="384" y="271"/>
      <point x="366" y="271" type="curve" smooth="yes"/>
      <point x="308" y="271"/>
      <point x="230" y="271"/>
      <point x="137" y="271" type="curve" smooth="yes"/>
      <point x="119" y="271"/>
      <point x="104" y="286"/>
      <point x="104" y="304" type="curve" smooth="yes"/>
      <point x="104" y="322"/>
      <point x="119" y="337"/>
    </contour>
  </outline>
</glyph>
<glyph name="F" format="1">
  <advance width="496"/>
  <unicode hex="0046"/>
  <outline>
    <contour>
      <point x="160" y="543" type="curve" smooth="yes"/>
      <point x="160" y="424"/>
      <point x="161" y="143"/>
      <point x="160" y="27" type="curve" smooth="yes"/>
      <point x="160" y="9"/>
      <point x="145" y="-6"/>
      <point x="127" y="-6" type="curve" smooth="yes"/>
      <point x="109" y="-6"/>
      <point x="94" y="9"/>
      <point x="94" y="27" type="curve" smooth="yes"/>
      <point x="95" y="143"/>
      <point x="94" y="424"/>
      <point x="94" y="543" type="curve" smooth="yes"/>
      <point x="94" y="561"/>
      <point x="109" y="576"/>
      <point x="127" y="576" type="curve" smooth="yes"/>
      <point x="145" y="576"/>
      <point x="160" y="561"/>
    </contour>
    <contour>
      <point x="137" y="576" type="curve" smooth="yes"/>
      <point x="230" y="576"/>
      <point x="357" y="576"/>
      <point x="415" y="576" type="curve" smooth="yes"/>
      <point x="433" y="576"/>
      <point x="448" y="561"/>
      <point x="448" y="543" type="curve" smooth="yes"/>
      <point x="448" y="525"/>
      <point x="433" y="510"/>
      <point x="415" y="510" type="curve" smooth="yes"/>
      <point x="357" y="510"/>
      <point x="230" y="510"/>
      <point x="137" y="510" type="curve" smooth="yes"/>
      <point x="119" y="510"/>
      <point x="104" y="525"/>
      <point x="104" y="543" type="curve" smooth="yes"/>
      <point x="104" y="561"/>
      <point x="119" y="576"/>
    </contour>
    <contour>
      <point x="137" y="317" type="curve" smooth="yes"/>
      <point x="230" y="317"/>
      <point x="308" y="317"/>
      <point x="366" y="317" type="curve" smooth="yes"/>
      <point x="384" y="317"/>
      <point x="399" y="302"/>
      <point x="399" y="284" type="curve" smooth="yes"/>
      <point x="399" y="266"/>
      <point x="384" y="251"/>
      <point x="366" y="251" type="curve" smooth="yes"/>
      <point x="308" y="251"/>
      <point x="230" y="251"/>
      <point x="137" y="251" type="curve" smooth="yes"/>
      <point x="119" y="251"/>
      <point x="104" y="266"/>
      <point x="104" y="284" type="curve" smooth="yes"/>
      <point x="104" y="302"/>
      <point x="119" y="317"/>
    </contour>
  </outline>
</glyph>
<glyph name="G" format="1">
  <advance width="604"/>
  <unicode hex="0047"/>
  <outline>
    <contour>
      <point x="472" y="493" type="curve" smooth="yes"/>
      <point x="427" y="512"/>
      <point x="385" y="520"/>
      <point x="345" y="520" type="curve" smooth="yes"/>
      <point x="211" y="520"/>
      <point x="124" y="423"/>
      <point x="124" y="282" type="curve" smooth="yes"/>
      <point x="124" y="155"/>
      <point x="195" y="47"/>
      <point x="338" y="47" type="curve" smooth="yes"/>
      <point x="405" y="47"/>
      <point x="456" y="64"/>
      <point x="502" y="90" type="curve" smooth="yes"/>
      <point x="518" y="99"/>
      <point x="538" y="93"/>
      <point x="547" y="77" type="curve" smooth="yes"/>
      <point x="556" y="61"/>
      <point x="550" y="41"/>
      <point x="534" y="32" type="curve" smooth="yes"/>
      <point x="478" y="2"/>
      <point x="417" y="-19"/>
      <point x="338" y="-19" type="curve" smooth="yes"/>
      <point x="155" y="-19"/>
      <point x="58" y="115"/>
      <point x="58" y="282" type="curve"/>
      <point x="58" y="465"/>
      <point x="173" y="586"/>
      <point x="345" y="586" type="curve" smooth="yes"/>
      <point x="393" y="586"/>
      <point x="443" y="576"/>
      <point x="498" y="553" type="curve" smooth="yes"/>
      <point x="514" y="547"/>
      <point x="522" y="527"/>
      <point x="515" y="510" type="curve" smooth="yes"/>
      <point x="509" y="494"/>
      <point x="489" y="486"/>
    </contour>
    <contour>
      <point x="486" y="71" type="curve" smooth="yes"/>
      <point x="486" y="266" type="line" smooth="yes"/>
      <point x="486" y="284"/>
      <point x="501" y="299"/>
      <point x="519" y="299" type="curve" smooth="yes"/>
      <point x="537" y="299"/>
      <point x="552" y="284"/>
      <point x="552" y="266" type="curve" smooth="yes"/>
      <point x="552" y="71" type="line" smooth="yes"/>
      <point x="552" y="53"/>
      <point x="537" y="38"/>
      <point x="519" y="38" type="curve" smooth="yes"/>
      <point x="501" y="38"/>
      <point x="486" y="53"/>
    </contour>
    <contour>
      <point x="507" y="233" type="curve" smooth="yes"/>
      <point x="355" y="233" type="line" smooth="yes"/>
      <point x="337" y="233"/>
      <point x="322" y="248"/>
      <point x="322" y="266" type="curve" smooth="yes"/>
      <point x="322" y="284"/>
      <point x="337" y="299"/>
      <point x="355" y="299" type="curve" smooth="yes"/>
      <point x="507" y="299" type="line" smooth="yes"/>
      <point x="525" y="299"/>
      <point x="540" y="284"/>
      <point x="540" y="266" type="curve" smooth="yes"/>
      <point x="540" y="248"/>
      <point x="525" y="233"/>
    </contour>
  </outline>
</glyph>
<glyph name="H" format="1">
  <advance width="617"/>
  <unicode hex="0048"/>
  <outline>
    <contour>
      <point x="160" y="543" type="curve" smooth="yes"/>
      <point x="160" y="424"/>
      <point x="153" y="142"/>
      <point x="148" y="26" type="curve" smooth="yes"/>
      <point x="147" y="8"/>
      <point x="131" y="-7"/>
      <point x="114" y="-6" type="curve" smooth="yes"/>
      <point x="96" y="-5"/>
      <point x="81" y="11"/>
      <point x="82" y="28" type="curve" smooth="yes"/>
      <point x="87" y="144"/>
      <point x="94" y="424"/>
      <point x="94" y="543" type="curve" smooth="yes"/>
      <point x="94" y="561"/>
      <point x="109" y="576"/>
      <point x="127" y="576" type="curve" smooth="yes"/>
      <point x="145" y="576"/>
      <point x="160" y="561"/>
    </contour>
    <contour>
      <point x="537" y="542" type="curve" smooth="yes"/>
      <point x="531" y="390"/>
      <point x="530" y="150"/>
      <point x="527" y="26" type="curve" smooth="yes"/>
      <point x="527" y="8"/>
      <point x="511" y="-6"/>
      <point x="493" y="-6" type="curve" smooth="yes"/>
      <point x="475" y="-6"/>
      <point x="461" y="10"/>
      <point x="461" y="28" type="curve" smooth="yes"/>
      <point x="464" y="152"/>
      <point x="465" y="392"/>
      <point x="471" y="544" type="curve" smooth="yes"/>
      <point x="472" y="562"/>
      <point x="487" y="577"/>
      <point x="505" y="576" type="curve" smooth="yes"/>
      <point x="523" y="575"/>
      <point x="538" y="560"/>
    </contour>
    <contour>
      <point x="126" y="336" type="curve" smooth="yes"/>
      <point x="206" y="336"/>
      <point x="420" y="336"/>
      <point x="494" y="336" type="curve" smooth="yes"/>
      <point x="512" y="336"/>
      <point x="527" y="321"/>
      <point x="527" y="303" type="curve" smooth="yes"/>
      <point x="527" y="285"/>
      <point x="512" y="270"/>
      <point x="494" y="270" type="curve" smooth="yes"/>
      <point x="420" y="270"/>
      <point x="206" y="270"/>
      <point x="126" y="270" type="curve" smooth="yes"/>
      <point x="108" y="270"/>
      <point x="93" y="285"/>
      <point x="93" y="303" type="curve" smooth="yes"/>
      <point x="93" y="321"/>
      <point x="108" y="336"/>
    </contour>
  </outline>
</glyph>
<glyph name="I" format="1">
  <advance width="264"/>
  <unicode hex="0049"/>
  <outline>
    <contour>
      <point x="167" y="543" type="curve" smooth="yes"/>
      <point x="167" y="424"/>
      <point x="165" y="153"/>
      <point x="164" y="27" type="curve" smooth="yes"/>
      <point x="164" y="9"/>
      <point x="149" y="-6"/>
      <point x="131" y="-6" type="curve" smooth="yes"/>
      <point x="113" y="-6"/>
      <point x="98" y="9"/>
      <point x="98" y="27" type="curve" smooth="yes"/>
      <point x="99" y="153"/>
      <point x="101" y="424"/>
      <point x="101" y="543" type="curve" smooth="yes"/>
      <point x="101" y="561"/>
      <point x="116" y="576"/>
      <point x="134" y="576" type="curve" smooth="yes"/>
      <point x="152" y="576"/>
      <point x="167" y="561"/>
    </contour>
  </outline>
</glyph>
<glyph name="J" format="1">
  <advance width="441.0"/>
  <unicode hex="004A"/>
  <outline>
    <contour>
      <point x="104" y="70" type="curve" smooth="yes"/>
      <point x="135" y="62"/>
      <point x="163" y="55"/>
      <point x="193" y="55" type="curve" smooth="yes"/>
      <point x="255" y="55"/>
      <point x="289" y="109"/>
      <point x="289" y="189" type="curve" smooth="yes"/>
      <point x="289" y="287"/>
      <point x="289" y="440"/>
      <point x="289" y="543" type="curve" smooth="yes"/>
      <point x="289" y="561"/>
      <point x="304" y="576"/>
      <point x="322" y="576" type="curve" smooth="yes"/>
      <point x="340" y="576"/>
      <point x="355" y="561"/>
      <point x="355" y="543" type="curve" smooth="yes"/>
      <point x="355" y="440"/>
      <point x="355" y="287"/>
      <point x="355" y="189" type="curve" smooth="yes"/>
      <point x="355" y="55"/>
      <point x="285" y="-11"/>
      <point x="193" y="-11" type="curve" smooth="yes"/>
      <point x="157" y="-11"/>
      <point x="125" y="-4"/>
      <point x="88" y="6" type="curve" smooth="yes"/>
      <point x="70" y="11"/>
      <point x="60" y="29"/>
      <point x="64" y="46" type="curve" smooth="yes"/>
      <point x="69" y="64"/>
      <point x="87" y="74"/>
    </contour>
  </outline>
</glyph>
<glyph name="K" format="1">
  <advance width="552"/>
  <unicode hex="004B"/>
  <outline>
    <contour>
      <point x="160" y="543" type="curve" smooth="yes"/>
      <point x="160" y="424"/>
      <point x="161" y="143"/>
      <point x="160" y="27" type="curve" smooth="yes"/>
      <point x="160" y="9"/>
      <point x="145" y="-6"/>
      <point x="127" y="-6" type="curve" smooth="yes"/>
      <point x="109" y="-6"/>
      <point x="94" y="9"/>
      <point x="94" y="27" type="curve" smooth="yes"/>
      <point x="95" y="143"/>
      <point x="94" y="424"/>
      <point x="94" y="543" type="curve" smooth="yes"/>
      <point x="94" y="561"/>
      <point x="109" y="576"/>
      <point x="127" y="576" type="curve" smooth="yes"/>
      <point x="145" y="576"/>
      <point x="160" y="561"/>
    </contour>
    <contour>
      <point x="287" y="343" type="curve" smooth="yes"/>
      <point x="343" y="267"/>
      <point x="460" y="114"/>
      <point x="510" y="47" type="curve" smooth="yes"/>
      <point x="521" y="32"/>
      <point x="518" y="11"/>
      <point x="504" y="1" type="curve" smooth="yes"/>
      <point x="489" y="-10"/>
      <point x="468" y="-7"/>
      <point x="458" y="7" type="curve" smooth="yes"/>
      <point x="408" y="74"/>
      <point x="289" y="227"/>
      <point x="233" y="303" type="curve" smooth="yes"/>
      <point x="223" y="318"/>
      <point x="226" y="339"/>
      <point x="240" y="350" type="curve" smooth="yes"/>
      <point x="255" y="360"/>
      <point x="276" y="357"/>
    </contour>
    <contour>
      <point x="105" y="229" type="curve" smooth="yes"/>
      <point x="155" y="276"/>
      <point x="344" y="453"/>
      <point x="450" y="566" type="curve" smooth="yes"/>
      <point x="462" y="579"/>
      <point x="484" y="579"/>
      <point x="497" y="567" type="curve" smooth="yes"/>
      <point x="510" y="555"/>
      <point x="510" y="533"/>
      <point x="498" y="520" type="curve" smooth="yes"/>
      <point x="392" y="407"/>
      <point x="201" y="228"/>
      <point x="149" y="181" type="curve" smooth="yes"/>
      <point x="136" y="169"/>
      <point x="115" y="170"/>
      <point x="103" y="183" type="curve" smooth="yes"/>
      <point x="91" y="196"/>
      <point x="92" y="217"/>
    </contour>
  </outline>
</glyph>
<glyph name="L" format="1">
  <advance width="506"/>
  <unicode hex="004C"/>
  <outline>
    <contour>
      <point x="167" y="543" type="curve" smooth="yes"/>
      <point x="167" y="424"/>
      <point x="163" y="143"/>
      <point x="162" y="27" type="curve" smooth="yes"/>
      <point x="162" y="9"/>
      <point x="147" y="-6"/>
      <point x="129" y="-6" type="curve" smooth="yes"/>
      <point x="111" y="-6"/>
      <point x="96" y="9"/>
      <point x="96" y="27" type="curve" smooth="yes"/>
      <point x="97" y="143"/>
      <point x="101" y="424"/>
      <point x="101" y="543" type="curve" smooth="yes"/>
      <point x="101" y="561"/>
      <point x="116" y="576"/>
      <point x="134" y="576" type="curve" smooth="yes"/>
      <point x="152" y="576"/>
      <point x="167" y="561"/>
    </contour>
    <contour>
      <point x="139" y="60" type="curve" smooth="yes"/>
      <point x="232" y="60"/>
      <point x="376" y="60"/>
      <point x="434" y="60" type="curve" smooth="yes"/>
      <point x="452" y="60"/>
      <point x="467" y="45"/>
      <point x="467" y="27" type="curve" smooth="yes"/>
      <point x="467" y="9"/>
      <point x="452" y="-6"/>
      <point x="434" y="-6" type="curve" smooth="yes"/>
      <point x="376" y="-6"/>
      <point x="232" y="-6"/>
      <point x="139" y="-6" type="curve" smooth="yes"/>
      <point x="121" y="-6"/>
      <point x="106" y="9"/>
      <point x="106" y="27" type="curve" smooth="yes"/>
      <point x="106" y="45"/>
      <point x="121" y="60"/>
    </contour>
  </outline>
</glyph>
<glyph name="M" format="1">
  <advance width="816"/>
  <unicode hex="004D"/>
  <outline>
    <contour>
      <point x="218" y="542" type="curve" smooth="yes"/>
      <point x="192" y="391"/>
      <point x="160" y="144"/>
      <point x="148" y="22" type="curve" smooth="yes"/>
      <point x="146" y="4"/>
      <point x="130" y="-10"/>
      <point x="112" y="-8" type="curve" smooth="yes"/>
      <point x="94" y="-6"/>
      <point x="80" y="10"/>
      <point x="82" y="28" type="curve" smooth="yes"/>
      <point x="94" y="152"/>
      <point x="126" y="401"/>
      <point x="152" y="554" type="curve" smooth="yes"/>
      <point x="155" y="571"/>
      <point x="173" y="584"/>
      <point x="191" y="581" type="curve" smooth="yes"/>
      <point x="208" y="578"/>
      <point x="221" y="560"/>
    </contour>
    <contour>
      <point x="679" y="555" type="curve" smooth="yes"/>
      <point x="712" y="389"/>
      <point x="744" y="173"/>
      <point x="763" y="29" type="curve" smooth="yes"/>
      <point x="765" y="12"/>
      <point x="752" y="-5"/>
      <point x="734" y="-8" type="curve" smooth="yes"/>
      <point x="717" y="-10"/>
      <point x="700" y="3"/>
      <point x="697" y="21" type="curve" smooth="yes"/>
      <point x="678" y="163"/>
      <point x="646" y="377"/>
      <point x="615" y="543" type="curve" smooth="yes"/>
      <point x="611" y="560"/>
      <point x="623" y="578"/>
      <point x="641" y="581" type="curve" smooth="yes"/>
      <point x="658" y="585"/>
      <point x="676" y="573"/>
    </contour>
    <contour>
      <point x="226" y="548" type="curve" smooth="yes"/>
      <point x="288" y="413"/>
      <point x="383" y="197"/>
      <point x="451" y="48" type="curve" smooth="yes"/>
      <point x="458" y="31"/>
      <point x="451" y="11"/>
      <point x="435" y="4" type="curve" smooth="yes"/>
      <point x="418" y="-3"/>
      <point x="398" y="4"/>
      <point x="391" y="20" type="curve" smooth="yes"/>
      <point x="323" y="169"/>
      <point x="228" y="385"/>
      <point x="166" y="520" type="curve" smooth="yes"/>
      <point x="159" y="536"/>
      <point x="166" y="557"/>
      <point x="182" y="564" type="curve" smooth="yes"/>
      <point x="198" y="571"/>
      <point x="219" y="564"/>
    </contour>
    <contour>
      <point x="394" y="60" type="curve" smooth="yes"/>
      <point x="455" y="205"/>
      <point x="535" y="399"/>
      <point x="610" y="555" type="curve" smooth="yes"/>
      <point x="618" y="571"/>
      <point x="638" y="578"/>
      <point x="654" y="571" type="curve" smooth="yes"/>
      <point x="670" y="563"/>
      <point x="677" y="543"/>
      <point x="670" y="527" type="curve" smooth="yes"/>
      <point x="595" y="371"/>
      <point x="515" y="179"/>
      <point x="454" y="34" type="curve" smooth="yes"/>
      <point x="448" y="18"/>
      <point x="428" y="10"/>
      <point x="411" y="17" type="curve" smooth="yes"/>
      <point x="395" y="23"/>
      <point x="387" y="43"/>
    </contour>
  </outline>
</glyph>
<glyph name="N" format="1">
  <advance width="605"/>
  <unicode hex="004E"/>
  <outline>
    <contour>
      <point x="150" y="544" type="curve" smooth="yes"/>
      <point x="150" y="424"/>
      <point x="146" y="152"/>
      <point x="146" y="27" type="curve" smooth="yes"/>
      <point x="146" y="9"/>
      <point x="131" y="-6"/>
      <point x="113" y="-6" type="curve" smooth="yes"/>
      <point x="95" y="-6"/>
      <point x="80" y="9"/>
      <point x="80" y="27" type="curve" smooth="yes"/>
      <point x="80" y="152"/>
      <point x="84" y="424"/>
      <point x="84" y="544" type="curve" smooth="yes"/>
      <point x="84" y="562"/>
      <point x="99" y="577"/>
      <point x="117" y="577" type="curve" smooth="yes"/>
      <point x="135" y="577"/>
      <point x="150" y="562"/>
    </contour>
    <contour>
      <point x="518" y="543" type="curve" smooth="yes"/>
      <point x="518" y="401"/>
      <point x="515" y="170"/>
      <point x="515" y="26" type="curve" smooth="yes"/>
      <point x="515" y="8"/>
      <point x="500" y="-7"/>
      <point x="482" y="-7" type="curve" smooth="yes"/>
      <point x="464" y="-7"/>
      <point x="449" y="8"/>
      <point x="449" y="26" type="curve" smooth="yes"/>
      <point x="449" y="170"/>
      <point x="452" y="401"/>
      <point x="452" y="543" type="curve" smooth="yes"/>
      <point x="452" y="561"/>
      <point x="467" y="576"/>
      <point x="485" y="576" type="curve" smooth="yes"/>
      <point x="503" y="576"/>
      <point x="518" y="561"/>
    </contour>
    <contour>
      <point x="152" y="562" type="curve" smooth="yes"/>
      <point x="222" y="455"/>
      <point x="395" y="197"/>
      <point x="500" y="45" type="curve" smooth="yes"/>
      <point x="510" y="30"/>
      <point x="506" y="9"/>
      <point x="492" y="-1" type="curve" smooth="yes"/>
      <point x="477" y="-11"/>
      <point x="456" y="-7"/>
      <point x="446" y="7" type="curve" smooth="yes"/>
      <point x="341" y="159"/>
      <point x="166" y="419"/>
      <point x="96" y="526" type="curve" smooth="yes"/>
      <point x="87" y="541"/>
      <point x="91" y="562"/>
      <point x="106" y="572" type="curve" smooth="yes"/>
      <point x="121" y="581"/>
      <point x="142" y="577"/>
    </contour>
  </outline>
</glyph>
<glyph name="O" format="1">
  <advance width="641"/>
  <unicode hex="004F"/>
  <outline>
    <contour>
      <point x="329" y="586" type="curve" smooth="yes"/>
      <point x="476" y="586"/>
      <point x="599" y="464"/>
      <point x="599" y="285" type="curve" smooth="yes"/>
      <point x="599" y="114"/>
      <point x="497" y="-19"/>
      <point x="329" y="-19" type="curve" smooth="yes"/>
      <point x="172" y="-19"/>
      <point x="57" y="115"/>
      <point x="57" y="282" type="curve"/>
      <point x="57" y="464"/>
      <point x="170" y="586"/>
    </contour>
    <contour>
      <point x="329" y="520" type="curve" smooth="yes"/>
      <point x="204" y="520"/>
      <point x="123" y="420"/>
      <point x="123" y="282" type="curve" smooth="yes"/>
      <point x="123" y="155"/>
      <point x="206" y="47"/>
      <point x="329" y="47" type="curve" smooth="yes"/>
      <point x="461" y="47"/>
      <point x="533" y="156"/>
      <point x="533" y="285" type="curve" smooth="yes"/>
      <point x="533" y="420"/>
      <point x="444" y="520"/>
    </contour>
  </outline>
</glyph>
<glyph name="P" format="1">
  <advance width="548"/>
  <unicode hex="0050"/>
  <outline>
    <contour>
      <point x="157" y="247" type="curve" smooth="yes"/>
      <point x="275" y="247" type="line" smooth="yes"/>
      <point x="372" y="247"/>
      <point x="421" y="305"/>
      <point x="421" y="379" type="curve" smooth="yes"/>
      <point x="421" y="457"/>
      <point x="360" y="510"/>
      <point x="275" y="510" type="curve" smooth="yes"/>
      <point x="130" y="510" type="line"/>
      <point x="163" y="543" type="line"/>
      <point x="163" y="27" type="line" smooth="yes"/>
      <point x="163" y="9"/>
      <point x="148" y="-6"/>
      <point x="130" y="-6" type="curve" smooth="yes"/>
      <point x="112" y="-6"/>
      <point x="97" y="9"/>
      <point x="97" y="27" type="curve" smooth="yes"/>
      <point x="97" y="543" type="line" smooth="yes"/>
      <point x="97" y="561"/>
      <point x="112" y="576"/>
      <point x="130" y="576" type="curve" smooth="yes"/>
      <point x="275" y="576" type="line" smooth="yes"/>
      <point x="404" y="576"/>
      <point x="487" y="493"/>
      <point x="487" y="379" type="curve" smooth="yes"/>
      <point x="487" y="271"/>
      <point x="420" y="181"/>
      <point x="275" y="181" type="curve" smooth="yes"/>
      <point x="157" y="181" type="line" smooth="yes"/>
      <point x="139" y="181"/>
      <point x="124" y="196"/>
      <point x="124" y="214" type="curve" smooth="yes"/>
      <point x="124" y="232"/>
      <point x="139" y="247"/>
    </contour>
  </outline>
</glyph>
<glyph name="Q" format="1">
  <advance width="654"/>
  <unicode hex="0051"/>
  <outline>
    <contour>
      <point x="330" y="586" type="curve" smooth="yes"/>
      <point x="477" y="586"/>
      <point x="600" y="464"/>
      <point x="600" y="285" type="curve" smooth="yes"/>
      <point x="600" y="114"/>
      <point x="498" y="-19"/>
      <point x="330" y="-19" type="curve" smooth="yes"/>
      <point x="173" y="-19"/>
      <point x="58" y="115"/>
      <point x="58" y="282" type="curve"/>
      <point x="58" y="464"/>
      <point x="171" y="586"/>
    </contour>
    <contour>
      <point x="330" y="520" type="curve" smooth="yes"/>
      <point x="205" y="520"/>
      <point x="124" y="420"/>
      <point x="124" y="282" type="curve" smooth="yes"/>
      <point x="124" y="155"/>
      <point x="207" y="47"/>
      <point x="330" y="47" type="curve" smooth="yes"/>
      <point x="462" y="47"/>
      <point x="534" y="156"/>
      <point x="534" y="285" type="curve" smooth="yes"/>
      <point x="534" y="420"/>
      <point x="445" y="520"/>
    </contour>
    <contour>
      <point x="343" y="7" type="curve" smooth="yes"/>
      <point x="351" y="-73"/>
      <point x="409" y="-109"/>
      <point x="482" y="-109" type="curve" smooth="yes"/>
      <point x="500" y="-109"/>
      <point x="515" y="-124"/>
      <point x="515" y="-142" type="curve" smooth="yes"/>
      <point x="515" y="-160"/>
      <point x="500" y="-175"/>
      <point x="482" y="-175" type="curve" smooth="yes"/>
      <point x="373" y="-175"/>
      <point x="289" y="-117"/>
      <point x="277" y="1" type="curve" smooth="yes"/>
      <point x="275" y="18"/>
      <point x="289" y="35"/>
      <point x="307" y="37" type="curve" smooth="yes"/>
      <point x="324" y="39"/>
      <point x="341" y="25"/>
    </contour>
  </outline>
</glyph>
<glyph name="R" format="1">
  <advance width="548"/>
  <unicode hex="0052"/>
  <outline>
    <contour>
      <point x="157" y="271" type="curve" smooth="yes"/>
      <point x="275" y="271" type="line" smooth="yes"/>
      <point x="368" y="271"/>
      <point x="419" y="323"/>
      <point x="419" y="391" type="curve" smooth="yes"/>
      <point x="419" y="463"/>
      <point x="358" y="510"/>
      <point x="275" y="510" type="curve" smooth="yes"/>
      <point x="130" y="510" type="line"/>
      <point x="163" y="543" type="line"/>
      <point x="163" y="27" type="line" smooth="yes"/>
      <point x="163" y="9"/>
      <point x="148" y="-6"/>
      <point x="130" y="-6" type="curve" smooth="yes"/>
      <point x="112" y="-6"/>
      <point x="97" y="9"/>
      <point x="97" y="27" type="curve" smooth="yes"/>
      <point x="97" y="543" type="line" smooth="yes"/>
      <point x="97" y="561"/>
      <point x="112" y="576"/>
      <point x="130" y="576" type="curve" smooth="yes"/>
      <point x="275" y="576" type="line" smooth="yes"/>
      <point x="404" y="576"/>
      <point x="485" y="497"/>
      <point x="485" y="391" type="curve" smooth="yes"/>
      <point x="485" y="291"/>
      <point x="420" y="205"/>
      <point x="275" y="205" type="curve" smooth="yes"/>
      <point x="157" y="205" type="line" smooth="yes"/>
      <point x="139" y="205"/>
      <point x="124" y="220"/>
      <point x="124" y="238" type="curve" smooth="yes"/>
      <point x="124" y="256"/>
      <point x="139" y="271"/>
    </contour>
    <contour>
      <point x="352" y="245" type="curve" smooth="yes"/>
      <point x="498" y="47" type="line" smooth="yes"/>
      <point x="508" y="32"/>
      <point x="505" y="11"/>
      <point x="491" y="0" type="curve" smooth="yes"/>
      <point x="476" y="-10"/>
      <point x="455" y="-7"/>
      <point x="444" y="7" type="curve" smooth="yes"/>
      <point x="298" y="205" type="line" smooth="yes"/>
      <point x="288" y="220"/>
      <point x="291" y="241"/>
      <point x="305" y="252" type="curve" smooth="yes"/>
      <point x="320" y="262"/>
      <point x="341" y="259"/>
    </contour>
  </outline>
</glyph>
<glyph name="S" format="1">
  <advance width="565"/>
  <unicode hex="0053"/>
  <outline>
    <contour>
      <point x="424" y="486" type="curve" smooth="yes"/>
      <point x="380" y="507"/>
      <point x="336" y="522"/>
      <point x="265" y="522" type="curve" smooth="yes"/>
      <point x="203" y="522"/>
      <point x="154" y="486"/>
      <point x="154" y="439" type="curve" smooth="yes"/>
      <point x="154" y="393"/>
      <point x="184" y="350"/>
      <point x="295" y="326" type="curve" smooth="yes"/>
      <point x="451" y="292"/>
      <point x="490" y="223"/>
      <point x="490" y="140" type="curve" smooth="yes"/>
      <point x="490" y="58"/>
      <point x="438" y="-25"/>
      <point x="285" y="-25" type="curve" smooth="yes"/>
      <point x="220" y="-25"/>
      <point x="142" y="-4"/>
      <point x="82" y="35" type="curve" smooth="yes"/>
      <point x="67" y="45"/>
      <point x="63" y="66"/>
      <point x="72" y="81" type="curve" smooth="yes"/>
      <point x="82" y="96"/>
      <point x="103" y="100"/>
      <point x="118" y="91" type="curve" smooth="yes"/>
      <point x="168" y="58"/>
      <point x="232" y="41"/>
      <point x="285" y="41" type="curve" smooth="yes"/>
      <point x="377" y="41"/>
      <point x="424" y="84"/>
      <point x="424" y="140" type="curve" smooth="yes"/>
      <point x="424" y="199"/>
      <point x="383" y="240"/>
      <point x="281" y="262" type="curve" smooth="yes"/>
      <point x="106" y="298"/>
      <point x="88" y="375"/>
      <point x="88" y="439" type="curve" smooth="yes"/>
      <point x="88" y="514"/>
      <point x="153" y="588"/>
      <point x="265" y="588" type="curve" smooth="yes"/>
      <point x="348" y="588"/>
      <point x="400" y="571"/>
      <point x="452" y="546" type="curve" smooth="yes"/>
      <point x="468" y="538"/>
      <point x="475" y="518"/>
      <point x="468" y="502" type="curve" smooth="yes"/>
      <point x="460" y="486"/>
      <point x="440" y="479"/>
    </contour>
  </outline>
</glyph>
<glyph name="T" format="1">
  <advance width="496"/>
  <unicode hex="0054"/>
  <outline>
    <contour>
      <point x="281" y="543" type="curve" smooth="yes"/>
      <point x="281" y="424"/>
      <point x="281" y="170"/>
      <point x="281" y="27" type="curve" smooth="yes"/>
      <point x="281" y="9"/>
      <point x="266" y="-6"/>
      <point x="248" y="-6" type="curve" smooth="yes"/>
      <point x="230" y="-6"/>
      <point x="215" y="9"/>
      <point x="215" y="27" type="curve" smooth="yes"/>
      <point x="215" y="170"/>
      <point x="215" y="424"/>
      <point x="215" y="543" type="curve" smooth="yes"/>
      <point x="215" y="561"/>
      <point x="230" y="576"/>
      <point x="248" y="576" type="curve" smooth="yes"/>
      <point x="266" y="576"/>
      <point x="281" y="561"/>
    </contour>
    <contour>
      <point x="72" y="576" type="curve" smooth="yes"/>
      <point x="427" y="576" type="line" smooth="yes"/>
      <point x="445" y="576"/>
      <point x="460" y="561"/>
      <point x="460" y="543" type="curve" smooth="yes"/>
      <point x="460" y="525"/>
      <point x="445" y="510"/>
      <point x="427" y="510" type="curve" smooth="yes"/>
      <point x="72" y="510" type="line" smooth="yes"/>
      <point x="54" y="510"/>
      <point x="39" y="525"/>
      <point x="39" y="543" type="curve" smooth="yes"/>
      <point x="39" y="561"/>
      <point x="54" y="576"/>
    </contour>
  </outline>
</glyph>
<glyph name="U" format="1">
  <advance width="633"/>
  <unicode hex="0055"/>
  <outline>
    <contour>
      <point x="156" y="543" type="curve" smooth="yes"/>
      <point x="156" y="472"/>
      <point x="156" y="309"/>
      <point x="156" y="229" type="curve" smooth="yes"/>
      <point x="156" y="117"/>
      <point x="219" y="47"/>
      <point x="316" y="47" type="curve" smooth="yes"/>
      <point x="422" y="47"/>
      <point x="478" y="117"/>
      <point x="478" y="232" type="curve" smooth="yes"/>
      <point x="478" y="309"/>
      <point x="478" y="440"/>
      <point x="478" y="543" type="curve" smooth="yes"/>
      <point x="478" y="561"/>
      <point x="493" y="576"/>
      <point x="511" y="576" type="curve" smooth="yes"/>
      <point x="529" y="576"/>
      <point x="544" y="561"/>
      <point x="544" y="543" type="curve" smooth="yes"/>
      <point x="544" y="440"/>
      <point x="544" y="309"/>
      <point x="544" y="232" type="curve" smooth="yes"/>
      <point x="544" y="71"/>
      <point x="460" y="-19"/>
      <point x="316" y="-19" type="curve" smooth="yes"/>
      <point x="185" y="-19"/>
      <point x="90" y="71"/>
      <point x="90" y="229" type="curve" smooth="yes"/>
      <point x="90" y="309"/>
      <point x="90" y="472"/>
      <point x="90" y="543" type="curve" smooth="yes"/>
      <point x="90" y="561"/>
      <point x="105" y="576"/>
      <point x="123" y="576" type="curve" smooth="yes"/>
      <point x="141" y="576"/>
      <point x="156" y="561"/>
    </contour>
  </outline>
</glyph>
<glyph name="V" format="1">
  <advance width="604"/>
  <unicode hex="0056"/>
  <outline>
    <contour>
      <point x="123" y="554" type="curve" smooth="yes"/>
      <point x="166" y="425"/>
      <point x="287" y="117"/>
      <point x="328" y="38" type="curve" smooth="yes"/>
      <point x="337" y="23"/>
      <point x="330" y="2"/>
      <point x="314" y="-6" type="curve" smooth="yes"/>
      <point x="299" y="-15"/>
      <point x="278" y="-8"/>
      <point x="270" y="8" type="curve" smooth="yes"/>
      <point x="227" y="87"/>
      <point x="104" y="401"/>
      <point x="61" y="534" type="curve" smooth="yes"/>
      <point x="55" y="551"/>
      <point x="65" y="570"/>
      <point x="82" y="575" type="curve" smooth="yes"/>
      <point x="99" y="581"/>
      <point x="118" y="571"/>
    </contour>
    <contour>
      <point x="274" y="32" type="curve" smooth="yes"/>
      <point x="320" y="121"/>
      <point x="439" y="403"/>
      <point x="491" y="554" type="curve" smooth="yes"/>
      <point x="497" y="571"/>
      <point x="516" y="580"/>
      <point x="533" y="574" type="curve" smooth="yes"/>
      <point x="550" y="568"/>
      <point x="559" y="549"/>
      <point x="553" y="532" type="curve" smooth="yes"/>
      <point x="501" y="379"/>
      <point x="380" y="93"/>
      <point x="332" y="2" type="curve" smooth="yes"/>
      <point x="324" y="-14"/>
      <point x="304" y="-21"/>
      <point x="288" y="-12" type="curve" smooth="yes"/>
      <point x="272" y="-4"/>
      <point x="265" y="16"/>
    </contour>
  </outline>
</glyph>
<glyph name="W" format="1">
  <advance width="865"/>
  <unicode hex="0057"/>
  <outline>
    <contour>
      <point x="124" y="553" type="curve" smooth="yes"/>
      <point x="159" y="423"/>
      <point x="257" y="107"/>
      <point x="289" y="29" type="curve" smooth="yes"/>
      <point x="296" y="12"/>
      <point x="288" y="-8"/>
      <point x="272" y="-14" type="curve" smooth="yes"/>
      <point x="255" y="-21"/>
      <point x="235" y="-13"/>
      <point x="229" y="3" type="curve" smooth="yes"/>
      <point x="195" y="83"/>
      <point x="95" y="403"/>
      <point x="60" y="535" type="curve" smooth="yes"/>
      <point x="56" y="553"/>
      <point x="66" y="571"/>
      <point x="83" y="576" type="curve" smooth="yes"/>
      <point x="101" y="580"/>
      <point x="119" y="570"/>
    </contour>
    <contour>
      <point x="232" y="23" type="curve" smooth="yes"/>
      <point x="269" y="112"/>
      <point x="368" y="397"/>
      <point x="410" y="548" type="curve" smooth="yes"/>
      <point x="415" y="565"/>
      <point x="434" y="576"/>
      <point x="451" y="571" type="curve" smooth="yes"/>
      <point x="468" y="566"/>
      <point x="479" y="547"/>
      <point x="474" y="530" type="curve" smooth="yes"/>
      <point x="432" y="377"/>
      <point x="331" y="88"/>
      <point x="294" y="-3" type="curve" smooth="yes"/>
      <point x="287" y="-19"/>
      <point x="267" y="-27"/>
      <point x="250" y="-21" type="curve" smooth="yes"/>
      <point x="234" y="-14"/>
      <point x="226" y="6"/>
    </contour>
    <contour>
      <point x="478" y="536" type="curve" smooth="yes"/>
      <point x="515" y="406"/>
      <point x="610" y="106"/>
      <point x="642" y="27" type="curve" smooth="yes"/>
      <point x="648" y="11"/>
      <point x="640" y="-9"/>
      <point x="623" y="-16" type="curve" smooth="yes"/>
      <point x="607" y="-22"/>
      <point x="587" y="-14"/>
      <point x="580" y="3" type="curve" smooth="yes"/>
      <point x="548" y="82"/>
      <point x="451" y="386"/>
      <point x="414" y="518" type="curve" smooth="yes"/>
      <point x="409" y="535"/>
      <point x="420" y="554"/>
      <point x="437" y="559" type="curve" smooth="yes"/>
      <point x="454" y="564"/>
      <point x="473" y="553"/>
    </contour>
    <contour>
      <point x="584" y="22" type="curve" smooth="yes"/>
      <point x="621" y="111"/>
      <point x="714" y="400"/>
      <point x="756" y="551" type="curve" smooth="yes"/>
      <point x="761" y="568"/>
      <point x="780" y="579"/>
      <point x="797" y="574" type="curve" smooth="yes"/>
      <point x="814" y="569"/>
      <point x="825" y="550"/>
      <point x="820" y="533" type="curve" smooth="yes"/>
      <point x="778" y="380"/>
      <point x="683" y="87"/>
      <point x="646" y="-4" type="curve" smooth="yes"/>
      <point x="639" y="-20"/>
      <point x="619" y="-28"/>
      <point x="602" y="-22" type="curve" smooth="yes"/>
      <point x="586" y="-15"/>
      <point x="578" y="5"/>
    </contour>
  </outline>
</glyph>
<glyph name="X" format="1">
  <advance width="604"/>
  <unicode hex="0058"/>
  <outline>
    <contour>
      <point x="198" y="562" type="curve" smooth="yes"/>
      <point x="298" y="409"/>
      <point x="500" y="136"/>
      <point x="562" y="46" type="curve" smooth="yes"/>
      <point x="572" y="31"/>
      <point x="568" y="10"/>
      <point x="554" y="0" type="curve" smooth="yes"/>
      <point x="539" y="-10"/>
      <point x="518" y="-6"/>
      <point x="508" y="8" type="curve" smooth="yes"/>
      <point x="446" y="98"/>
      <point x="244" y="373"/>
      <point x="142" y="526" type="curve" smooth="yes"/>
      <point x="133" y="541"/>
      <point x="137" y="562"/>
      <point x="152" y="572" type="curve" smooth="yes"/>
      <point x="167" y="581"/>
      <point x="188" y="577"/>
    </contour>
    <contour>
      <point x="132" y="47" type="curve" smooth="yes"/>
      <point x="216" y="160"/>
      <point x="397" y="419"/>
      <point x="488" y="561" type="curve" smooth="yes"/>
      <point x="498" y="576"/>
      <point x="519" y="580"/>
      <point x="534" y="571" type="curve" smooth="yes"/>
      <point x="549" y="561"/>
      <point x="553" y="540"/>
      <point x="544" y="525" type="curve" smooth="yes"/>
      <point x="451" y="383"/>
      <point x="270" y="122"/>
      <point x="184" y="7" type="curve" smooth="yes"/>
      <point x="174" y="-7"/>
      <point x="153" y="-10"/>
      <point x="138" y="1" type="curve" smooth="yes"/>
      <point x="124" y="11"/>
      <point x="121" y="32"/>
    </contour>
  </outline>
</glyph>
<glyph name="Y" format="1">
  <advance width="559"/>
  <unicode hex="0059"/>
  <outline>
    <contour>
      <point x="319" y="215" type="curve" smooth="yes"/>
      <point x="319" y="180"/>
      <point x="319" y="76"/>
      <point x="319" y="26" type="curve" smooth="yes"/>
      <point x="319" y="8"/>
      <point x="304" y="-7"/>
      <point x="286" y="-7" type="curve" smooth="yes"/>
      <point x="268" y="-7"/>
      <point x="253" y="8"/>
      <point x="253" y="26" type="curve" smooth="yes"/>
      <point x="253" y="76"/>
      <point x="253" y="180"/>
      <point x="253" y="215" type="curve" smooth="yes"/>
      <point x="253" y="233"/>
      <point x="268" y="248"/>
      <point x="286" y="248" type="curve" smooth="yes"/>
      <point x="304" y="248"/>
      <point x="319" y="233"/>
    </contour>
    <contour>
      <point x="104" y="561" type="curve" smooth="yes"/>
      <point x="148" y="487"/>
      <point x="267" y="306"/>
      <point x="309" y="246" type="curve" smooth="yes"/>
      <point x="319" y="231"/>
      <point x="316" y="210"/>
      <point x="301" y="200" type="curve" smooth="yes"/>
      <point x="286" y="190"/>
      <point x="265" y="193"/>
      <point x="255" y="208" type="curve" smooth="yes"/>
      <point x="213" y="268"/>
      <point x="92" y="453"/>
      <point x="48" y="527" type="curve" smooth="yes"/>
      <point x="39" y="542"/>
      <point x="44" y="563"/>
      <point x="59" y="572" type="curve" smooth="yes"/>
      <point x="74" y="581"/>
      <point x="95" y="576"/>
    </contour>
    <contour>
      <point x="259" y="240" type="curve" smooth="yes"/>
      <point x="306" y="309"/>
      <point x="422" y="487"/>
      <point x="463" y="559" type="curve" smooth="yes"/>
      <point x="472" y="575"/>
      <point x="493" y="580"/>
      <point x="508" y="572" type="curve" smooth="yes"/>
      <point x="524" y="563"/>
      <point x="529" y="542"/>
      <point x="521" y="527" type="curve" smooth="yes"/>
      <point x="478" y="453"/>
      <point x="362" y="273"/>
      <point x="313" y="202" type="curve" smooth="yes"/>
      <point x="303" y="188"/>
      <point x="282" y="184"/>
      <point x="267" y="194" type="curve" smooth="yes"/>
      <point x="253" y="204"/>
      <point x="249" y="225"/>
    </contour>
  </outline>
</glyph>
<glyph name="Z" format="1">
  <advance width="531"/>
  <unicode hex="005A"/>
  <outline>
    <contour>
      <point x="469" y="525" type="curve" smooth="yes"/>
      <point x="403" y="424"/>
      <point x="191" y="105"/>
      <point x="134" y="17" type="curve" smooth="yes"/>
      <point x="124" y="2"/>
      <point x="103" y="-2"/>
      <point x="88" y="7" type="curve" smooth="yes"/>
      <point x="73" y="17"/>
      <point x="69" y="38"/>
      <point x="78" y="53" type="curve" smooth="yes"/>
      <point x="135" y="141"/>
      <point x="347" y="460"/>
      <point x="415" y="561" type="curve" smooth="yes"/>
      <point x="424" y="576"/>
      <point x="445" y="580"/>
      <point x="460" y="570" type="curve" smooth="yes"/>
      <point x="475" y="561"/>
      <point x="479" y="540"/>
    </contour>
    <contour>
      <point x="116" y="576" type="curve" smooth="yes"/>
      <point x="214" y="576"/>
      <point x="369" y="576"/>
      <point x="430" y="576" type="curve" smooth="yes"/>
      <point x="448" y="576"/>
      <point x="463" y="561"/>
      <point x="463" y="543" type="curve" smooth="yes"/>
      <point x="463" y="525"/>
      <point x="448" y="510"/>
      <point x="430" y="510" type="curve" smooth="yes"/>
      <point x="369" y="510"/>
      <point x="214" y="510"/>
      <point x="116" y="510" type="curve" smooth="yes"/>
      <point x="98" y="510"/>
      <point x="83" y="525"/>
      <point x="83" y="543" type="curve" smooth="yes"/>
      <point x="83" y="561"/>
      <point x="98" y="576"/>
    </contour>
    <contour>
      <point x="102" y="60" type="curve" smooth="yes"/>
      <point x="200" y="60"/>
      <point x="382" y="60"/>
      <point x="443" y="60" type="curve" smooth="yes"/>
      <point x="461" y="60"/>
      <point x="476" y="45"/>
      <point x="476" y="27" type="curve" smooth="yes"/>
      <point x="476" y="9"/>
      <point x="461" y="-6"/>
      <point x="443" y="-6" type="curve" smooth="yes"/>
      <point x="382" y="-6"/>
      <point x="200" y="-6"/>
      <point x="102" y="-6" type="curve" smooth="yes"/>
      <point x="84" y="-6"/>
      <point x="69" y="9"/>
      <point x="69" y="27" type="curve" smooth="yes"/>
      <point x="69" y="45"/>
      <point x="84" y="60"/>
    </contour>
  </outline>
</glyph>
<glyph name="a" format="1">
  <advance width="465"/>
  <unicode hex="0061"/>
  <outline>
    <contour>
      <point x="108" y="404" type="curve" smooth="yes"/>
      <point x="135" y="421"/>
      <point x="182" y="434"/>
      <point x="224" y="434" type="curve" smooth="yes"/>
      <point x="339" y="434"/>
      <point x="394" y="357"/>
      <point x="394" y="250" type="curve" smooth="yes"/>
      <point x="394" y="198"/>
      <point x="394" y="140"/>
      <point x="394" y="115" type="curve" smooth="yes"/>
      <point x="394" y="76"/>
      <point x="404" y="51"/>
      <point x="417" y="32" type="curve" smooth="yes"/>
      <point x="426" y="17"/>
      <point x="422" y="-4"/>
      <point x="407" y="-14" type="curve" smooth="yes"/>
      <point x="392" y="-23"/>
      <point x="371" y="-19"/>
      <point x="361" y="-4" type="curve" smooth="yes"/>
      <point x="344" y="23"/>
      <point x="328" y="58"/>
      <point x="328" y="115" type="curve" smooth="yes"/>
      <point x="328" y="140"/>
      <point x="328" y="198"/>
      <point x="328" y="250" type="curve" smooth="yes"/>
      <point x="328" y="315"/>
      <point x="297" y="368"/>
      <point x="224" y="368" type="curve" smooth="yes"/>
      <point x="194" y="368"/>
      <point x="161" y="359"/>
      <point x="142" y="348" type="curve" smooth="yes"/>
      <point x="127" y="339"/>
      <point x="106" y="344"/>
      <point x="97" y="359" type="curve" smooth="yes"/>
      <point x="88" y="374"/>
      <point x="93" y="395"/>
    </contour>
    <contour>
      <point x="359" y="198" type="curve" smooth="yes"/>
      <point x="320" y="198"/>
      <point x="276" y="195"/>
      <point x="224" y="190" type="curve" smooth="yes"/>
      <point x="166" y="184"/>
      <point x="119" y="159"/>
      <point x="119" y="109" type="curve" smooth="yes"/>
      <point x="119" y="73"/>
      <point x="152" y="49"/>
      <point x="192" y="49" type="curve" smooth="yes"/>
      <point x="258" y="49"/>
      <point x="303" y="83"/>
      <point x="336" y="127" type="curve" smooth="yes"/>
      <point x="346" y="141"/>
      <point x="368" y="144"/>
      <point x="382" y="133" type="curve" smooth="yes"/>
      <point x="396" y="123"/>
      <point x="399" y="101"/>
      <point x="388" y="87" type="curve" smooth="yes"/>
      <point x="343" y="27"/>
      <point x="282" y="-17"/>
      <point x="192" y="-17" type="curve" smooth="yes"/>
      <point x="108" y="-17"/>
      <point x="53" y="40"/>
      <point x="53" y="109" type="curve"/>
      <point x="53" y="187"/>
      <point x="112" y="246"/>
      <point x="218" y="256" type="curve" smooth="yes"/>
      <point x="272" y="261"/>
      <point x="318" y="264"/>
      <point x="359" y="264" type="curve" smooth="yes"/>
      <point x="377" y="264"/>
      <point x="392" y="249"/>
      <point x="392" y="231" type="curve" smooth="yes"/>
      <point x="392" y="213"/>
      <point x="377" y="198"/>
    </contour>
  </outline>
</glyph>
<glyph name="c" format="1">
  <advance width="481"/>
  <unicode hex="0063"/>
  <outline>
    <contour>
      <point x="361" y="343" type="curve" smooth="yes"/>
      <point x="332" y="358"/>
      <point x="303" y="366"/>
      <point x="269" y="366" type="curve" smooth="yes"/>
      <point x="174" y="366"/>
      <point x="128" y="282"/>
      <point x="128" y="197" type="curve" smooth="yes"/>
      <point x="128" y="118"/>
      <point x="170" y="47"/>
      <point x="277" y="47" type="curve" smooth="yes"/>
      <point x="315" y="47"/>
      <point x="350" y="57"/>
      <point x="377" y="73" type="curve" smooth="yes"/>
      <point x="392" y="82"/>
      <point x="413" y="77"/>
      <point x="422" y="62" type="curve" smooth="yes"/>
      <point x="431" y="47"/>
      <point x="426" y="26"/>
      <point x="411" y="17" type="curve" smooth="yes"/>
      <point x="374" y="-5"/>
      <point x="327" y="-19"/>
      <point x="277" y="-19" type="curve" smooth="yes"/>
      <point x="124" y="-19"/>
      <point x="62" y="82"/>
      <point x="62" y="197" type="curve" smooth="yes"/>
      <point x="62" y="322"/>
      <point x="136" y="432"/>
      <point x="269" y="432" type="curve" smooth="yes"/>
      <point x="313" y="432"/>
      <point x="352" y="422"/>
      <point x="391" y="403" type="curve" smooth="yes"/>
      <point x="407" y="395"/>
      <point x="413" y="374"/>
      <point x="406" y="358" type="curve" smooth="yes"/>
      <point x="398" y="342"/>
      <point x="377" y="336"/>
    </contour>
  </outline>
</glyph>
<glyph name="d" format="1">
  <advance width="514"/>
  <unicode hex="0064"/>
  <outline>
    <contour>
      <point x="378" y="313" type="curve" smooth="yes"/>
      <point x="336" y="347"/>
      <point x="300" y="368"/>
      <point x="238" y="368" type="curve" smooth="yes"/>
      <point x="166" y="368"/>
      <point x="114" y="295"/>
      <point x="114" y="196" type="curve" smooth="yes"/>
      <point x="114" y="96"/>
      <point x="159" y="50"/>
      <point x="225" y="50" type="curve" smooth="yes"/>
      <point x="280" y="50"/>
      <point x="331" y="92"/>
      <point x="371" y="150" type="curve" smooth="yes"/>
      <point x="381" y="164"/>
      <point x="402" y="168"/>
      <point x="417" y="158" type="curve" smooth="yes"/>
      <point x="431" y="148"/>
      <point x="435" y="127"/>
      <point x="425" y="112" type="curve" smooth="yes"/>
      <point x="371" y="34"/>
      <point x="298" y="-16"/>
      <point x="225" y="-16" type="curve" smooth="yes"/>
      <point x="129" y="-16"/>
      <point x="48" y="36"/>
      <point x="48" y="196" type="curve"/>
      <point x="48" y="347"/>
      <point x="138" y="434"/>
      <point x="238" y="434" type="curve" smooth="yes"/>
      <point x="318" y="434"/>
      <point x="366" y="409"/>
      <point x="420" y="365" type="curve" smooth="yes"/>
      <point x="434" y="353"/>
      <point x="436" y="332"/>
      <point x="425" y="318" type="curve" smooth="yes"/>
      <point x="413" y="304"/>
      <point x="392" y="302"/>
    </contour>
    <contour>
      <point x="432" y="570" type="curve" smooth="yes"/>
      <point x="432" y="115" type="line" smooth="yes"/>
      <point x="432" y="76"/>
      <point x="442" y="51"/>
      <point x="455" y="32" type="curve" smooth="yes"/>
      <point x="464" y="17"/>
      <point x="460" y="-4"/>
      <point x="445" y="-14" type="curve" smooth="yes"/>
      <point x="430" y="-23"/>
      <point x="409" y="-19"/>
      <point x="399" y="-4" type="curve" smooth="yes"/>
      <point x="382" y="23"/>
      <point x="366" y="58"/>
      <point x="366" y="115" type="curve" smooth="yes"/>
      <point x="366" y="570" type="line" smooth="yes"/>
      <point x="366" y="588"/>
      <point x="381" y="603"/>
      <point x="399" y="603" type="curve" smooth="yes"/>
      <point x="417" y="603"/>
      <point x="432" y="588"/>
    </contour>
  </outline>
</glyph>
<glyph name="e" format="1">
  <advance width="493"/>
  <unicode hex="0065"/>
  <outline>
    <contour>
      <point x="102" y="246" type="curve" smooth="yes"/>
      <point x="146" y="247"/>
      <point x="230" y="246"/>
      <point x="286" y="246" type="curve" smooth="yes"/>
      <point x="330" y="246"/>
      <point x="351" y="251"/>
      <point x="363" y="262" type="curve" smooth="yes"/>
      <point x="367" y="267"/>
      <point x="373" y="276"/>
      <point x="373" y="285" type="curve" smooth="yes"/>
      <point x="373" y="323"/>
      <point x="329" y="363"/>
      <point x="265" y="363" type="curve" smooth="yes"/>
      <point x="183" y="363"/>
      <point x="128" y="289"/>
      <point x="128" y="199" type="curve" smooth="yes"/>
      <point x="128" y="95"/>
      <point x="190" y="47"/>
      <point x="279" y="47" type="curve" smooth="yes"/>
      <point x="324" y="47"/>
      <point x="346" y="54"/>
      <point x="376" y="66" type="curve" smooth="yes"/>
      <point x="393" y="72"/>
      <point x="412" y="63"/>
      <point x="419" y="47" type="curve" smooth="yes"/>
      <point x="425" y="30"/>
      <point x="416" y="11"/>
      <point x="400" y="4" type="curve" smooth="yes"/>
      <point x="362" y="-10"/>
      <point x="334" y="-19"/>
      <point x="279" y="-19" type="curve" smooth="yes"/>
      <point x="152" y="-19"/>
      <point x="62" y="49"/>
      <point x="62" y="199" type="curve"/>
      <point x="62" y="333"/>
      <point x="149" y="429"/>
      <point x="265" y="429" type="curve" smooth="yes"/>
      <point x="383" y="429"/>
      <point x="439" y="347"/>
      <point x="439" y="285" type="curve" smooth="yes"/>
      <point x="439" y="258"/>
      <point x="423" y="229"/>
      <point x="409" y="216" type="curve" smooth="yes"/>
      <point x="391" y="197"/>
      <point x="362" y="180"/>
      <point x="286" y="180" type="curve" smooth="yes"/>
      <point x="230" y="180"/>
      <point x="148" y="181"/>
      <point x="104" y="180" type="curve" smooth="yes"/>
      <point x="86" y="180"/>
      <point x="70" y="194"/>
      <point x="70" y="212" type="curve" smooth="yes"/>
      <point x="70" y="230"/>
      <point x="84" y="246"/>
    </contour>
  </outline>
</glyph>
<glyph name="f" format="1">
  <advance width="350"/>
  <unicode hex="0066"/>
  <outline>
    <contour>
      <point x="279" y="527" type="curve" smooth="yes"/>
      <point x="264" y="532"/>
      <point x="244" y="537"/>
      <point x="221" y="537" type="curve" smooth="yes"/>
      <point x="183" y="537"/>
      <point x="161" y="514"/>
      <point x="161" y="463" type="curve" smooth="yes"/>
      <point x="161" y="27" type="line" smooth="yes"/>
      <point x="161" y="9"/>
      <point x="146" y="-6"/>
      <point x="128" y="-6" type="curve" smooth="yes"/>
      <point x="110" y="-6"/>
      <point x="95" y="9"/>
      <point x="95" y="27" type="curve" smooth="yes"/>
      <point x="95" y="463" type="line" smooth="yes"/>
      <point x="95" y="570"/>
      <point x="149" y="603"/>
      <point x="221" y="603" type="curve" smooth="yes"/>
      <point x="250" y="603"/>
      <point x="276" y="596"/>
      <point x="297" y="591" type="curve" smooth="yes"/>
      <point x="314" y="586"/>
      <point x="325" y="567"/>
      <point x="320" y="550" type="curve" smooth="yes"/>
      <point x="315" y="533"/>
      <point x="296" y="522"/>
    </contour>
    <contour>
      <point x="55" y="424" type="curve" smooth="yes"/>
      <point x="283" y="424" type="line" smooth="yes"/>
      <point x="301" y="424"/>
      <point x="316" y="409"/>
      <point x="316" y="391" type="curve" smooth="yes"/>
      <point x="316" y="373"/>
      <point x="301" y="358"/>
      <point x="283" y="358" type="curve" smooth="yes"/>
      <point x="55" y="358" type="line" smooth="yes"/>
      <point x="37" y="358"/>
      <point x="22" y="373"/>
      <point x="22" y="391" type="curve" smooth="yes"/>
      <point x="22" y="409"/>
      <point x="37" y="424"/>
    </contour>
  </outline>
</glyph>
<glyph name="g" format="1">
  <advance width="514"/>
  <unicode hex="0067"/>
  <outline>
    <contour>
      <point x="378" y="321" type="curve" smooth="yes"/>
      <point x="336" y="356"/>
      <point x="294" y="368"/>
      <point x="228" y="368" type="curve" smooth="yes"/>
      <point x="157" y="368"/>
      <point x="114" y="304"/>
      <point x="114" y="206" type="curve" smooth="yes"/>
      <point x="114" y="106"/>
      <point x="158" y="47"/>
      <point x="225" y="47" type="curve" smooth="yes"/>
      <point x="280" y="47"/>
      <point x="330" y="90"/>
      <point x="370" y="155" type="curve" smooth="yes"/>
      <point x="379" y="170"/>
      <point x="400" y="175"/>
      <point x="415" y="166" type="curve" smooth="yes"/>
      <point x="430" y="157"/>
      <point x="435" y="136"/>
      <point x="426" y="121" type="curve" smooth="yes"/>
      <point x="372" y="30"/>
      <point x="298" y="-19"/>
      <point x="225" y="-19" type="curve" smooth="yes"/>
      <point x="130" y="-19"/>
      <point x="48" y="46"/>
      <point x="48" y="206" type="curve"/>
      <point x="48" y="360"/>
      <point x="127" y="434"/>
      <point x="228" y="434" type="curve" smooth="yes"/>
      <point x="312" y="434"/>
      <point x="366" y="416"/>
      <point x="420" y="373" type="curve" smooth="yes"/>
      <point x="434" y="361"/>
      <point x="436" y="340"/>
      <point x="425" y="326" type="curve" smooth="yes"/>
      <point x="413" y="312"/>
      <point x="392" y="310"/>
    </contour>
    <contour>
      <point x="139" y="-151" type="curve" smooth="yes"/>
      <point x="164" y="-161"/>
      <point x="190" y="-165"/>
      <point x="231" y="-165" type="curve" smooth="yes"/>
      <point x="326" y="-165"/>
      <point x="366" y="-97"/>
      <point x="366" y="10" type="curve" smooth="yes"/>
      <point x="366" y="391" type="line" smooth="yes"/>
      <point x="366" y="409"/>
      <point x="381" y="424"/>
      <point x="399" y="424" type="curve" smooth="yes"/>
      <point x="417" y="424"/>
      <point x="432" y="409"/>
      <point x="432" y="391" type="curve" smooth="yes"/>
      <point x="432" y="10" type="line" smooth="yes"/>
      <point x="432" y="-149"/>
      <point x="362" y="-231"/>
      <point x="231" y="-231" type="curve" smooth="yes"/>
      <point x="180" y="-231"/>
      <point x="146" y="-225"/>
      <point x="115" y="-213" type="curve" smooth="yes"/>
      <point x="98" y="-206"/>
      <point x="90" y="-187"/>
      <point x="96" y="-170" type="curve" smooth="yes"/>
      <point x="103" y="-153"/>
      <point x="122" y="-145"/>
    </contour>
  </outline>
</glyph>
<glyph name="i" format="1">
  <advance width="246"/>
  <unicode hex="0069"/>
  <outline>
    <contour>
      <point x="90" y="27" type="curve" smooth="yes"/>
      <point x="90" y="391" type="line" smooth="yes"/>
      <point x="90" y="409"/>
      <point x="105" y="424"/>
      <point x="123" y="424" type="curve" smooth="yes"/>
      <point x="141" y="424"/>
      <point x="156" y="409"/>
      <point x="156" y="391" type="curve" smooth="yes"/>
      <point x="156" y="27" type="line" smooth="yes"/>
      <point x="156" y="9"/>
      <point x="141" y="-6"/>
      <point x="123" y="-6" type="curve" smooth="yes"/>
      <point x="105" y="-6"/>
      <point x="90" y="9"/>
    </contour>
    <contour>
      <point x="157" y="588" type="curve" smooth="yes"/>
      <point x="157" y="542" type="line" smooth="yes"/>
      <point x="157" y="524"/>
      <point x="142" y="509"/>
      <point x="124" y="509" type="curve" smooth="yes"/>
      <point x="106" y="509"/>
      <point x="91" y="524"/>
      <point x="91" y="542" type="curve" smooth="yes"/>
      <point x="91" y="588" type="line" smooth="yes"/>
      <point x="91" y="606"/>
      <point x="106" y="621"/>
      <point x="124" y="621" type="curve" smooth="yes"/>
      <point x="142" y="621"/>
      <point x="157" y="606"/>
    </contour>
  </outline>
</glyph>
<glyph name="j" format="1">
  <advance width="251"/>
  <unicode hex="006A"/>
  <outline>
    <contour>
      <point x="8" y="-87" type="curve" smooth="yes"/>
      <point x="68" y="-87"/>
      <point x="92" y="-44"/>
      <point x="92" y="17" type="curve" smooth="yes"/>
      <point x="92" y="391" type="line" smooth="yes"/>
      <point x="92" y="409"/>
      <point x="107" y="424"/>
      <point x="125" y="424" type="curve" smooth="yes"/>
      <point x="143" y="424"/>
      <point x="158" y="409"/>
      <point x="158" y="391" type="curve" smooth="yes"/>
      <point x="158" y="17" type="line" smooth="yes"/>
      <point x="158" y="-92"/>
      <point x="106" y="-153"/>
      <point x="8" y="-153" type="curve" smooth="yes"/>
      <point x="-10" y="-153"/>
      <point x="-25" y="-138"/>
      <point x="-25" y="-120" type="curve" smooth="yes"/>
      <point x="-25" y="-102"/>
      <point x="-10" y="-87"/>
    </contour>
    <contour>
      <point x="159" y="579" type="curve" smooth="yes"/>
      <point x="159" y="543" type="line" smooth="yes"/>
      <point x="159" y="525"/>
      <point x="144" y="510"/>
      <point x="126" y="510" type="curve" smooth="yes"/>
      <point x="108" y="510"/>
      <point x="93" y="525"/>
      <point x="93" y="543" type="curve" smooth="yes"/>
      <point x="93" y="579" type="line" smooth="yes"/>
      <point x="93" y="597"/>
      <point x="108" y="612"/>
      <point x="126" y="612" type="curve" smooth="yes"/>
      <point x="144" y="612"/>
      <point x="159" y="597"/>
    </contour>
  </outline>
</glyph>
<glyph name="k" format="1">
  <advance width="512"/>
  <unicode hex="006B"/>
  <outline>
    <contour>
      <point x="90" y="27" type="curve" smooth="yes"/>
      <point x="90" y="570" type="line" smooth="yes"/>
      <point x="90" y="588"/>
      <point x="105" y="603"/>
      <point x="123" y="603" type="curve" smooth="yes"/>
      <point x="141" y="603"/>
      <point x="156" y="588"/>
      <point x="156" y="570" type="curve" smooth="yes"/>
      <point x="156" y="27" type="line" smooth="yes"/>
      <point x="156" y="9"/>
      <point x="141" y="-6"/>
      <point x="123" y="-6" type="curve" smooth="yes"/>
      <point x="105" y="-6"/>
      <point x="90" y="9"/>
    </contour>
    <contour>
      <point x="282" y="287" type="curve" smooth="yes"/>
      <point x="453" y="46" type="line" smooth="yes"/>
      <point x="463" y="32"/>
      <point x="460" y="10"/>
      <point x="445" y="0" type="curve" smooth="yes"/>
      <point x="431" y="-10"/>
      <point x="409" y="-7"/>
      <point x="399" y="8" type="curve" smooth="yes"/>
      <point x="228" y="249" type="line" smooth="yes"/>
      <point x="218" y="263"/>
      <point x="221" y="285"/>
      <point x="236" y="295" type="curve" smooth="yes"/>
      <point x="250" y="305"/>
      <point x="272" y="302"/>
    </contour>
    <contour>
      <point x="433" y="365" type="curve" smooth="yes"/>
      <point x="145" y="140" type="line" smooth="yes"/>
      <point x="131" y="129"/>
      <point x="110" y="132"/>
      <point x="99" y="146" type="curve" smooth="yes"/>
      <point x="88" y="160"/>
      <point x="91" y="181"/>
      <point x="105" y="192" type="curve" smooth="yes"/>
      <point x="393" y="417" type="line" smooth="yes"/>
      <point x="407" y="428"/>
      <point x="428" y="425"/>
      <point x="439" y="411" type="curve" smooth="yes"/>
      <point x="450" y="397"/>
      <point x="447" y="376"/>
    </contour>
  </outline>
</glyph>
<glyph name="l" format="1">
  <advance width="251"/>
  <unicode hex="006C"/>
  <outline>
    <contour>
      <point x="92" y="27" type="curve" smooth="yes"/>
      <point x="93" y="570" type="line" smooth="yes"/>
      <point x="93" y="588"/>
      <point x="108" y="603"/>
      <point x="126" y="603" type="curve" smooth="yes"/>
      <point x="144" y="603"/>
      <point x="159" y="588"/>
      <point x="159" y="570" type="curve" smooth="yes"/>
      <point x="158" y="27" type="line" smooth="yes"/>
      <point x="158" y="9"/>
      <point x="143" y="-6"/>
      <point x="125" y="-6" type="curve" smooth="yes"/>
      <point x="107" y="-6"/>
      <point x="92" y="9"/>
    </contour>
  </outline>
</glyph>
<glyph name="m" format="1">
  <advance width="782"/>
  <unicode hex="006D"/>
  <outline>
    <contour>
      <point x="75" y="27" type="curve" smooth="yes"/>
      <point x="75" y="391" type="line" smooth="yes"/>
      <point x="75" y="409"/>
      <point x="90" y="424"/>
      <point x="108" y="424" type="curve" smooth="yes"/>
      <point x="126" y="424"/>
      <point x="141" y="409"/>
      <point x="141" y="391" type="curve" smooth="yes"/>
      <point x="141" y="27" type="line" smooth="yes"/>
      <point x="141" y="9"/>
      <point x="126" y="-6"/>
      <point x="108" y="-6" type="curve" smooth="yes"/>
      <point x="90" y="-6"/>
      <point x="75" y="9"/>
    </contour>
    <contour>
      <point x="359" y="27" type="curve" smooth="yes"/>
      <point x="359" y="259" type="line" smooth="yes"/>
      <point x="359" y="338"/>
      <point x="327" y="368"/>
      <point x="278" y="368" type="curve" smooth="yes"/>
      <point x="223" y="368"/>
      <point x="173" y="317"/>
      <point x="139" y="265" type="curve" smooth="yes"/>
      <point x="129" y="250"/>
      <point x="108" y="246"/>
      <point x="93" y="255" type="curve" smooth="yes"/>
      <point x="78" y="265"/>
      <point x="74" y="286"/>
      <point x="83" y="301" type="curve" smooth="yes"/>
      <point x="131" y="373"/>
      <point x="205" y="434"/>
      <point x="278" y="434" type="curve" smooth="yes"/>
      <point x="357" y="434"/>
      <point x="425" y="402"/>
      <point x="425" y="259" type="curve" smooth="yes"/>
      <point x="425" y="27" type="line" smooth="yes"/>
      <point x="425" y="9"/>
      <point x="410" y="-6"/>
      <point x="392" y="-6" type="curve" smooth="yes"/>
      <point x="374" y="-6"/>
      <point x="359" y="9"/>
    </contour>
    <contour>
      <point x="640" y="27" type="curve" smooth="yes"/>
      <point x="640" y="259" type="line" smooth="yes"/>
      <point x="640" y="338"/>
      <point x="608" y="368"/>
      <point x="559" y="368" type="curve" smooth="yes"/>
      <point x="503" y="368"/>
      <point x="454" y="317"/>
      <point x="420" y="265" type="curve" smooth="yes"/>
      <point x="410" y="250"/>
      <point x="389" y="246"/>
      <point x="374" y="255" type="curve" smooth="yes"/>
      <point x="359" y="265"/>
      <point x="355" y="286"/>
      <point x="364" y="301" type="curve" smooth="yes"/>
      <point x="412" y="373"/>
      <point x="485" y="434"/>
      <point x="559" y="434" type="curve" smooth="yes"/>
      <point x="638" y="434"/>
      <point x="706" y="402"/>
      <point x="706" y="259" type="curve" smooth="yes"/>
      <point x="706" y="27" type="line" smooth="yes"/>
      <point x="706" y="9"/>
      <point x="691" y="-6"/>
      <point x="673" y="-6" type="curve" smooth="yes"/>
      <point x="655" y="-6"/>
      <point x="640" y="9"/>
    </contour>
  </outline>
</glyph>
<glyph name="n" format="1">
  <advance width="514"/>
  <unicode hex="006E"/>
  <outline>
    <contour>
      <point x="74" y="27" type="curve" smooth="yes"/>
      <point x="74" y="391" type="line" smooth="yes"/>
      <point x="74" y="409"/>
      <point x="89" y="424"/>
      <point x="107" y="424" type="curve" smooth="yes"/>
      <point x="125" y="424"/>
      <point x="140" y="409"/>
      <point x="140" y="391" type="curve" smooth="yes"/>
      <point x="140" y="27" type="line" smooth="yes"/>
      <point x="140" y="9"/>
      <point x="125" y="-6"/>
      <point x="107" y="-6" type="curve" smooth="yes"/>
      <point x="89" y="-6"/>
      <point x="74" y="9"/>
    </contour>
    <contour>
      <point x="380" y="27" type="curve" smooth="yes"/>
      <point x="380" y="249" type="line" smooth="yes"/>
      <point x="380" y="329"/>
      <point x="347" y="368"/>
      <point x="294" y="368" type="curve" smooth="yes"/>
      <point x="235" y="368"/>
      <point x="176" y="310"/>
      <point x="139" y="258" type="curve" smooth="yes"/>
      <point x="128" y="243"/>
      <point x="107" y="240"/>
      <point x="93" y="250" type="curve" smooth="yes"/>
      <point x="78" y="261"/>
      <point x="75" y="282"/>
      <point x="85" y="296" type="curve" smooth="yes"/>
      <point x="136" y="366"/>
      <point x="217" y="434"/>
      <point x="294" y="434" type="curve" smooth="yes"/>
      <point x="377" y="434"/>
      <point x="446" y="391"/>
      <point x="446" y="249" type="curve" smooth="yes"/>
      <point x="446" y="27" type="line" smooth="yes"/>
      <point x="446" y="9"/>
      <point x="431" y="-6"/>
      <point x="413" y="-6" type="curve" smooth="yes"/>
      <point x="395" y="-6"/>
      <point x="380" y="9"/>
    </contour>
  </outline>
</glyph>
<glyph name="o" format="1">
  <advance width="528"/>
  <unicode hex="006F"/>
  <outline>
    <contour>
      <point x="275" y="434" type="curve" smooth="yes"/>
      <point x="403" y="434"/>
      <point x="489" y="320"/>
      <point x="489" y="201" type="curve" smooth="yes"/>
      <point x="489" y="89"/>
      <point x="403" y="-19"/>
      <point x="275" y="-19" type="curve" smooth="yes"/>
      <point x="147" y="-19"/>
      <point x="58" y="90"/>
      <point x="58" y="204" type="curve" smooth="yes"/>
      <point x="58" y="318"/>
      <point x="145" y="434"/>
    </contour>
    <contour>
      <point x="275" y="368" type="curve" smooth="yes"/>
      <point x="183" y="368"/>
      <point x="124" y="284"/>
      <point x="124" y="204" type="curve" smooth="yes"/>
      <point x="124" y="124"/>
      <point x="185" y="47"/>
      <point x="275" y="47" type="curve" smooth="yes"/>
      <point x="365" y="47"/>
      <point x="423" y="123"/>
      <point x="423" y="201" type="curve" smooth="yes"/>
      <point x="423" y="284"/>
      <point x="367" y="368"/>
    </contour>
  </outline>
</glyph>
<glyph name="p" format="1">
  <advance width="514"/>
  <unicode hex="0070"/>
  <outline>
    <contour>
      <point x="78" y="-164" type="curve" smooth="yes"/>
      <point x="78" y="391" type="line" smooth="yes"/>
      <point x="78" y="409"/>
      <point x="93" y="424"/>
      <point x="111" y="424" type="curve" smooth="yes"/>
      <point x="129" y="424"/>
      <point x="144" y="409"/>
      <point x="144" y="391" type="curve" smooth="yes"/>
      <point x="144" y="-164" type="line" smooth="yes"/>
      <point x="144" y="-182"/>
      <point x="129" y="-197"/>
      <point x="111" y="-197" type="curve" smooth="yes"/>
      <point x="93" y="-197"/>
      <point x="78" y="-182"/>
    </contour>
    <contour>
      <point x="133" y="111" type="curve" smooth="yes"/>
      <point x="175" y="73"/>
      <point x="227" y="50"/>
      <point x="287" y="50" type="curve" smooth="yes"/>
      <point x="358" y="50"/>
      <point x="396" y="112"/>
      <point x="396" y="209" type="curve" smooth="yes"/>
      <point x="396" y="309"/>
      <point x="352" y="368"/>
      <point x="285" y="368" type="curve" smooth="yes"/>
      <point x="230" y="368"/>
      <point x="180" y="325"/>
      <point x="140" y="260" type="curve" smooth="yes"/>
      <point x="131" y="245"/>
      <point x="110" y="240"/>
      <point x="95" y="249" type="curve" smooth="yes"/>
      <point x="80" y="258"/>
      <point x="75" y="279"/>
      <point x="84" y="294" type="curve" smooth="yes"/>
      <point x="138" y="385"/>
      <point x="212" y="434"/>
      <point x="285" y="434" type="curve" smooth="yes"/>
      <point x="380" y="434"/>
      <point x="462" y="369"/>
      <point x="462" y="209" type="curve" smooth="yes"/>
      <point x="462" y="54"/>
      <point x="388" y="-16"/>
      <point x="287" y="-16" type="curve" smooth="yes"/>
      <point x="209" y="-16"/>
      <point x="143" y="13"/>
      <point x="89" y="61" type="curve" smooth="yes"/>
      <point x="76" y="73"/>
      <point x="75" y="95"/>
      <point x="86" y="108" type="curve" smooth="yes"/>
      <point x="98" y="121"/>
      <point x="120" y="122"/>
    </contour>
  </outline>
</glyph>
<glyph name="q" format="1">
  <advance width="524"/>
  <unicode hex="0071"/>
  <outline>
    <contour>
      <point x="379" y="313" type="curve" smooth="yes"/>
      <point x="337" y="348"/>
      <point x="291" y="365"/>
      <point x="229" y="365" type="curve" smooth="yes"/>
      <point x="158" y="365"/>
      <point x="115" y="304"/>
      <point x="115" y="206" type="curve" smooth="yes"/>
      <point x="115" y="106"/>
      <point x="159" y="47"/>
      <point x="226" y="47" type="curve" smooth="yes"/>
      <point x="281" y="47"/>
      <point x="331" y="90"/>
      <point x="371" y="155" type="curve" smooth="yes"/>
      <point x="380" y="170"/>
      <point x="401" y="175"/>
      <point x="416" y="166" type="curve" smooth="yes"/>
      <point x="431" y="157"/>
      <point x="436" y="136"/>
      <point x="427" y="121" type="curve" smooth="yes"/>
      <point x="373" y="30"/>
      <point x="299" y="-19"/>
      <point x="226" y="-19" type="curve" smooth="yes"/>
      <point x="131" y="-19"/>
      <point x="49" y="46"/>
      <point x="49" y="206" type="curve"/>
      <point x="49" y="360"/>
      <point x="128" y="431"/>
      <point x="229" y="431" type="curve" smooth="yes"/>
      <point x="309" y="431"/>
      <point x="367" y="408"/>
      <point x="421" y="365" type="curve" smooth="yes"/>
      <point x="435" y="353"/>
      <point x="437" y="332"/>
      <point x="426" y="318" type="curve" smooth="yes"/>
      <point x="414" y="304"/>
      <point x="393" y="302"/>
    </contour>
    <contour>
      <point x="433" y="400" type="curve" smooth="yes"/>
      <point x="433" y="-164" type="line" smooth="yes"/>
      <point x="433" y="-182"/>
      <point x="418" y="-197"/>
      <point x="400" y="-197" type="curve" smooth="yes"/>
      <point x="382" y="-197"/>
      <point x="367" y="-182"/>
      <point x="367" y="-164" type="curve" smooth="yes"/>
      <point x="367" y="400" type="line" smooth="yes"/>
      <point x="367" y="418"/>
      <point x="382" y="433"/>
      <point x="400" y="433" type="curve" smooth="yes"/>
      <point x="418" y="433"/>
      <point x="433" y="418"/>
    </contour>
  </outline>
</glyph>
<glyph name="r" format="1">
  <advance width="376"/>
  <unicode hex="0072"/>
  <outline>
    <contour>
      <point x="90" y="27" type="curve" smooth="yes"/>
      <point x="90" y="391" type="line" smooth="yes"/>
      <point x="90" y="409"/>
      <point x="105" y="424"/>
      <point x="123" y="424" type="curve" smooth="yes"/>
      <point x="141" y="424"/>
      <point x="156" y="409"/>
      <point x="156" y="391" type="curve" smooth="yes"/>
      <point x="156" y="27" type="line" smooth="yes"/>
      <point x="156" y="9"/>
      <point x="141" y="-6"/>
      <point x="123" y="-6" type="curve" smooth="yes"/>
      <point x="105" y="-6"/>
      <point x="90" y="9"/>
    </contour>
    <contour>
      <point x="95" y="311" type="curve" smooth="yes"/>
      <point x="134" y="388"/>
      <point x="197" y="428"/>
      <point x="252" y="428" type="curve" smooth="yes"/>
      <point x="287" y="428"/>
      <point x="310" y="423"/>
      <point x="331" y="413" type="curve" smooth="yes"/>
      <point x="347" y="405"/>
      <point x="354" y="385"/>
      <point x="347" y="369" type="curve" smooth="yes"/>
      <point x="339" y="353"/>
      <point x="319" y="346"/>
      <point x="303" y="353" type="curve" smooth="yes"/>
      <point x="290" y="359"/>
      <point x="275" y="362"/>
      <point x="252" y="362" type="curve" smooth="yes"/>
      <point x="215" y="362"/>
      <point x="178" y="330"/>
      <point x="153" y="281" type="curve" smooth="yes"/>
      <point x="145" y="265"/>
      <point x="125" y="259"/>
      <point x="109" y="267" type="curve" smooth="yes"/>
      <point x="93" y="275"/>
      <point x="87" y="295"/>
    </contour>
  </outline>
</glyph>
<glyph name="s" format="1">
  <advance width="447"/>
  <unicode hex="0073"/>
  <outline>
    <contour>
      <point x="344" y="345" type="curve" smooth="yes"/>
      <point x="309" y="360"/>
      <point x="274" y="371"/>
      <point x="217" y="371" type="curve" smooth="yes"/>
      <point x="175" y="371"/>
      <point x="135" y="352"/>
      <point x="135" y="321" type="curve" smooth="yes"/>
      <point x="135" y="290"/>
      <point x="163" y="265"/>
      <point x="242" y="250" type="curve" smooth="yes"/>
      <point x="377" y="225"/>
      <point x="405" y="170"/>
      <point x="405" y="108" type="curve" smooth="yes"/>
      <point x="405" y="47"/>
      <point x="366" y="-19"/>
      <point x="234" y="-19" type="curve" smooth="yes"/>
      <point x="181" y="-19"/>
      <point x="119" y="-4"/>
      <point x="69" y="24" type="curve" smooth="yes"/>
      <point x="53" y="33"/>
      <point x="47" y="53"/>
      <point x="56" y="69" type="curve" smooth="yes"/>
      <point x="65" y="85"/>
      <point x="85" y="91"/>
      <point x="101" y="82" type="curve" smooth="yes"/>
      <point x="141" y="60"/>
      <point x="191" y="47"/>
      <point x="234" y="47" type="curve" smooth="yes"/>
      <point x="298" y="47"/>
      <point x="339" y="71"/>
      <point x="339" y="108" type="curve" smooth="yes"/>
      <point x="339" y="148"/>
      <point x="303" y="171"/>
      <point x="230" y="186" type="curve" smooth="yes"/>
      <point x="79" y="213"/>
      <point x="69" y="274"/>
      <point x="69" y="321" type="curve" smooth="yes"/>
      <point x="69" y="376"/>
      <point x="121" y="437"/>
      <point x="217" y="437" type="curve" smooth="yes"/>
      <point x="286" y="437"/>
      <point x="327" y="424"/>
      <point x="370" y="407" type="curve" smooth="yes"/>
      <point x="386" y="400"/>
      <point x="394" y="380"/>
      <point x="388" y="363" type="curve" smooth="yes"/>
      <point x="381" y="347"/>
      <point x="361" y="339"/>
    </contour>
  </outline>
</glyph>
<glyph name="t" format="1">
  <advance width="376"/>
  <unicode hex="0074"/>
  <outline>
    <contour>
      <point x="161" y="525" type="curve" smooth="yes"/>
      <point x="161" y="112" type="line" smooth="yes"/>
      <point x="161" y="73"/>
      <point x="181" y="47"/>
      <point x="222" y="47" type="curve" smooth="yes"/>
      <point x="247" y="47"/>
      <point x="270" y="50"/>
      <point x="288" y="56" type="curve" smooth="yes"/>
      <point x="305" y="61"/>
      <point x="323" y="51"/>
      <point x="329" y="33" type="curve" smooth="yes"/>
      <point x="334" y="16"/>
      <point x="324" y="-2"/>
      <point x="306" y="-8" type="curve" smooth="yes"/>
      <point x="284" y="-14"/>
      <point x="255" y="-19"/>
      <point x="222" y="-19" type="curve" smooth="yes"/>
      <point x="139" y="-19"/>
      <point x="95" y="31"/>
      <point x="95" y="112" type="curve" smooth="yes"/>
      <point x="95" y="525" type="line" smooth="yes"/>
      <point x="95" y="543"/>
      <point x="110" y="558"/>
      <point x="128" y="558" type="curve" smooth="yes"/>
      <point x="146" y="558"/>
      <point x="161" y="543"/>
    </contour>
    <contour>
      <point x="45" y="424" type="curve" smooth="yes"/>
      <point x="288" y="424" type="line" smooth="yes"/>
      <point x="306" y="424"/>
      <point x="321" y="409"/>
      <point x="321" y="391" type="curve" smooth="yes"/>
      <point x="321" y="373"/>
      <point x="306" y="358"/>
      <point x="288" y="358" type="curve" smooth="yes"/>
      <point x="45" y="358" type="line" smooth="yes"/>
      <point x="27" y="358"/>
      <point x="12" y="373"/>
      <point x="12" y="391" type="curve" smooth="yes"/>
      <point x="12" y="409"/>
      <point x="27" y="424"/>
    </contour>
  </outline>
</glyph>
<glyph name="u" format="1">
  <advance width="500"/>
  <unicode hex="0075"/>
  <outline>
    <contour>
      <point x="433" y="391" type="curve" smooth="yes"/>
      <point x="433" y="27" type="line" smooth="yes"/>
      <point x="433" y="9"/>
      <point x="418" y="-6"/>
      <point x="400" y="-6" type="curve" smooth="yes"/>
      <point x="382" y="-6"/>
      <point x="367" y="9"/>
      <point x="367" y="27" type="curve" smooth="yes"/>
      <point x="367" y="391" type="line" smooth="yes"/>
      <point x="367" y="409"/>
      <point x="382" y="424"/>
      <point x="400" y="424" type="curve" smooth="yes"/>
      <point x="418" y="424"/>
      <point x="433" y="409"/>
    </contour>
    <contour>
      <point x="140" y="391" type="curve" smooth="yes"/>
      <point x="140" y="169" type="line" smooth="yes"/>
      <point x="140" y="92"/>
      <point x="171" y="55"/>
      <point x="221" y="55" type="curve" smooth="yes"/>
      <point x="277" y="55"/>
      <point x="332" y="108"/>
      <point x="368" y="160" type="curve" smooth="yes"/>
      <point x="378" y="174"/>
      <point x="399" y="178"/>
      <point x="414" y="168" type="curve" smooth="yes"/>
      <point x="428" y="158"/>
      <point x="432" y="137"/>
      <point x="422" y="122" type="curve" smooth="yes"/>
      <point x="374" y="52"/>
      <point x="295" y="-11"/>
      <point x="221" y="-11" type="curve" smooth="yes"/>
      <point x="141" y="-11"/>
      <point x="74" y="30"/>
      <point x="74" y="169" type="curve" smooth="yes"/>
      <point x="74" y="391" type="line" smooth="yes"/>
      <point x="74" y="409"/>
      <point x="89" y="424"/>
      <point x="107" y="424" type="curve" smooth="yes"/>
      <point x="125" y="424"/>
      <point x="140" y="409"/>
    </contour>
  </outline>
</glyph>
<glyph name="v" format="1">
  <advance width="514"/>
  <unicode hex="0076"/>
  <outline>
    <contour>
      <point x="110" y="402" type="curve" smooth="yes"/>
      <point x="167" y="242"/>
      <point x="227" y="111"/>
      <point x="282" y="20" type="curve"/>
      <point x="254" y="36" type="line"/>
      <point x="257" y="36" type="line"/>
      <point x="229" y="21" type="line"/>
      <point x="286" y="111"/>
      <point x="357" y="286"/>
      <point x="391" y="400" type="curve" smooth="yes"/>
      <point x="397" y="417"/>
      <point x="415" y="427"/>
      <point x="433" y="422" type="curve" smooth="yes"/>
      <point x="450" y="416"/>
      <point x="460" y="398"/>
      <point x="455" y="380" type="curve" smooth="yes"/>
      <point x="419" y="262"/>
      <point x="344" y="79"/>
      <point x="285" y="-15" type="curve" smooth="yes"/>
      <point x="280" y="-23"/>
      <point x="267" y="-30"/>
      <point x="257" y="-30" type="curve" smooth="yes"/>
      <point x="254" y="-30" type="line" smooth="yes"/>
      <point x="244" y="-30"/>
      <point x="231" y="-23"/>
      <point x="226" y="-14" type="curve" smooth="yes"/>
      <point x="169" y="79"/>
      <point x="107" y="214"/>
      <point x="48" y="380" type="curve" smooth="yes"/>
      <point x="42" y="397"/>
      <point x="51" y="416"/>
      <point x="68" y="422" type="curve" smooth="yes"/>
      <point x="85" y="428"/>
      <point x="104" y="419"/>
    </contour>
  </outline>
</glyph>
<glyph name="w" format="1">
  <advance width="753"/>
  <unicode hex="0077"/>
  <outline>
    <contour>
      <point x="110" y="401" type="curve" smooth="yes"/>
      <point x="161" y="241"/>
      <point x="213" y="110"/>
      <point x="264" y="19" type="curve"/>
      <point x="235" y="36" type="line"/>
      <point x="238" y="36" type="line"/>
      <point x="209" y="19" type="line"/>
      <point x="258" y="109"/>
      <point x="319" y="284"/>
      <point x="347" y="398" type="curve" smooth="yes"/>
      <point x="351" y="415"/>
      <point x="370" y="426"/>
      <point x="387" y="422" type="curve" smooth="yes"/>
      <point x="404" y="418"/>
      <point x="415" y="399"/>
      <point x="411" y="382" type="curve" smooth="yes"/>
      <point x="381" y="264"/>
      <point x="318" y="81"/>
      <point x="267" y="-13" type="curve" smooth="yes"/>
      <point x="262" y="-22"/>
      <point x="249" y="-30"/>
      <point x="238" y="-30" type="curve" smooth="yes"/>
      <point x="235" y="-30" type="line" smooth="yes"/>
      <point x="224" y="-30"/>
      <point x="212" y="-22"/>
      <point x="206" y="-13" type="curve" smooth="yes"/>
      <point x="153" y="80"/>
      <point x="99" y="215"/>
      <point x="48" y="381" type="curve" smooth="yes"/>
      <point x="42" y="398"/>
      <point x="52" y="417"/>
      <point x="69" y="422" type="curve" smooth="yes"/>
      <point x="86" y="428"/>
      <point x="105" y="418"/>
    </contour>
    <contour>
      <point x="417" y="400" type="curve" smooth="yes"/>
      <point x="468" y="239"/>
      <point x="517" y="108"/>
      <point x="565" y="18" type="curve"/>
      <point x="536" y="35" type="line"/>
      <point x="539" y="35" type="line"/>
      <point x="510" y="18" type="line"/>
      <point x="562" y="108"/>
      <point x="626" y="284"/>
      <point x="654" y="397" type="curve" smooth="yes"/>
      <point x="658" y="414"/>
      <point x="677" y="425"/>
      <point x="694" y="421" type="curve" smooth="yes"/>
      <point x="711" y="417"/>
      <point x="722" y="398"/>
      <point x="718" y="381" type="curve" smooth="yes"/>
      <point x="688" y="262"/>
      <point x="622" y="80"/>
      <point x="568" y="-14" type="curve" smooth="yes"/>
      <point x="562" y="-24"/>
      <point x="550" y="-31"/>
      <point x="539" y="-31" type="curve" smooth="yes"/>
      <point x="536" y="-31" type="line" smooth="yes"/>
      <point x="525" y="-31"/>
      <point x="512" y="-23"/>
      <point x="507" y="-14" type="curve" smooth="yes"/>
      <point x="457" y="80"/>
      <point x="406" y="215"/>
      <point x="355" y="380" type="curve" smooth="yes"/>
      <point x="349" y="397"/>
      <point x="359" y="416"/>
      <point x="376" y="421" type="curve" smooth="yes"/>
      <point x="393" y="427"/>
      <point x="412" y="417"/>
    </contour>
  </outline>
</glyph>
<glyph name="x" format="1">
  <advance width="418"/>
  <unicode hex="0078"/>
  <outline>
    <contour>
      <point x="41" y="49" type="curve" smooth="yes"/>
      <point x="108" y="127"/>
      <point x="251" y="304"/>
      <point x="325" y="409" type="curve" smooth="yes"/>
      <point x="335" y="424"/>
      <point x="356" y="427"/>
      <point x="371" y="417" type="curve" smooth="yes"/>
      <point x="386" y="407"/>
      <point x="389" y="386"/>
      <point x="379" y="371" type="curve" smooth="yes"/>
      <point x="305" y="264"/>
      <point x="160" y="85"/>
      <point x="91" y="5" type="curve" smooth="yes"/>
      <point x="79" y="-8"/>
      <point x="58" y="-10"/>
      <point x="44" y="2" type="curve" smooth="yes"/>
      <point x="31" y="14"/>
      <point x="29" y="35"/>
    </contour>
    <contour>
      <point x="105" y="411" type="curve" smooth="yes"/>
      <point x="176" y="317"/>
      <point x="309" y="156"/>
      <point x="388" y="46" type="curve" smooth="yes"/>
      <point x="398" y="32"/>
      <point x="395" y="11"/>
      <point x="380" y="0" type="curve" smooth="yes"/>
      <point x="366" y="-10"/>
      <point x="345" y="-7"/>
      <point x="334" y="8" type="curve" smooth="yes"/>
      <point x="255" y="118"/>
      <point x="124" y="277"/>
      <point x="53" y="371" type="curve" smooth="yes"/>
      <point x="42" y="385"/>
      <point x="45" y="407"/>
      <point x="59" y="417" type="curve" smooth="yes"/>
      <point x="73" y="428"/>
      <point x="95" y="425"/>
    </contour>
  </outline>
</glyph>
<glyph name="y" format="1">
  <advance width="514"/>
  <unicode hex="0079"/>
  <outline>
    <contour>
      <point x="121" y="402" type="curve" smooth="yes"/>
      <point x="178" y="242"/>
      <point x="241" y="123"/>
      <point x="305" y="32" type="curve"/>
      <point x="278" y="46" type="line"/>
      <point x="281" y="46" type="line"/>
      <point x="252" y="29" type="line"/>
      <point x="300" y="119"/>
      <point x="357" y="273"/>
      <point x="391" y="399" type="curve" smooth="yes"/>
      <point x="396" y="416"/>
      <point x="415" y="427"/>
      <point x="432" y="422" type="curve" smooth="yes"/>
      <point x="449" y="417"/>
      <point x="460" y="398"/>
      <point x="455" y="381" type="curve" smooth="yes"/>
      <point x="419" y="251"/>
      <point x="360" y="91"/>
      <point x="310" y="-3" type="curve" smooth="yes"/>
      <point x="305" y="-12"/>
      <point x="292" y="-20"/>
      <point x="281" y="-20" type="curve" smooth="yes"/>
      <point x="278" y="-20" type="line" smooth="yes"/>
      <point x="269" y="-20"/>
      <point x="256" y="-14"/>
      <point x="251" y="-6" type="curve" smooth="yes"/>
      <point x="185" y="89"/>
      <point x="118" y="214"/>
      <point x="59" y="380" type="curve" smooth="yes"/>
      <point x="53" y="397"/>
      <point x="62" y="416"/>
      <point x="79" y="422" type="curve" smooth="yes"/>
      <point x="96" y="428"/>
      <point x="115" y="419"/>
    </contour>
    <contour>
      <point x="67" y="-127" type="curve" smooth="yes"/>
      <point x="145" y="-127"/>
      <point x="208" y="-75"/>
      <point x="250" y="23" type="curve" smooth="yes"/>
      <point x="257" y="39"/>
      <point x="276" y="47"/>
      <point x="293" y="40" type="curve" smooth="yes"/>
      <point x="309" y="33"/>
      <point x="317" y="14"/>
      <point x="310" y="-3" type="curve" smooth="yes"/>
      <point x="256" y="-133"/>
      <point x="167" y="-193"/>
      <point x="67" y="-193" type="curve" smooth="yes"/>
      <point x="49" y="-193"/>
      <point x="34" y="-178"/>
      <point x="34" y="-160" type="curve" smooth="yes"/>
      <point x="34" y="-142"/>
      <point x="49" y="-127"/>
    </contour>
  </outline>
</glyph>
<glyph name="z" format="1">
  <advance width="486"/>
  <unicode hex="007A"/>
  <outline>
    <contour>
      <point x="376" y="358" type="curve" smooth="yes"/>
      <point x="99" y="358" type="line" smooth="yes"/>
      <point x="81" y="358"/>
      <point x="66" y="373"/>
      <point x="66" y="391" type="curve" smooth="yes"/>
      <point x="66" y="409"/>
      <point x="81" y="424"/>
      <point x="99" y="424" type="curve" smooth="yes"/>
      <point x="376" y="424" type="line" smooth="yes"/>
      <point x="394" y="424"/>
      <point x="409" y="409"/>
      <point x="409" y="391" type="curve" smooth="yes"/>
      <point x="409" y="373"/>
      <point x="394" y="358"/>
    </contour>
    <contour>
      <point x="99" y="60" type="curve" smooth="yes"/>
      <point x="395" y="60" type="line" smooth="yes"/>
      <point x="413" y="60"/>
      <point x="428" y="45"/>
      <point x="428" y="27" type="curve" smooth="yes"/>
      <point x="428" y="9"/>
      <point x="413" y="-6"/>
      <point x="395" y="-6" type="curve" smooth="yes"/>
      <point x="99" y="-6" type="line" smooth="yes"/>
      <point x="81" y="-6"/>
      <point x="66" y="9"/>
      <point x="66" y="27" type="curve" smooth="yes"/>
      <point x="66" y="45"/>
      <point x="81" y="60"/>
    </contour>
    <contour>
      <point x="408" y="370" type="curve" smooth="yes"/>
      <point x="125" y="14" type="line" smooth="yes"/>
      <point x="114" y="1"/>
      <point x="92" y="-2"/>
      <point x="78" y="9" type="curve" smooth="yes"/>
      <point x="65" y="20"/>
      <point x="62" y="42"/>
      <point x="73" y="56" type="curve" smooth="yes"/>
      <point x="356" y="412" type="line" smooth="yes"/>
      <point x="367" y="425"/>
      <point x="389" y="428"/>
      <point x="403" y="417" type="curve" smooth="yes"/>
      <point x="416" y="406"/>
      <point x="419" y="384"/>
    </contour>
  </outline>
</glyph>
<glyph name="knO" format="1">
  <advance width="775"/>
  <unicode hex="0C92"/>
  <outline>
    <contour>
      <point x="64" y="445" type="curve" smooth="yes"/>
      <point x="95" y="474"/>
      <point x="147" y="496"/>
      <point x="193" y="496" type="curve" smooth="yes"/>
      <point x="272" y="496"/>
      <point x="310" y="441"/>
      <point x="310" y="381" type="curve" smooth="yes"/>
      <point x="310" y="340"/>
      <point x="279" y="293"/>
      <point x="215" y="231" type="curve" smooth="yes"/>
      <point x="177" y="194"/>
      <point x="150" y="157"/>
      <point x="150" y="123" type="curve" smooth="yes"/>
      <point x="150" y="86"/>
      <point x="173" y="54"/>
      <point x="222" y="54" type="curve" smooth="yes"/>
      <point x="294" y="54"/>
      <point x="330" y="93"/>
      <point x="365" y="162" type="curve" smooth="yes"/>
      <point x="370" y="172"/>
      <point x="383" y="180"/>
      <point x="394" y="180" type="curve" smooth="yes"/>
      <point x="396" y="180" type="line" smooth="yes"/>
      <point x="408" y="180"/>
      <point x="421" y="171"/>
      <point x="426" y="161" type="curve" smooth="yes"/>
      <point x="456" y="95"/>
      <point x="494" y="60"/>
      <point x="548" y="60" type="curve" smooth="yes"/>
      <point x="606" y="60"/>
      <point x="644" y="102"/>
      <point x="644" y="154" type="curve" smooth="yes"/>
      <point x="644" y="183"/>
      <point x="635" y="218"/>
      <point x="626" y="240" type="curve" smooth="yes"/>
      <point x="619" y="256"/>
      <point x="626" y="276"/>
      <point x="643" y="283" type="curve" smooth="yes"/>
      <point x="659" y="290"/>
      <point x="679" y="283"/>
      <point x="686" y="266" type="curve" smooth="yes"/>
      <point x="699" y="238"/>
      <point x="710" y="193"/>
      <point x="710" y="154" type="curve" smooth="yes"/>
      <point x="710" y="66"/>
      <point x="646" y="-6"/>
      <point x="548" y="-6" type="curve" smooth="yes"/>
      <point x="470" y="-6"/>
      <point x="410" y="35"/>
      <point x="366" y="133" type="curve"/>
      <point x="396" y="114" type="line"/>
      <point x="394" y="114" type="line"/>
      <point x="423" y="132" type="line"/>
      <point x="374" y="35"/>
      <point x="320" y="-12"/>
      <point x="222" y="-12" type="curve" smooth="yes"/>
      <point x="127" y="-12"/>
      <point x="84" y="52"/>
      <point x="84" y="123" type="curve" smooth="yes"/>
      <point x="84" y="171"/>
      <point x="115" y="226"/>
      <point x="169" y="279" type="curve" smooth="yes"/>
      <point x="213" y="321"/>
      <point x="244" y="352"/>
      <point x="244" y="381" type="curve" smooth="yes"/>
      <point x="244" y="407"/>
      <point x="226" y="430"/>
      <point x="193" y="430" type="curve" smooth="yes"/>
      <point x="163" y="430"/>
      <point x="129" y="416"/>
      <point x="110" y="397" type="curve" smooth="yes"/>
      <point x="97" y="385"/>
      <point x="76" y="385"/>
      <point x="63" y="398" type="curve" smooth="yes"/>
      <point x="51" y="411"/>
      <point x="51" y="432"/>
    </contour>
  </outline>
</glyph>
<glyph name="knKa" format="1">
  <advance width="756"/>
  <unicode hex="0C95"/>
  <outline>
    <contour>
      <point x="110" y="470" type="curve" smooth="yes"/>
      <point x="496" y="470" type="line" smooth="yes"/>
      <point x="555" y="470"/>
      <point x="590" y="490"/>
      <point x="616" y="532" type="curve" smooth="yes"/>
      <point x="625" y="547"/>
      <point x="646" y="552"/>
      <point x="661" y="543" type="curve" smooth="yes"/>
      <point x="676" y="534"/>
      <point x="681" y="513"/>
      <point x="672" y="498" type="curve" smooth="yes"/>
      <point x="634" y="436"/>
      <point x="583" y="404"/>
      <point x="496" y="404" type="curve" smooth="yes"/>
      <point x="110" y="404" type="line" smooth="yes"/>
      <point x="92" y="404"/>
      <point x="77" y="419"/>
      <point x="77" y="437" type="curve" smooth="yes"/>
      <point x="77" y="455"/>
      <point x="92" y="470"/>
    </contour>
    <contour>
      <point x="106" y="315" type="curve" smooth="yes"/>
      <point x="627" y="315" type="line" smooth="yes"/>
      <point x="645" y="315"/>
      <point x="660" y="300"/>
      <point x="660" y="282" type="curve" smooth="yes"/>
      <point x="660" y="264"/>
      <point x="645" y="249"/>
      <point x="627" y="249" type="curve" smooth="yes"/>
      <point x="106" y="249" type="line" smooth="yes"/>
      <point x="88" y="249"/>
      <point x="73" y="264"/>
      <point x="73" y="282" type="curve" smooth="yes"/>
      <point x="73" y="300"/>
      <point x="88" y="315"/>
    </contour>
    <contour>
      <point x="335" y="285" type="curve" smooth="yes"/>
      <point x="335" y="409" type="line" smooth="yes"/>
      <point x="335" y="427"/>
      <point x="350" y="442"/>
      <point x="368" y="442" type="curve" smooth="yes"/>
      <point x="386" y="442"/>
      <point x="401" y="427"/>
      <point x="401" y="409" type="curve" smooth="yes"/>
      <point x="401" y="285" type="line" smooth="yes"/>
      <point x="401" y="267"/>
      <point x="386" y="252"/>
      <point x="368" y="252" type="curve" smooth="yes"/>
      <point x="350" y="252"/>
      <point x="335" y="267"/>
    </contour>
    <contour>
      <point x="296" y="249" type="curve" smooth="yes"/>
      <point x="257" y="236"/>
      <point x="205" y="199"/>
      <point x="206" y="144" type="curve" smooth="yes"/>
      <point x="207" y="89"/>
      <point x="257" y="43"/>
      <point x="366" y="43" type="curve" smooth="yes"/>
      <point x="477" y="43"/>
      <point x="525" y="89"/>
      <point x="525" y="144" type="curve" smooth="yes"/>
      <point x="525" y="198"/>
      <point x="482" y="238"/>
      <point x="432" y="248" type="curve" smooth="yes"/>
      <point x="414" y="251"/>
      <point x="402" y="269"/>
      <point x="406" y="286" type="curve" smooth="yes"/>
      <point x="409" y="304"/>
      <point x="427" y="316"/>
      <point x="444" y="312" type="curve" smooth="yes"/>
      <point x="526" y="296"/>
      <point x="591" y="230"/>
      <point x="591" y="144" type="curve" smooth="yes"/>
      <point x="591" y="67"/>
      <point x="549" y="-23"/>
      <point x="366" y="-23" type="curve" smooth="yes"/>
      <point x="187" y="-23"/>
      <point x="141" y="65"/>
      <point x="140" y="144" type="curve" smooth="yes"/>
      <point x="139" y="227"/>
      <point x="213" y="292"/>
      <point x="276" y="311" type="curve" smooth="yes"/>
      <point x="293" y="317"/>
      <point x="312" y="307"/>
      <point x="317" y="290" type="curve" smooth="yes"/>
      <point x="323" y="273"/>
      <point x="313" y="254"/>
    </contour>
  </outline>
</glyph>
<glyph name="knGha" format="1">
  <advance width="884"/>
  <unicode hex="0C98"/>
  <outline>
    <contour>
      <point x="401" y="-89" type="curve" smooth="yes"/>
      <point x="401" y="-192" type="line" smooth="yes"/>
      <point x="401" y="-210"/>
      <point x="386" y="-225"/>
      <point x="368" y="-225" type="curve" smooth="yes"/>
      <point x="350" y="-225"/>
      <point x="335" y="-210"/>
      <point x="335" y="-192" type="curve" smooth="yes"/>
      <point x="335" y="-89" type="line" smooth="yes"/>
      <point x="335" y="-71"/>
      <point x="350" y="-56"/>
      <point x="368" y="-56" type="curve" smooth="yes"/>
      <point x="386" y="-56"/>
      <point x="401" y="-71"/>
    </contour>
    <contour>
      <point x="100" y="470" type="curve" smooth="yes"/>
      <point x="515" y="470" type="line" smooth="yes"/>
      <point x="574" y="470"/>
      <point x="609" y="490"/>
      <point x="635" y="532" type="curve" smooth="yes"/>
      <point x="644" y="547"/>
      <point x="665" y="552"/>
      <point x="680" y="543" type="curve" smooth="yes"/>
      <point x="695" y="534"/>
      <point x="700" y="513"/>
      <point x="691" y="498" type="curve" smooth="yes"/>
      <point x="653" y="436"/>
      <point x="602" y="404"/>
      <point x="515" y="404" type="curve" smooth="yes"/>
      <point x="100" y="404" type="line" smooth="yes"/>
      <point x="82" y="404"/>
      <point x="67" y="419"/>
      <point x="67" y="437" type="curve" smooth="yes"/>
      <point x="67" y="455"/>
      <point x="82" y="470"/>
    </contour>
    <contour>
      <point x="162" y="199" type="curve" smooth="yes"/>
      <point x="143" y="184"/>
      <point x="130" y="158"/>
      <point x="130" y="128" type="curve" smooth="yes"/>
      <point x="130" y="95"/>
      <point x="153" y="54"/>
      <point x="206" y="54" type="curve" smooth="yes"/>
      <point x="264" y="54"/>
      <point x="310" y="92"/>
      <point x="336" y="159" type="curve" smooth="yes"/>
      <point x="341" y="171"/>
      <point x="354" y="180"/>
      <point x="367" y="180" type="curve" smooth="yes"/>
      <point x="369" y="180" type="line" smooth="yes"/>
      <point x="381" y="180"/>
      <point x="394" y="171"/>
      <point x="399" y="161" type="curve" smooth="yes"/>
      <point x="429" y="95"/>
      <point x="464" y="60"/>
      <point x="518" y="60" type="curve" smooth="yes"/>
      <point x="571" y="60"/>
      <point x="603" y="104"/>
      <point x="603" y="172" type="curve" smooth="yes"/>
      <point x="603" y="212"/>
      <point x="596" y="258"/>
      <point x="586" y="288" type="curve" smooth="yes"/>
      <point x="581" y="305"/>
      <point x="591" y="324"/>
      <point x="608" y="330" type="curve" smooth="yes"/>
      <point x="625" y="335"/>
      <point x="644" y="325"/>
      <point x="650" y="308" type="curve" smooth="yes"/>
      <point x="660" y="272"/>
      <point x="669" y="218"/>
      <point x="669" y="172" type="curve" smooth="yes"/>
      <point x="669" y="52"/>
      <point x="601" y="-6"/>
      <point x="518" y="-6" type="curve" smooth="yes"/>
      <point x="440" y="-6"/>
      <point x="383" y="35"/>
      <point x="339" y="133" type="curve"/>
      <point x="369" y="114" type="line"/>
      <point x="367" y="114" type="line"/>
      <point x="398" y="135" type="line"/>
      <point x="360" y="36"/>
      <point x="288" y="-12"/>
      <point x="206" y="-12" type="curve" smooth="yes"/>
      <point x="107" y="-12"/>
      <point x="64" y="65"/>
      <point x="64" y="128" type="curve"/>
      <point x="64" y="182"/>
      <point x="89" y="226"/>
      <point x="122" y="251" type="curve" smooth="yes"/>
      <point x="136" y="262"/>
      <point x="157" y="259"/>
      <point x="168" y="245" type="curve" smooth="yes"/>
      <point x="179" y="231"/>
      <point x="176" y="210"/>
    </contour>
    <contour>
      <point x="338" y="411" type="curve" smooth="yes"/>
      <point x="324" y="400"/>
      <point x="309" y="379"/>
      <point x="309" y="354" type="curve" smooth="yes"/>
      <point x="309" y="323"/>
      <point x="334" y="300"/>
      <point x="368" y="300" type="curve" smooth="yes"/>
      <point x="402" y="300"/>
      <point x="428" y="323"/>
      <point x="428" y="355" type="curve" smooth="yes"/>
      <point x="428" y="376"/>
      <point x="421" y="398"/>
      <point x="404" y="410" type="curve" smooth="yes"/>
      <point x="389" y="421"/>
      <point x="386" y="442"/>
      <point x="396" y="456" type="curve" smooth="yes"/>
      <point x="407" y="471"/>
      <point x="428" y="474"/>
      <point x="442" y="464" type="curve" smooth="yes"/>
      <point x="475" y="440"/>
      <point x="494" y="398"/>
      <point x="494" y="355" type="curve" smooth="yes"/>
      <point x="494" y="287"/>
      <point x="444" y="234"/>
      <point x="368" y="234" type="curve" smooth="yes"/>
      <point x="292" y="234"/>
      <point x="243" y="289"/>
      <point x="243" y="354" type="curve" smooth="yes"/>
      <point x="243" y="401"/>
      <point x="270" y="442"/>
      <point x="298" y="463" type="curve" smooth="yes"/>
      <point x="312" y="474"/>
      <point x="333" y="471"/>
      <point x="344" y="457" type="curve" smooth="yes"/>
      <point x="355" y="443"/>
      <point x="352" y="422"/>
    </contour>
    <contour>
      <point x="801" y="356" type="curve" smooth="yes"/>
      <point x="814" y="327"/>
      <point x="820" y="302"/>
      <point x="820" y="274" type="curve" smooth="yes"/>
      <point x="820" y="226"/>
      <point x="788" y="166"/>
      <point x="713" y="166" type="curve" smooth="yes"/>
      <point x="650" y="166"/>
      <point x="624" y="194"/>
      <point x="606" y="223" type="curve" smooth="yes"/>
      <point x="596" y="238"/>
      <point x="600" y="259"/>
      <point x="615" y="268" type="curve" smooth="yes"/>
      <point x="630" y="278"/>
      <point x="651" y="274"/>
      <point x="660" y="259" type="curve" smooth="yes"/>
      <point x="670" y="246"/>
      <point x="682" y="232"/>
      <point x="713" y="232" type="curve" smooth="yes"/>
      <point x="742" y="232"/>
      <point x="754" y="256"/>
      <point x="754" y="274" type="curve" smooth="yes"/>
      <point x="754" y="292"/>
      <point x="750" y="309"/>
      <point x="741" y="328" type="curve" smooth="yes"/>
      <point x="734" y="344"/>
      <point x="741" y="365"/>
      <point x="757" y="372" type="curve" smooth="yes"/>
      <point x="773" y="379"/>
      <point x="794" y="372"/>
    </contour>
  </outline>
</glyph>
<glyph name="knNga" format="1">
  <advance width="775"/>
  <unicode hex="0C99"/>
  <outline>
    <contour>
      <point x="399" y="473" type="curve" smooth="yes"/>
      <point x="480" y="473"/>
      <point x="523" y="405"/>
      <point x="523" y="355" type="curve" smooth="yes"/>
      <point x="523" y="291"/>
      <point x="481" y="234"/>
      <point x="398" y="234" type="curve" smooth="yes"/>
      <point x="314" y="234"/>
      <point x="271" y="296"/>
      <point x="271" y="354" type="curve" smooth="yes"/>
      <point x="271" y="409"/>
      <point x="313" y="473"/>
    </contour>
    <contour>
      <point x="64" y="445" type="curve" smooth="yes"/>
      <point x="95" y="474"/>
      <point x="147" y="496"/>
      <point x="193" y="496" type="curve" smooth="yes"/>
      <point x="272" y="496"/>
      <point x="310" y="441"/>
      <point x="310" y="381" type="curve" smooth="yes"/>
      <point x="310" y="340"/>
      <point x="279" y="293"/>
      <point x="215" y="231" type="curve" smooth="yes"/>
      <point x="177" y="194"/>
      <point x="150" y="157"/>
      <point x="150" y="123" type="curve" smooth="yes"/>
      <point x="150" y="86"/>
      <point x="173" y="54"/>
      <point x="222" y="54" type="curve" smooth="yes"/>
      <point x="294" y="54"/>
      <point x="330" y="93"/>
      <point x="365" y="162" type="curve" smooth="yes"/>
      <point x="370" y="172"/>
      <point x="383" y="180"/>
      <point x="394" y="180" type="curve" smooth="yes"/>
      <point x="396" y="180" type="line" smooth="yes"/>
      <point x="408" y="180"/>
      <point x="421" y="171"/>
      <point x="426" y="161" type="curve" smooth="yes"/>
      <point x="456" y="95"/>
      <point x="494" y="60"/>
      <point x="548" y="60" type="curve" smooth="yes"/>
      <point x="606" y="60"/>
      <point x="644" y="102"/>
      <point x="644" y="154" type="curve" smooth="yes"/>
      <point x="644" y="183"/>
      <point x="635" y="218"/>
      <point x="626" y="240" type="curve" smooth="yes"/>
      <point x="619" y="256"/>
      <point x="626" y="276"/>
      <point x="643" y="283" type="curve" smooth="yes"/>
      <point x="659" y="290"/>
      <point x="679" y="283"/>
      <point x="686" y="266" type="curve" smooth="yes"/>
      <point x="699" y="238"/>
      <point x="710" y="193"/>
      <point x="710" y="154" type="curve" smooth="yes"/>
      <point x="710" y="66"/>
      <point x="646" y="-6"/>
      <point x="548" y="-6" type="curve" smooth="yes"/>
      <point x="470" y="-6"/>
      <point x="410" y="35"/>
      <point x="366" y="133" type="curve"/>
      <point x="396" y="114" type="line"/>
      <point x="394" y="114" type="line"/>
      <point x="423" y="132" type="line"/>
      <point x="374" y="35"/>
      <point x="320" y="-12"/>
      <point x="222" y="-12" type="curve" smooth="yes"/>
      <point x="127" y="-12"/>
      <point x="84" y="52"/>
      <point x="84" y="123" type="curve" smooth="yes"/>
      <point x="84" y="171"/>
      <point x="115" y="226"/>
      <point x="169" y="279" type="curve" smooth="yes"/>
      <point x="213" y="321"/>
      <point x="244" y="352"/>
      <point x="244" y="381" type="curve" smooth="yes"/>
      <point x="244" y="407"/>
      <point x="226" y="430"/>
      <point x="193" y="430" type="curve" smooth="yes"/>
      <point x="163" y="430"/>
      <point x="129" y="416"/>
      <point x="110" y="397" type="curve" smooth="yes"/>
      <point x="97" y="385"/>
      <point x="76" y="385"/>
      <point x="63" y="398" type="curve" smooth="yes"/>
      <point x="51" y="411"/>
      <point x="51" y="432"/>
    </contour>
    <contour>
      <point x="212" y="321" type="curve" smooth="yes"/>
      <point x="322" y="487"/>
      <point x="402" y="538"/>
      <point x="484" y="538" type="curve" smooth="yes"/>
      <point x="566" y="538"/>
      <point x="624" y="495"/>
      <point x="676" y="415" type="curve" smooth="yes"/>
      <point x="685" y="400"/>
      <point x="681" y="379"/>
      <point x="666" y="369" type="curve" smooth="yes"/>
      <point x="651" y="360"/>
      <point x="630" y="364"/>
      <point x="620" y="379" type="curve" smooth="yes"/>
      <point x="584" y="437"/>
      <point x="544" y="472"/>
      <point x="484" y="472" type="curve" smooth="yes"/>
      <point x="416" y="472"/>
      <point x="354" y="417"/>
      <point x="268" y="285" type="curve" smooth="yes"/>
      <point x="258" y="270"/>
      <point x="237" y="266"/>
      <point x="222" y="275" type="curve" smooth="yes"/>
      <point x="207" y="285"/>
      <point x="203" y="306"/>
    </contour>
    <contour>
      <point x="399" y="407" type="curve" smooth="yes"/>
      <point x="361" y="407"/>
      <point x="337" y="381"/>
      <point x="337" y="354" type="curve" smooth="yes"/>
      <point x="337" y="326"/>
      <point x="360" y="300"/>
      <point x="398" y="300" type="curve" smooth="yes"/>
      <point x="436" y="300"/>
      <point x="457" y="325"/>
      <point x="457" y="355" type="curve" smooth="yes"/>
      <point x="457" y="379"/>
      <point x="434" y="407"/>
    </contour>
  </outline>
</glyph>
<glyph name="knJa" format="1">
  <advance width="760.0"/>
  <unicode hex="0C9C"/>
  <unicode hex="0C9B"/>
  <outline>
    <contour>
      <point x="63" y="445" type="curve" smooth="yes"/>
      <point x="94" y="474"/>
      <point x="146" y="496"/>
      <point x="192" y="496" type="curve" smooth="yes"/>
      <point x="271" y="496"/>
      <point x="309" y="441"/>
      <point x="309" y="381" type="curve" smooth="yes"/>
      <point x="309" y="340"/>
      <point x="278" y="293"/>
      <point x="214" y="231" type="curve" smooth="yes"/>
      <point x="176" y="194"/>
      <point x="149" y="157"/>
      <point x="149" y="123" type="curve" smooth="yes"/>
      <point x="149" y="86"/>
      <point x="172" y="54"/>
      <point x="221" y="54" type="curve" smooth="yes"/>
      <point x="293" y="54"/>
      <point x="329" y="93"/>
      <point x="364" y="162" type="curve" smooth="yes"/>
      <point x="369" y="172"/>
      <point x="382" y="180"/>
      <point x="393" y="180" type="curve" smooth="yes"/>
      <point x="395" y="180" type="line" smooth="yes"/>
      <point x="407" y="180"/>
      <point x="420" y="171"/>
      <point x="425" y="161" type="curve" smooth="yes"/>
      <point x="455" y="95"/>
      <point x="493" y="60"/>
      <point x="547" y="60" type="curve" smooth="yes"/>
      <point x="605" y="60"/>
      <point x="643" y="102"/>
      <point x="643" y="154" type="curve" smooth="yes"/>
      <point x="643" y="183"/>
      <point x="634" y="218"/>
      <point x="625" y="240" type="curve" smooth="yes"/>
      <point x="618" y="256"/>
      <point x="625" y="276"/>
      <point x="642" y="283" type="curve" smooth="yes"/>
      <point x="658" y="290"/>
      <point x="678" y="283"/>
      <point x="685" y="266" type="curve" smooth="yes"/>
      <point x="698" y="238"/>
      <point x="709" y="193"/>
      <point x="709" y="154" type="curve" smooth="yes"/>
      <point x="709" y="66"/>
      <point x="645" y="-6"/>
      <point x="547" y="-6" type="curve" smooth="yes"/>
      <point x="469" y="-6"/>
      <point x="409" y="35"/>
      <point x="365" y="133" type="curve"/>
      <point x="395" y="114" type="line"/>
      <point x="393" y="114" type="line"/>
      <point x="422" y="132" type="line"/>
      <point x="373" y="35"/>
      <point x="319" y="-12"/>
      <point x="221" y="-12" type="curve" smooth="yes"/>
      <point x="126" y="-12"/>
      <point x="83" y="52"/>
      <point x="83" y="123" type="curve" smooth="yes"/>
      <point x="83" y="171"/>
      <point x="114" y="226"/>
      <point x="168" y="279" type="curve" smooth="yes"/>
      <point x="212" y="321"/>
      <point x="243" y="352"/>
      <point x="243" y="381" type="curve" smooth="yes"/>
      <point x="243" y="407"/>
      <point x="225" y="430"/>
      <point x="192" y="430" type="curve" smooth="yes"/>
      <point x="162" y="430"/>
      <point x="128" y="416"/>
      <point x="109" y="397" type="curve" smooth="yes"/>
      <point x="96" y="385"/>
      <point x="75" y="385"/>
      <point x="62" y="398" type="curve" smooth="yes"/>
      <point x="50" y="411"/>
      <point x="50" y="432"/>
    </contour>
    <contour>
      <point x="642" y="402" type="curve" smooth="yes"/>
      <point x="594" y="321"/>
      <point x="536" y="278"/>
      <point x="453" y="278" type="curve" smooth="yes"/>
      <point x="369" y="278"/>
      <point x="312" y="312"/>
      <point x="234" y="412" type="curve" smooth="yes"/>
      <point x="223" y="426"/>
      <point x="226" y="447"/>
      <point x="240" y="458" type="curve" smooth="yes"/>
      <point x="254" y="469"/>
      <point x="275" y="466"/>
      <point x="286" y="452" type="curve" smooth="yes"/>
      <point x="346" y="376"/>
      <point x="387" y="344"/>
      <point x="453" y="344" type="curve" smooth="yes"/>
      <point x="512" y="344"/>
      <point x="552" y="379"/>
      <point x="586" y="436" type="curve" smooth="yes"/>
      <point x="595" y="451"/>
      <point x="616" y="456"/>
      <point x="631" y="447" type="curve" smooth="yes"/>
      <point x="646" y="438"/>
      <point x="651" y="417"/>
    </contour>
  </outline>
</glyph>
<glyph name="knJha" format="1">
  <advance width="1249"/>
  <unicode hex="0C9D"/>
  <outline>
    <contour>
      <point x="908" y="-89" type="curve" smooth="yes"/>
      <point x="908" y="-192" type="line" smooth="yes"/>
      <point x="908" y="-210"/>
      <point x="893" y="-225"/>
      <point x="875" y="-225" type="curve" smooth="yes"/>
      <point x="857" y="-225"/>
      <point x="842" y="-210"/>
      <point x="842" y="-192" type="curve" smooth="yes"/>
      <point x="842" y="-89" type="line" smooth="yes"/>
      <point x="842" y="-71"/>
      <point x="857" y="-56"/>
      <point x="875" y="-56" type="curve" smooth="yes"/>
      <point x="893" y="-56"/>
      <point x="908" y="-71"/>
    </contour>
    <component base="knUsign" xOffset="628"/>
    <component base="knUsign" xOffset="955"/>
    <component base="knRa"/>
  </outline>
</glyph>
<glyph name="knTtha" format="1">
  <advance width="677.0"/>
  <unicode hex="0CA0"/>
  <outline>
    <contour>
      <point x="79" y="222" type="curve" smooth="yes"/>
      <point x="79" y="346"/>
      <point x="184" y="470"/>
      <point x="336" y="470" type="curve" smooth="yes"/>
      <point x="491" y="470"/>
      <point x="592" y="344"/>
      <point x="592" y="222" type="curve" smooth="yes"/>
      <point x="592" y="88"/>
      <point x="497" y="-19"/>
      <point x="336" y="-19" type="curve" smooth="yes"/>
      <point x="177" y="-19"/>
      <point x="79" y="85"/>
    </contour>
    <contour>
      <point x="337" y="322" type="curve" smooth="yes"/>
      <point x="393" y="322"/>
      <point x="431" y="276"/>
      <point x="431" y="230" type="curve" smooth="yes"/>
      <point x="431" y="176"/>
      <point x="391" y="134"/>
      <point x="336" y="134" type="curve" smooth="yes"/>
      <point x="281" y="134"/>
      <point x="241" y="176"/>
      <point x="241" y="230" type="curve" smooth="yes"/>
      <point x="241" y="274"/>
      <point x="282" y="322"/>
    </contour>
    <contour>
      <point x="96" y="470" type="curve" smooth="yes"/>
      <point x="461" y="470" type="line" smooth="yes"/>
      <point x="520" y="470"/>
      <point x="555" y="490"/>
      <point x="581" y="532" type="curve" smooth="yes"/>
      <point x="590" y="547"/>
      <point x="611" y="552"/>
      <point x="626" y="543" type="curve" smooth="yes"/>
      <point x="641" y="534"/>
      <point x="646" y="513"/>
      <point x="637" y="498" type="curve" smooth="yes"/>
      <point x="599" y="436"/>
      <point x="548" y="404"/>
      <point x="461" y="404" type="curve" smooth="yes"/>
      <point x="96" y="404" type="line" smooth="yes"/>
      <point x="78" y="404"/>
      <point x="63" y="419"/>
      <point x="63" y="437" type="curve" smooth="yes"/>
      <point x="63" y="455"/>
      <point x="78" y="470"/>
    </contour>
    <contour>
      <point x="145" y="222" type="curve" smooth="yes"/>
      <point x="145" y="121"/>
      <point x="221" y="47"/>
      <point x="336" y="47" type="curve" smooth="yes"/>
      <point x="453" y="47"/>
      <point x="526" y="122"/>
      <point x="526" y="222" type="curve" smooth="yes"/>
      <point x="526" y="312"/>
      <point x="449" y="404"/>
      <point x="336" y="404" type="curve" smooth="yes"/>
      <point x="224" y="404"/>
      <point x="145" y="314"/>
    </contour>
    <contour>
      <point x="337" y="256" type="curve" smooth="yes"/>
      <point x="322" y="256"/>
      <point x="307" y="244"/>
      <point x="307" y="230" type="curve" smooth="yes"/>
      <point x="307" y="214"/>
      <point x="319" y="200"/>
      <point x="336" y="200" type="curve" smooth="yes"/>
      <point x="353" y="200"/>
      <point x="365" y="214"/>
      <point x="365" y="230" type="curve" smooth="yes"/>
      <point x="365" y="244"/>
      <point x="353" y="256"/>
    </contour>
  </outline>
</glyph>
<glyph name="knDda" format="1">
  <advance width="752"/>
  <unicode hex="0CA1"/>
  <outline>
    <contour>
      <point x="100" y="470" type="curve" smooth="yes"/>
      <point x="520" y="470" type="line" smooth="yes"/>
      <point x="579" y="470"/>
      <point x="614" y="490"/>
      <point x="640" y="532" type="curve" smooth="yes"/>
      <point x="649" y="547"/>
      <point x="670" y="552"/>
      <point x="685" y="543" type="curve" smooth="yes"/>
      <point x="700" y="534"/>
      <point x="705" y="513"/>
      <point x="696" y="498" type="curve" smooth="yes"/>
      <point x="658" y="436"/>
      <point x="607" y="404"/>
      <point x="520" y="404" type="curve" smooth="yes"/>
      <point x="100" y="404" type="line" smooth="yes"/>
      <point x="82" y="404"/>
      <point x="67" y="419"/>
      <point x="67" y="437" type="curve" smooth="yes"/>
      <point x="67" y="455"/>
      <point x="82" y="470"/>
    </contour>
    <contour>
      <point x="511" y="305" type="curve" smooth="yes"/>
      <point x="538" y="304"/>
      <point x="555" y="315"/>
      <point x="555" y="336" type="curve" smooth="yes"/>
      <point x="555" y="365"/>
      <point x="512" y="399"/>
      <point x="447" y="404" type="curve" smooth="yes"/>
      <point x="429" y="405"/>
      <point x="415" y="422"/>
      <point x="416" y="439" type="curve" smooth="yes"/>
      <point x="417" y="457"/>
      <point x="434" y="471"/>
      <point x="451" y="470" type="curve" smooth="yes"/>
      <point x="580" y="461"/>
      <point x="621" y="383"/>
      <point x="621" y="336" type="curve" smooth="yes"/>
      <point x="621" y="283"/>
      <point x="592" y="236"/>
      <point x="509" y="239" type="curve" smooth="yes"/>
      <point x="491" y="240"/>
      <point x="476" y="255"/>
      <point x="477" y="273" type="curve" smooth="yes"/>
      <point x="478" y="291"/>
      <point x="493" y="306"/>
    </contour>
    <contour>
      <point x="304" y="407" type="curve" smooth="yes"/>
      <point x="194" y="358"/>
      <point x="138" y="263"/>
      <point x="138" y="172" type="curve" smooth="yes"/>
      <point x="138" y="107"/>
      <point x="172" y="60"/>
      <point x="223" y="60" type="curve" smooth="yes"/>
      <point x="274" y="60"/>
      <point x="312" y="99"/>
      <point x="336" y="169" type="curve" smooth="yes"/>
      <point x="340" y="181"/>
      <point x="354" y="191"/>
      <point x="367" y="191" type="curve" smooth="yes"/>
      <point x="368" y="191" type="line" smooth="yes"/>
      <point x="380" y="191"/>
      <point x="394" y="182"/>
      <point x="398" y="171" type="curve" smooth="yes"/>
      <point x="427" y="102"/>
      <point x="453" y="60"/>
      <point x="508" y="60" type="curve" smooth="yes"/>
      <point x="568" y="60"/>
      <point x="602" y="104"/>
      <point x="602" y="157" type="curve" smooth="yes"/>
      <point x="602" y="201"/>
      <point x="572" y="239"/>
      <point x="494" y="239" type="curve" smooth="yes"/>
      <point x="488" y="239"/>
      <point x="459" y="239"/>
      <point x="448" y="239" type="curve" smooth="yes"/>
      <point x="430" y="239"/>
      <point x="415" y="254"/>
      <point x="415" y="272" type="curve" smooth="yes"/>
      <point x="415" y="290"/>
      <point x="430" y="305"/>
      <point x="448" y="305" type="curve" smooth="yes"/>
      <point x="459" y="305"/>
      <point x="488" y="305"/>
      <point x="494" y="305" type="curve" smooth="yes"/>
      <point x="634" y="305"/>
      <point x="668" y="229"/>
      <point x="668" y="157" type="curve" smooth="yes"/>
      <point x="668" y="68"/>
      <point x="608" y="-6"/>
      <point x="508" y="-6" type="curve" smooth="yes"/>
      <point x="431" y="-6"/>
      <point x="383" y="38"/>
      <point x="338" y="145" type="curve"/>
      <point x="368" y="125" type="line"/>
      <point x="367" y="125" type="line"/>
      <point x="398" y="147" type="line"/>
      <point x="362" y="39"/>
      <point x="296" y="-6"/>
      <point x="223" y="-6" type="curve" smooth="yes"/>
      <point x="142" y="-6"/>
      <point x="72" y="57"/>
      <point x="72" y="172" type="curve" smooth="yes"/>
      <point x="72" y="285"/>
      <point x="140" y="406"/>
      <point x="278" y="467" type="curve" smooth="yes"/>
      <point x="294" y="474"/>
      <point x="314" y="467"/>
      <point x="321" y="450" type="curve" smooth="yes"/>
      <point x="328" y="434"/>
      <point x="321" y="414"/>
    </contour>
  </outline>
</glyph>
<glyph name="knDdha" format="1">
  <advance width="752"/>
  <unicode hex="0CA2"/>
  <outline>
    <contour>
      <point x="403" y="-89" type="curve" smooth="yes"/>
      <point x="403" y="-192" type="line" smooth="yes"/>
      <point x="403" y="-210"/>
      <point x="388" y="-225"/>
      <point x="370" y="-225" type="curve" smooth="yes"/>
      <point x="352" y="-225"/>
      <point x="337" y="-210"/>
      <point x="337" y="-192" type="curve" smooth="yes"/>
      <point x="337" y="-89" type="line" smooth="yes"/>
      <point x="337" y="-71"/>
      <point x="352" y="-56"/>
      <point x="370" y="-56" type="curve" smooth="yes"/>
      <point x="388" y="-56"/>
      <point x="403" y="-71"/>
    </contour>
    <component base="knDda" xOffset="1"/>
  </outline>
</glyph>
<glyph name="knTa" format="1">
  <advance width="724.0"/>
  <unicode hex="0CA4"/>
  <outline>
    <contour>
      <point x="139" y="470" type="curve" smooth="yes"/>
      <point x="492" y="470" type="line" smooth="yes"/>
      <point x="551" y="470"/>
      <point x="586" y="490"/>
      <point x="612" y="532" type="curve" smooth="yes"/>
      <point x="621" y="547"/>
      <point x="642" y="552"/>
      <point x="657" y="543" type="curve" smooth="yes"/>
      <point x="672" y="534"/>
      <point x="677" y="513"/>
      <point x="668" y="498" type="curve" smooth="yes"/>
      <point x="630" y="436"/>
      <point x="579" y="404"/>
      <point x="492" y="404" type="curve" smooth="yes"/>
      <point x="139" y="404" type="line" smooth="yes"/>
      <point x="121" y="404"/>
      <point x="106" y="419"/>
      <point x="106" y="437" type="curve" smooth="yes"/>
      <point x="106" y="455"/>
      <point x="121" y="470"/>
    </contour>
    <contour>
      <point x="148" y="244" type="curve" smooth="yes"/>
      <point x="157" y="117"/>
      <point x="237" y="43"/>
      <point x="379" y="43" type="curve" smooth="yes"/>
      <point x="533" y="43"/>
      <point x="597" y="102"/>
      <point x="597" y="172" type="curve" smooth="yes"/>
      <point x="597" y="230"/>
      <point x="538" y="285"/>
      <point x="403" y="285" type="curve" smooth="yes"/>
      <point x="355" y="285"/>
      <point x="318" y="270"/>
      <point x="318" y="240" type="curve" smooth="yes"/>
      <point x="318" y="213"/>
      <point x="345" y="197"/>
      <point x="380" y="197" type="curve" smooth="yes"/>
      <point x="425" y="197"/>
      <point x="459" y="221"/>
      <point x="459" y="266" type="curve" smooth="yes"/>
      <point x="459" y="325"/>
      <point x="444" y="381"/>
      <point x="419" y="419" type="curve" smooth="yes"/>
      <point x="409" y="434"/>
      <point x="413" y="455"/>
      <point x="428" y="464" type="curve" smooth="yes"/>
      <point x="443" y="474"/>
      <point x="464" y="470"/>
      <point x="473" y="455" type="curve" smooth="yes"/>
      <point x="504" y="409"/>
      <point x="525" y="339"/>
      <point x="525" y="266" type="curve" smooth="yes"/>
      <point x="525" y="183"/>
      <point x="467" y="131"/>
      <point x="380" y="131" type="curve" smooth="yes"/>
      <point x="291" y="131"/>
      <point x="252" y="185"/>
      <point x="252" y="240" type="curve" smooth="yes"/>
      <point x="252" y="294"/>
      <point x="283" y="351"/>
      <point x="403" y="351" type="curve" smooth="yes"/>
      <point x="616" y="351"/>
      <point x="663" y="250"/>
      <point x="663" y="172" type="curve" smooth="yes"/>
      <point x="663" y="80"/>
      <point x="613" y="-23"/>
      <point x="379" y="-23" type="curve" smooth="yes"/>
      <point x="195" y="-23"/>
      <point x="93" y="77"/>
      <point x="82" y="240" type="curve" smooth="yes"/>
      <point x="81" y="258"/>
      <point x="95" y="274"/>
      <point x="113" y="275" type="curve" smooth="yes"/>
      <point x="131" y="276"/>
      <point x="147" y="262"/>
    </contour>
  </outline>
</glyph>
<glyph name="knTha" format="1">
  <advance width="741"/>
  <unicode hex="0CA5"/>
  <outline>
    <contour>
      <point x="100" y="470" type="curve" smooth="yes"/>
      <point x="511" y="470" type="line" smooth="yes"/>
      <point x="570" y="470"/>
      <point x="605" y="490"/>
      <point x="631" y="532" type="curve" smooth="yes"/>
      <point x="640" y="547"/>
      <point x="661" y="552"/>
      <point x="676" y="543" type="curve" smooth="yes"/>
      <point x="691" y="534"/>
      <point x="696" y="513"/>
      <point x="687" y="498" type="curve" smooth="yes"/>
      <point x="649" y="436"/>
      <point x="598" y="404"/>
      <point x="511" y="404" type="curve" smooth="yes"/>
      <point x="100" y="404" type="line" smooth="yes"/>
      <point x="82" y="404"/>
      <point x="67" y="419"/>
      <point x="67" y="437" type="curve" smooth="yes"/>
      <point x="67" y="455"/>
      <point x="82" y="470"/>
    </contour>
    <contour>
      <point x="304" y="407" type="curve" smooth="yes"/>
      <point x="194" y="358"/>
      <point x="138" y="263"/>
      <point x="138" y="172" type="curve" smooth="yes"/>
      <point x="138" y="107"/>
      <point x="172" y="60"/>
      <point x="223" y="60" type="curve" smooth="yes"/>
      <point x="274" y="60"/>
      <point x="312" y="99"/>
      <point x="336" y="169" type="curve" smooth="yes"/>
      <point x="340" y="181"/>
      <point x="354" y="191"/>
      <point x="367" y="191" type="curve" smooth="yes"/>
      <point x="368" y="191" type="line" smooth="yes"/>
      <point x="380" y="191"/>
      <point x="394" y="182"/>
      <point x="398" y="171" type="curve" smooth="yes"/>
      <point x="427" y="102"/>
      <point x="453" y="60"/>
      <point x="508" y="60" type="curve" smooth="yes"/>
      <point x="561" y="60"/>
      <point x="599" y="104"/>
      <point x="599" y="172" type="curve" smooth="yes"/>
      <point x="599" y="262"/>
      <point x="538" y="357"/>
      <point x="426" y="407" type="curve" smooth="yes"/>
      <point x="409" y="414"/>
      <point x="402" y="434"/>
      <point x="409" y="450" type="curve" smooth="yes"/>
      <point x="416" y="467"/>
      <point x="436" y="474"/>
      <point x="452" y="467" type="curve" smooth="yes"/>
      <point x="594" y="405"/>
      <point x="665" y="284"/>
      <point x="665" y="172" type="curve" smooth="yes"/>
      <point x="665" y="56"/>
      <point x="591" y="-6"/>
      <point x="508" y="-6" type="curve" smooth="yes"/>
      <point x="431" y="-6"/>
      <point x="383" y="38"/>
      <point x="338" y="145" type="curve"/>
      <point x="368" y="125" type="line"/>
      <point x="367" y="125" type="line"/>
      <point x="398" y="147" type="line"/>
      <point x="362" y="39"/>
      <point x="296" y="-6"/>
      <point x="223" y="-6" type="curve" smooth="yes"/>
      <point x="142" y="-6"/>
      <point x="72" y="57"/>
      <point x="72" y="172" type="curve" smooth="yes"/>
      <point x="72" y="285"/>
      <point x="140" y="406"/>
      <point x="278" y="467" type="curve" smooth="yes"/>
      <point x="294" y="474"/>
      <point x="314" y="467"/>
      <point x="321" y="450" type="curve" smooth="yes"/>
      <point x="328" y="434"/>
      <point x="321" y="414"/>
    </contour>
    <contour>
      <point x="368" y="322" type="curve" smooth="yes"/>
      <point x="424" y="322"/>
      <point x="462" y="276"/>
      <point x="462" y="230" type="curve" smooth="yes"/>
      <point x="462" y="176"/>
      <point x="422" y="134"/>
      <point x="367" y="134" type="curve" smooth="yes"/>
      <point x="312" y="134"/>
      <point x="272" y="176"/>
      <point x="272" y="230" type="curve" smooth="yes"/>
      <point x="272" y="274"/>
      <point x="313" y="322"/>
    </contour>
    <contour>
      <point x="368" y="256" type="curve" smooth="yes"/>
      <point x="353" y="256"/>
      <point x="338" y="244"/>
      <point x="338" y="230" type="curve" smooth="yes"/>
      <point x="338" y="214"/>
      <point x="350" y="200"/>
      <point x="367" y="200" type="curve" smooth="yes"/>
      <point x="384" y="200"/>
      <point x="396" y="214"/>
      <point x="396" y="230" type="curve" smooth="yes"/>
      <point x="396" y="244"/>
      <point x="384" y="256"/>
    </contour>
    <contour>
      <point x="399" y="-89" type="curve" smooth="yes"/>
      <point x="399" y="-192" type="line" smooth="yes"/>
      <point x="399" y="-210"/>
      <point x="384" y="-225"/>
      <point x="366" y="-225" type="curve" smooth="yes"/>
      <point x="348" y="-225"/>
      <point x="333" y="-210"/>
      <point x="333" y="-192" type="curve" smooth="yes"/>
      <point x="333" y="-89" type="line" smooth="yes"/>
      <point x="333" y="-71"/>
      <point x="348" y="-56"/>
      <point x="366" y="-56" type="curve" smooth="yes"/>
      <point x="384" y="-56"/>
      <point x="399" y="-71"/>
    </contour>
  </outline>
</glyph>
<glyph name="knNa" format="1">
  <advance width="710"/>
  <unicode hex="0CA8"/>
  <outline>
    <contour>
      <point x="101" y="470" type="curve" smooth="yes"/>
      <point x="483" y="470" type="line" smooth="yes"/>
      <point x="542" y="470"/>
      <point x="577" y="490"/>
      <point x="603" y="532" type="curve" smooth="yes"/>
      <point x="612" y="547"/>
      <point x="633" y="552"/>
      <point x="648" y="543" type="curve" smooth="yes"/>
      <point x="663" y="534"/>
      <point x="668" y="513"/>
      <point x="659" y="498" type="curve" smooth="yes"/>
      <point x="621" y="436"/>
      <point x="570" y="404"/>
      <point x="483" y="404" type="curve" smooth="yes"/>
      <point x="101" y="404" type="line" smooth="yes"/>
      <point x="83" y="404"/>
      <point x="68" y="419"/>
      <point x="68" y="437" type="curve" smooth="yes"/>
      <point x="68" y="455"/>
      <point x="83" y="470"/>
    </contour>
    <contour>
      <point x="88" y="5" type="curve" smooth="yes"/>
      <point x="91" y="129"/>
      <point x="110" y="202"/>
      <point x="145" y="236" type="curve" smooth="yes"/>
      <point x="176" y="268"/>
      <point x="200" y="274"/>
      <point x="233" y="274" type="curve" smooth="yes"/>
      <point x="289" y="274"/>
      <point x="340" y="244"/>
      <point x="385" y="148" type="curve" smooth="yes"/>
      <point x="409" y="96"/>
      <point x="430" y="60"/>
      <point x="480" y="60" type="curve" smooth="yes"/>
      <point x="533" y="60"/>
      <point x="571" y="104"/>
      <point x="571" y="172" type="curve" smooth="yes"/>
      <point x="571" y="262"/>
      <point x="510" y="357"/>
      <point x="398" y="407" type="curve" smooth="yes"/>
      <point x="381" y="414"/>
      <point x="374" y="434"/>
      <point x="381" y="450" type="curve" smooth="yes"/>
      <point x="388" y="467"/>
      <point x="408" y="474"/>
      <point x="424" y="467" type="curve" smooth="yes"/>
      <point x="566" y="405"/>
      <point x="637" y="284"/>
      <point x="637" y="172" type="curve" smooth="yes"/>
      <point x="637" y="56"/>
      <point x="563" y="-6"/>
      <point x="480" y="-6" type="curve" smooth="yes"/>
      <point x="404" y="-6"/>
      <point x="365" y="36"/>
      <point x="325" y="120" type="curve" smooth="yes"/>
      <point x="298" y="178"/>
      <point x="271" y="208"/>
      <point x="233" y="208" type="curve" smooth="yes"/>
      <point x="218" y="208"/>
      <point x="206" y="204"/>
      <point x="191" y="190" type="curve" smooth="yes"/>
      <point x="164" y="162"/>
      <point x="157" y="99"/>
      <point x="154" y="3" type="curve" smooth="yes"/>
      <point x="154" y="-15"/>
      <point x="138" y="-29"/>
      <point x="120" y="-29" type="curve" smooth="yes"/>
      <point x="102" y="-29"/>
      <point x="88" y="-13"/>
    </contour>
  </outline>
</glyph>
<glyph name="knPha" format="1">
  <advance width="741"/>
  <unicode hex="0CAB"/>
  <outline>
    <contour>
      <point x="401" y="-89" type="curve" smooth="yes"/>
      <point x="401" y="-192" type="line" smooth="yes"/>
      <point x="401" y="-210"/>
      <point x="386" y="-225"/>
      <point x="368" y="-225" type="curve" smooth="yes"/>
      <point x="350" y="-225"/>
      <point x="335" y="-210"/>
      <point x="335" y="-192" type="curve" smooth="yes"/>
      <point x="335" y="-89" type="line" smooth="yes"/>
      <point x="335" y="-71"/>
      <point x="350" y="-56"/>
      <point x="368" y="-56" type="curve" smooth="yes"/>
      <point x="386" y="-56"/>
      <point x="401" y="-71"/>
    </contour>
    <contour>
      <point x="100" y="470" type="curve" smooth="yes"/>
      <point x="505" y="470" type="line" smooth="yes"/>
      <point x="564" y="470"/>
      <point x="599" y="490"/>
      <point x="625" y="532" type="curve" smooth="yes"/>
      <point x="634" y="547"/>
      <point x="655" y="552"/>
      <point x="670" y="543" type="curve" smooth="yes"/>
      <point x="685" y="534"/>
      <point x="690" y="513"/>
      <point x="681" y="498" type="curve" smooth="yes"/>
      <point x="643" y="436"/>
      <point x="592" y="404"/>
      <point x="505" y="404" type="curve" smooth="yes"/>
      <point x="100" y="404" type="line" smooth="yes"/>
      <point x="82" y="404"/>
      <point x="67" y="419"/>
      <point x="67" y="437" type="curve" smooth="yes"/>
      <point x="67" y="455"/>
      <point x="82" y="470"/>
    </contour>
    <contour>
      <point x="162" y="199" type="curve" smooth="yes"/>
      <point x="143" y="184"/>
      <point x="130" y="158"/>
      <point x="130" y="128" type="curve" smooth="yes"/>
      <point x="130" y="95"/>
      <point x="153" y="54"/>
      <point x="206" y="54" type="curve" smooth="yes"/>
      <point x="264" y="54"/>
      <point x="310" y="92"/>
      <point x="336" y="159" type="curve" smooth="yes"/>
      <point x="341" y="171"/>
      <point x="354" y="180"/>
      <point x="367" y="180" type="curve" smooth="yes"/>
      <point x="369" y="180" type="line" smooth="yes"/>
      <point x="381" y="180"/>
      <point x="394" y="171"/>
      <point x="399" y="161" type="curve" smooth="yes"/>
      <point x="429" y="95"/>
      <point x="464" y="60"/>
      <point x="518" y="60" type="curve" smooth="yes"/>
      <point x="571" y="60"/>
      <point x="603" y="104"/>
      <point x="603" y="172" type="curve" smooth="yes"/>
      <point x="603" y="212"/>
      <point x="596" y="258"/>
      <point x="586" y="288" type="curve" smooth="yes"/>
      <point x="581" y="305"/>
      <point x="591" y="324"/>
      <point x="608" y="330" type="curve" smooth="yes"/>
      <point x="625" y="335"/>
      <point x="644" y="325"/>
      <point x="650" y="308" type="curve" smooth="yes"/>
      <point x="660" y="272"/>
      <point x="669" y="218"/>
      <point x="669" y="172" type="curve" smooth="yes"/>
      <point x="669" y="52"/>
      <point x="601" y="-6"/>
      <point x="518" y="-6" type="curve" smooth="yes"/>
      <point x="440" y="-6"/>
      <point x="383" y="35"/>
      <point x="339" y="133" type="curve"/>
      <point x="369" y="114" type="line"/>
      <point x="367" y="114" type="line"/>
      <point x="398" y="135" type="line"/>
      <point x="360" y="36"/>
      <point x="288" y="-12"/>
      <point x="206" y="-12" type="curve" smooth="yes"/>
      <point x="107" y="-12"/>
      <point x="64" y="65"/>
      <point x="64" y="128" type="curve"/>
      <point x="64" y="182"/>
      <point x="89" y="226"/>
      <point x="122" y="251" type="curve" smooth="yes"/>
      <point x="136" y="262"/>
      <point x="157" y="259"/>
      <point x="168" y="245" type="curve" smooth="yes"/>
      <point x="179" y="231"/>
      <point x="176" y="210"/>
    </contour>
    <contour>
      <point x="338" y="411" type="curve" smooth="yes"/>
      <point x="324" y="400"/>
      <point x="309" y="379"/>
      <point x="309" y="354" type="curve" smooth="yes"/>
      <point x="309" y="323"/>
      <point x="334" y="300"/>
      <point x="368" y="300" type="curve" smooth="yes"/>
      <point x="402" y="300"/>
      <point x="428" y="323"/>
      <point x="428" y="355" type="curve" smooth="yes"/>
      <point x="428" y="376"/>
      <point x="421" y="398"/>
      <point x="404" y="410" type="curve" smooth="yes"/>
      <point x="389" y="421"/>
      <point x="386" y="442"/>
      <point x="396" y="456" type="curve" smooth="yes"/>
      <point x="407" y="471"/>
      <point x="428" y="474"/>
      <point x="442" y="464" type="curve" smooth="yes"/>
      <point x="475" y="440"/>
      <point x="494" y="398"/>
      <point x="494" y="355" type="curve" smooth="yes"/>
      <point x="494" y="287"/>
      <point x="444" y="234"/>
      <point x="368" y="234" type="curve" smooth="yes"/>
      <point x="292" y="234"/>
      <point x="243" y="289"/>
      <point x="243" y="354" type="curve" smooth="yes"/>
      <point x="243" y="401"/>
      <point x="270" y="442"/>
      <point x="298" y="463" type="curve" smooth="yes"/>
      <point x="312" y="474"/>
      <point x="333" y="471"/>
      <point x="344" y="457" type="curve" smooth="yes"/>
      <point x="355" y="443"/>
      <point x="352" y="422"/>
    </contour>
  </outline>
</glyph>
<glyph name="knBa" format="1">
  <advance width="775"/>
  <unicode hex="0CAC"/>
  <outline>
    <contour>
      <point x="54" y="441" type="curve" smooth="yes"/>
      <point x="84" y="467"/>
      <point x="140" y="492"/>
      <point x="193" y="492" type="curve" smooth="yes"/>
      <point x="278" y="492"/>
      <point x="313" y="445"/>
      <point x="313" y="387" type="curve" smooth="yes"/>
      <point x="313" y="339"/>
      <point x="290" y="301"/>
      <point x="212" y="240" type="curve" smooth="yes"/>
      <point x="171" y="207"/>
      <point x="142" y="167"/>
      <point x="142" y="126" type="curve" smooth="yes"/>
      <point x="142" y="86"/>
      <point x="173" y="54"/>
      <point x="222" y="54" type="curve" smooth="yes"/>
      <point x="294" y="54"/>
      <point x="330" y="93"/>
      <point x="365" y="162" type="curve" smooth="yes"/>
      <point x="370" y="172"/>
      <point x="383" y="180"/>
      <point x="394" y="180" type="curve" smooth="yes"/>
      <point x="396" y="180" type="line" smooth="yes"/>
      <point x="408" y="180"/>
      <point x="421" y="171"/>
      <point x="426" y="161" type="curve" smooth="yes"/>
      <point x="456" y="95"/>
      <point x="494" y="60"/>
      <point x="548" y="60" type="curve" smooth="yes"/>
      <point x="601" y="60"/>
      <point x="643" y="102"/>
      <point x="643" y="172" type="curve" smooth="yes"/>
      <point x="643" y="288"/>
      <point x="587" y="383"/>
      <point x="519" y="442" type="curve" smooth="yes"/>
      <point x="505" y="453"/>
      <point x="503" y="475"/>
      <point x="515" y="488" type="curve" smooth="yes"/>
      <point x="526" y="502"/>
      <point x="548" y="504"/>
      <point x="561" y="492" type="curve" smooth="yes"/>
      <point x="643" y="423"/>
      <point x="709" y="310"/>
      <point x="709" y="172" type="curve" smooth="yes"/>
      <point x="709" y="54"/>
      <point x="631" y="-6"/>
      <point x="548" y="-6" type="curve" smooth="yes"/>
      <point x="470" y="-6"/>
      <point x="410" y="35"/>
      <point x="366" y="133" type="curve"/>
      <point x="396" y="114" type="line"/>
      <point x="394" y="114" type="line"/>
      <point x="423" y="132" type="line"/>
      <point x="374" y="35"/>
      <point x="320" y="-12"/>
      <point x="222" y="-12" type="curve" smooth="yes"/>
      <point x="127" y="-12"/>
      <point x="76" y="54"/>
      <point x="76" y="126" type="curve" smooth="yes"/>
      <point x="76" y="185"/>
      <point x="111" y="245"/>
      <point x="172" y="292" type="curve" smooth="yes"/>
      <point x="222" y="331"/>
      <point x="247" y="353"/>
      <point x="247" y="387" type="curve" smooth="yes"/>
      <point x="247" y="413"/>
      <point x="224" y="426"/>
      <point x="193" y="426" type="curve" smooth="yes"/>
      <point x="156" y="426"/>
      <point x="118" y="409"/>
      <point x="98" y="391" type="curve" smooth="yes"/>
      <point x="84" y="379"/>
      <point x="63" y="381"/>
      <point x="51" y="394" type="curve" smooth="yes"/>
      <point x="39" y="408"/>
      <point x="41" y="429"/>
    </contour>
  </outline>
</glyph>
<glyph name="knRa" format="1">
  <advance width="678"/>
  <unicode hex="0CB0"/>
  <outline>
    <contour>
      <point x="82" y="222" type="curve"/>
      <point x="82" y="347"/>
      <point x="191" y="470"/>
      <point x="331" y="470" type="curve" smooth="yes"/>
      <point x="472" y="470"/>
      <point x="579" y="344"/>
      <point x="579" y="222" type="curve" smooth="yes"/>
      <point x="579" y="87"/>
      <point x="491" y="-19"/>
      <point x="331" y="-19" type="curve" smooth="yes"/>
      <point x="170" y="-19"/>
      <point x="82" y="85"/>
    </contour>
    <contour>
      <point x="97" y="470" type="curve" smooth="yes"/>
      <point x="450" y="470" type="line" smooth="yes"/>
      <point x="509" y="470"/>
      <point x="544" y="490"/>
      <point x="570" y="532" type="curve" smooth="yes"/>
      <point x="579" y="547"/>
      <point x="600" y="552"/>
      <point x="615" y="543" type="curve" smooth="yes"/>
      <point x="630" y="534"/>
      <point x="635" y="513"/>
      <point x="626" y="498" type="curve" smooth="yes"/>
      <point x="588" y="436"/>
      <point x="537" y="404"/>
      <point x="450" y="404" type="curve" smooth="yes"/>
      <point x="97" y="404" type="line" smooth="yes"/>
      <point x="79" y="404"/>
      <point x="64" y="419"/>
      <point x="64" y="437" type="curve" smooth="yes"/>
      <point x="64" y="455"/>
      <point x="79" y="470"/>
    </contour>
    <contour>
      <point x="148" y="222" type="curve" smooth="yes"/>
      <point x="148" y="121"/>
      <point x="214" y="47"/>
      <point x="331" y="47" type="curve" smooth="yes"/>
      <point x="447" y="47"/>
      <point x="513" y="123"/>
      <point x="513" y="222" type="curve" smooth="yes"/>
      <point x="513" y="312"/>
      <point x="434" y="404"/>
      <point x="331" y="404" type="curve" smooth="yes"/>
      <point x="229" y="404"/>
      <point x="148" y="314"/>
    </contour>
  </outline>
</glyph>
<glyph name="knSa" format="1">
  <advance width="696"/>
  <unicode hex="0CB8"/>
  <outline>
    <contour>
      <point x="317" y="411" type="curve" smooth="yes"/>
      <point x="303" y="400"/>
      <point x="288" y="379"/>
      <point x="288" y="354" type="curve" smooth="yes"/>
      <point x="288" y="323"/>
      <point x="313" y="300"/>
      <point x="347" y="300" type="curve" smooth="yes"/>
      <point x="381" y="300"/>
      <point x="407" y="323"/>
      <point x="407" y="355" type="curve" smooth="yes"/>
      <point x="407" y="376"/>
      <point x="400" y="398"/>
      <point x="383" y="410" type="curve" smooth="yes"/>
      <point x="368" y="421"/>
      <point x="365" y="442"/>
      <point x="375" y="456" type="curve" smooth="yes"/>
      <point x="386" y="471"/>
      <point x="407" y="474"/>
      <point x="421" y="464" type="curve" smooth="yes"/>
      <point x="454" y="440"/>
      <point x="473" y="398"/>
      <point x="473" y="355" type="curve" smooth="yes"/>
      <point x="473" y="287"/>
      <point x="423" y="234"/>
      <point x="347" y="234" type="curve" smooth="yes"/>
      <point x="271" y="234"/>
      <point x="222" y="289"/>
      <point x="222" y="354" type="curve" smooth="yes"/>
      <point x="222" y="401"/>
      <point x="249" y="442"/>
      <point x="277" y="463" type="curve" smooth="yes"/>
      <point x="291" y="474"/>
      <point x="312" y="471"/>
      <point x="323" y="457" type="curve" smooth="yes"/>
      <point x="334" y="443"/>
      <point x="331" y="422"/>
    </contour>
    <contour>
      <point x="100" y="470" type="curve" smooth="yes"/>
      <point x="482" y="470" type="line" smooth="yes"/>
      <point x="541" y="470"/>
      <point x="576" y="490"/>
      <point x="602" y="532" type="curve" smooth="yes"/>
      <point x="611" y="547"/>
      <point x="632" y="552"/>
      <point x="647" y="543" type="curve" smooth="yes"/>
      <point x="662" y="534"/>
      <point x="667" y="513"/>
      <point x="658" y="498" type="curve" smooth="yes"/>
      <point x="620" y="436"/>
      <point x="569" y="404"/>
      <point x="482" y="404" type="curve" smooth="yes"/>
      <point x="100" y="404" type="line" smooth="yes"/>
      <point x="82" y="404"/>
      <point x="67" y="419"/>
      <point x="67" y="437" type="curve" smooth="yes"/>
      <point x="67" y="455"/>
      <point x="82" y="470"/>
    </contour>
    <contour>
      <point x="87" y="5" type="curve" smooth="yes"/>
      <point x="90" y="129"/>
      <point x="109" y="202"/>
      <point x="144" y="236" type="curve" smooth="yes"/>
      <point x="175" y="268"/>
      <point x="199" y="274"/>
      <point x="232" y="274" type="curve" smooth="yes"/>
      <point x="288" y="274"/>
      <point x="339" y="244"/>
      <point x="384" y="148" type="curve" smooth="yes"/>
      <point x="408" y="96"/>
      <point x="429" y="60"/>
      <point x="479" y="60" type="curve" smooth="yes"/>
      <point x="532" y="60"/>
      <point x="567" y="105"/>
      <point x="567" y="172" type="curve" smooth="yes"/>
      <point x="567" y="224"/>
      <point x="561" y="260"/>
      <point x="552" y="286" type="curve" smooth="yes"/>
      <point x="547" y="303"/>
      <point x="557" y="322"/>
      <point x="574" y="328" type="curve" smooth="yes"/>
      <point x="591" y="333"/>
      <point x="610" y="323"/>
      <point x="616" y="306" type="curve" smooth="yes"/>
      <point x="625" y="274"/>
      <point x="633" y="232"/>
      <point x="633" y="172" type="curve" smooth="yes"/>
      <point x="633" y="55"/>
      <point x="562" y="-6"/>
      <point x="479" y="-6" type="curve" smooth="yes"/>
      <point x="403" y="-6"/>
      <point x="364" y="36"/>
      <point x="324" y="120" type="curve" smooth="yes"/>
      <point x="297" y="178"/>
      <point x="270" y="208"/>
      <point x="232" y="208" type="curve" smooth="yes"/>
      <point x="217" y="208"/>
      <point x="205" y="204"/>
      <point x="190" y="190" type="curve" smooth="yes"/>
      <point x="163" y="162"/>
      <point x="156" y="99"/>
      <point x="153" y="3" type="curve" smooth="yes"/>
      <point x="153" y="-15"/>
      <point x="137" y="-29"/>
      <point x="119" y="-29" type="curve" smooth="yes"/>
      <point x="101" y="-29"/>
      <point x="87" y="-13"/>
    </contour>
  </outline>
</glyph>
<glyph name="knHa" format="1">
  <advance width="770"/>
  <unicode hex="0CB9"/>
  <outline>
    <contour>
      <point x="403" y="166" type="curve" smooth="yes"/>
      <point x="403" y="74"/>
      <point x="341" y="-6"/>
      <point x="223" y="-6" type="curve" smooth="yes"/>
      <point x="110" y="-6"/>
      <point x="45" y="74"/>
      <point x="45" y="166" type="curve" smooth="yes"/>
      <point x="45" y="257"/>
      <point x="111" y="331"/>
      <point x="223" y="331" type="curve" smooth="yes"/>
      <point x="328" y="331"/>
      <point x="403" y="257"/>
    </contour>
    <contour>
      <point x="712" y="166" type="curve" smooth="yes"/>
      <point x="712" y="74"/>
      <point x="650" y="-6"/>
      <point x="532" y="-6" type="curve" smooth="yes"/>
      <point x="419" y="-6"/>
      <point x="354" y="74"/>
      <point x="354" y="166" type="curve" smooth="yes"/>
      <point x="354" y="257"/>
      <point x="420" y="331"/>
      <point x="532" y="331" type="curve" smooth="yes"/>
      <point x="637" y="331"/>
      <point x="712" y="257"/>
    </contour>
    <contour>
      <point x="337" y="166" type="curve" smooth="yes"/>
      <point x="337" y="223"/>
      <point x="286" y="265"/>
      <point x="223" y="265" type="curve" smooth="yes"/>
      <point x="155" y="265"/>
      <point x="111" y="223"/>
      <point x="111" y="166" type="curve" smooth="yes"/>
      <point x="111" y="108"/>
      <point x="154" y="60"/>
      <point x="223" y="60" type="curve" smooth="yes"/>
      <point x="295" y="60"/>
      <point x="337" y="108"/>
    </contour>
    <contour>
      <point x="646" y="166" type="curve" smooth="yes"/>
      <point x="646" y="223"/>
      <point x="595" y="265"/>
      <point x="532" y="265" type="curve" smooth="yes"/>
      <point x="465" y="265"/>
      <point x="420" y="223"/>
      <point x="420" y="166" type="curve" smooth="yes"/>
      <point x="420" y="108"/>
      <point x="463" y="60"/>
      <point x="532" y="60" type="curve" smooth="yes"/>
      <point x="604" y="60"/>
      <point x="646" y="108"/>
    </contour>
    <contour>
      <point x="112" y="470" type="curve" smooth="yes"/>
      <point x="525" y="470" type="line" smooth="yes"/>
      <point x="584" y="470"/>
      <point x="619" y="490"/>
      <point x="645" y="532" type="curve" smooth="yes"/>
      <point x="654" y="547"/>
      <point x="675" y="552"/>
      <point x="690" y="543" type="curve" smooth="yes"/>
      <point x="705" y="534"/>
      <point x="710" y="513"/>
      <point x="701" y="498" type="curve" smooth="yes"/>
      <point x="663" y="436"/>
      <point x="612" y="404"/>
      <point x="525" y="404" type="curve" smooth="yes"/>
      <point x="112" y="404" type="line" smooth="yes"/>
      <point x="94" y="404"/>
      <point x="79" y="419"/>
      <point x="79" y="437" type="curve" smooth="yes"/>
      <point x="79" y="455"/>
      <point x="94" y="470"/>
    </contour>
    <contour>
      <point x="345" y="255" type="curve" smooth="yes"/>
      <point x="345" y="409" type="line" smooth="yes"/>
      <point x="345" y="427"/>
      <point x="360" y="442"/>
      <point x="378" y="442" type="curve" smooth="yes"/>
      <point x="396" y="442"/>
      <point x="411" y="427"/>
      <point x="411" y="409" type="curve" smooth="yes"/>
      <point x="411" y="255" type="line" smooth="yes"/>
      <point x="411" y="237"/>
      <point x="396" y="222"/>
      <point x="378" y="222" type="curve" smooth="yes"/>
      <point x="360" y="222"/>
      <point x="345" y="237"/>
    </contour>
  </outline>
</glyph>
<glyph name="knAasign" format="1">
  <advance width="347"/>
  <unicode hex="0CBE"/>
  <outline>
    <contour>
      <point x="-354" y="470" type="curve" smooth="yes"/>
      <point x="12" y="470" type="line" smooth="yes"/>
      <point x="175" y="470"/>
      <point x="296" y="367"/>
      <point x="296" y="160" type="curve" smooth="yes"/>
      <point x="296" y="39"/>
      <point x="230" y="-21"/>
      <point x="153" y="-21" type="curve" smooth="yes"/>
      <point x="74" y="-21"/>
      <point x="24" y="28"/>
      <point x="23" y="105" type="curve" smooth="yes"/>
      <point x="22" y="178"/>
      <point x="70" y="266"/>
      <point x="232" y="277" type="curve" smooth="yes"/>
      <point x="249" y="278"/>
      <point x="266" y="264"/>
      <point x="267" y="246" type="curve" smooth="yes"/>
      <point x="268" y="229"/>
      <point x="254" y="212"/>
      <point x="236" y="211" type="curve" smooth="yes"/>
      <point x="138" y="204"/>
      <point x="88" y="158"/>
      <point x="89" y="107" type="curve" smooth="yes"/>
      <point x="90" y="68"/>
      <point x="114" y="45"/>
      <point x="153" y="45" type="curve" smooth="yes"/>
      <point x="202" y="45"/>
      <point x="230" y="95"/>
      <point x="230" y="160" type="curve" smooth="yes"/>
      <point x="230" y="319"/>
      <point x="141" y="404"/>
      <point x="12" y="404" type="curve" smooth="yes"/>
      <point x="-354" y="404" type="line" smooth="yes"/>
      <point x="-372" y="404"/>
      <point x="-387" y="419"/>
      <point x="-387" y="437" type="curve" smooth="yes"/>
      <point x="-387" y="455"/>
      <point x="-372" y="470"/>
    </contour>
  </outline>
</glyph>
<glyph name="knUsign" format="1">
  <advance width="300"/>
  <unicode hex="0CC1"/>
  <outline>
    <contour>
      <point x="-64" y="133" type="curve" smooth="yes"/>
      <point x="-22" y="83"/>
      <point x="28" y="60"/>
      <point x="76" y="60" type="curve" smooth="yes"/>
      <point x="151" y="60"/>
      <point x="194" y="110"/>
      <point x="194" y="180" type="curve" smooth="yes"/>
      <point x="194" y="252"/>
      <point x="156" y="331"/>
      <point x="102" y="392" type="curve" smooth="yes"/>
      <point x="90" y="406"/>
      <point x="92" y="427"/>
      <point x="105" y="439" type="curve" smooth="yes"/>
      <point x="119" y="451"/>
      <point x="140" y="449"/>
      <point x="152" y="436" type="curve" smooth="yes"/>
      <point x="216" y="363"/>
      <point x="260" y="266"/>
      <point x="260" y="180" type="curve" smooth="yes"/>
      <point x="260" y="72"/>
      <point x="193" y="-6"/>
      <point x="76" y="-6" type="curve" smooth="yes"/>
      <point x="12" y="-6"/>
      <point x="-58" y="23"/>
      <point x="-114" y="91" type="curve" smooth="yes"/>
      <point x="-126" y="105"/>
      <point x="-124" y="126"/>
      <point x="-110" y="137" type="curve" smooth="yes"/>
      <point x="-96" y="149"/>
      <point x="-75" y="147"/>
    </contour>
  </outline>
</glyph>
<glyph name="knUusign" format="1">
  <advance width="592"/>
  <unicode hex="0CC2"/>
  <outline>
    <contour>
      <point x="-63" y="206" type="curve" smooth="yes"/>
      <point x="-15" y="120"/>
      <point x="46" y="60"/>
      <point x="85" y="60" type="curve" smooth="yes"/>
      <point x="124" y="60"/>
      <point x="142" y="84"/>
      <point x="142" y="125" type="curve" smooth="yes"/>
      <point x="142" y="188"/>
      <point x="115" y="255"/>
      <point x="115" y="325" type="curve" smooth="yes"/>
      <point x="115" y="402"/>
      <point x="169" y="470"/>
      <point x="258" y="470" type="curve" smooth="yes"/>
      <point x="421" y="470"/>
      <point x="542" y="367"/>
      <point x="542" y="160" type="curve" smooth="yes"/>
      <point x="542" y="39"/>
      <point x="476" y="-21"/>
      <point x="399" y="-21" type="curve" smooth="yes"/>
      <point x="320" y="-21"/>
      <point x="270" y="28"/>
      <point x="269" y="105" type="curve" smooth="yes"/>
      <point x="268" y="178"/>
      <point x="316" y="266"/>
      <point x="478" y="277" type="curve" smooth="yes"/>
      <point x="495" y="278"/>
      <point x="512" y="264"/>
      <point x="513" y="246" type="curve" smooth="yes"/>
      <point x="514" y="229"/>
      <point x="500" y="212"/>
      <point x="482" y="211" type="curve" smooth="yes"/>
      <point x="384" y="204"/>
      <point x="334" y="158"/>
      <point x="335" y="107" type="curve" smooth="yes"/>
      <point x="336" y="68"/>
      <point x="360" y="45"/>
      <point x="399" y="45" type="curve" smooth="yes"/>
      <point x="448" y="45"/>
      <point x="476" y="95"/>
      <point x="476" y="160" type="curve" smooth="yes"/>
      <point x="476" y="319"/>
      <point x="387" y="404"/>
      <point x="258" y="404" type="curve" smooth="yes"/>
      <point x="209" y="404"/>
      <point x="181" y="366"/>
      <point x="181" y="325" type="curve" smooth="yes"/>
      <point x="181" y="255"/>
      <point x="208" y="188"/>
      <point x="208" y="125" type="curve" smooth="yes"/>
      <point x="208" y="36"/>
      <point x="164" y="-6"/>
      <point x="85" y="-6" type="curve" smooth="yes"/>
      <point x="34" y="-6"/>
      <point x="-55" y="54"/>
      <point x="-121" y="174" type="curve" smooth="yes"/>
      <point x="-130" y="190"/>
      <point x="-124" y="210"/>
      <point x="-108" y="219" type="curve" smooth="yes"/>
      <point x="-92" y="228"/>
      <point x="-72" y="222"/>
    </contour>
  </outline>
</glyph>
<glyph name="knEsign" format="1">
  <advance width="0.0"/>
  <unicode hex="0CC6"/>
  <outline>
    <contour>
      <point x="-354" y="470" type="curve" smooth="yes"/>
      <point x="-214" y="470" type="line" smooth="yes"/>
      <point x="-140" y="470"/>
      <point x="-88" y="494"/>
      <point x="-88" y="541" type="curve" smooth="yes"/>
      <point x="-88" y="575"/>
      <point x="-113" y="598"/>
      <point x="-152" y="598" type="curve" smooth="yes"/>
      <point x="-206" y="598"/>
      <point x="-235" y="537"/>
      <point x="-235" y="467" type="curve" smooth="yes"/>
      <point x="-235" y="449"/>
      <point x="-250" y="434"/>
      <point x="-268" y="434" type="curve" smooth="yes"/>
      <point x="-286" y="434"/>
      <point x="-301" y="449"/>
      <point x="-301" y="467" type="curve" smooth="yes"/>
      <point x="-301" y="593"/>
      <point x="-234" y="664"/>
      <point x="-152" y="664" type="curve" smooth="yes"/>
      <point x="-69" y="664"/>
      <point x="-22" y="611"/>
      <point x="-22" y="541" type="curve" smooth="yes"/>
      <point x="-22" y="470"/>
      <point x="-72" y="404"/>
      <point x="-214" y="404" type="curve" smooth="yes"/>
      <point x="-354" y="404" type="line" smooth="yes"/>
      <point x="-372" y="404"/>
      <point x="-387" y="419"/>
      <point x="-387" y="437" type="curve" smooth="yes"/>
      <point x="-387" y="455"/>
      <point x="-372" y="470"/>
    </contour>
  </outline>
</glyph>
<glyph name="knAusign" format="1">
  <advance width="330.0"/>
  <unicode hex="0CCC"/>
  <outline>
    <contour>
      <point x="-264" y="641" type="curve" smooth="yes"/>
      <point x="10" y="641" type="line" smooth="yes"/>
      <point x="173" y="641"/>
      <point x="294" y="538"/>
      <point x="294" y="331" type="curve" smooth="yes"/>
      <point x="294" y="210"/>
      <point x="228" y="150"/>
      <point x="151" y="150" type="curve" smooth="yes"/>
      <point x="72" y="150"/>
      <point x="22" y="199"/>
      <point x="21" y="276" type="curve" smooth="yes"/>
      <point x="20" y="349"/>
      <point x="68" y="437"/>
      <point x="230" y="448" type="curve" smooth="yes"/>
      <point x="247" y="449"/>
      <point x="264" y="435"/>
      <point x="265" y="417" type="curve" smooth="yes"/>
      <point x="266" y="400"/>
      <point x="252" y="383"/>
      <point x="234" y="382" type="curve" smooth="yes"/>
      <point x="136" y="375"/>
      <point x="86" y="329"/>
      <point x="87" y="278" type="curve" smooth="yes"/>
      <point x="88" y="239"/>
      <point x="112" y="216"/>
      <point x="151" y="216" type="curve" smooth="yes"/>
      <point x="200" y="216"/>
      <point x="228" y="266"/>
      <point x="228" y="331" type="curve" smooth="yes"/>
      <point x="228" y="490"/>
      <point x="139" y="575"/>
      <point x="10" y="575" type="curve" smooth="yes"/>
      <point x="-264" y="575" type="line" smooth="yes"/>
      <point x="-282" y="575"/>
      <point x="-297" y="590"/>
      <point x="-297" y="608" type="curve" smooth="yes"/>
      <point x="-297" y="626"/>
      <point x="-282" y="641"/>
    </contour>
    <contour>
      <point x="-309" y="470" type="curve" smooth="yes"/>
      <point x="-218" y="470" type="line" smooth="yes"/>
      <point x="-135" y="470"/>
      <point x="-94" y="513"/>
      <point x="-70" y="611" type="curve" smooth="yes"/>
      <point x="-66" y="628"/>
      <point x="-47" y="639"/>
      <point x="-30" y="635" type="curve" smooth="yes"/>
      <point x="-13" y="631"/>
      <point x="-2" y="612"/>
      <point x="-6" y="595" type="curve" smooth="yes"/>
      <point x="-40" y="455"/>
      <point x="-103" y="404"/>
      <point x="-218" y="404" type="curve" smooth="yes"/>
      <point x="-309" y="404" type="line" smooth="yes"/>
      <point x="-327" y="404"/>
      <point x="-342" y="419"/>
      <point x="-342" y="437" type="curve" smooth="yes"/>
      <point x="-342" y="455"/>
      <point x="-327" y="470"/>
    </contour>
  </outline>
</glyph>
<glyph name="quoteleft" format="1">
  <advance width="245.0"/>
  <unicode hex="2018"/>
  <outline>
    <contour>
      <point x="138" y="386" type="curve" smooth="yes"/>
      <point x="107" y="428"/>
      <point x="88" y="484"/>
      <point x="88" y="540" type="curve" smooth="yes"/>
      <point x="88" y="564"/>
      <point x="91" y="586"/>
      <point x="95" y="602" type="curve" smooth="yes"/>
      <point x="101" y="619"/>
      <point x="120" y="629"/>
      <point x="137" y="624" type="curve" smooth="yes"/>
      <point x="154" y="618"/>
      <point x="164" y="599"/>
      <point x="159" y="582" type="curve" smooth="yes"/>
      <point x="155" y="572"/>
      <point x="154" y="556"/>
      <point x="154" y="540" type="curve" smooth="yes"/>
      <point x="154" y="498"/>
      <point x="169" y="456"/>
      <point x="192" y="424" type="curve" smooth="yes"/>
      <point x="202" y="410"/>
      <point x="199" y="389"/>
      <point x="184" y="378" type="curve" smooth="yes"/>
      <point x="170" y="368"/>
      <point x="149" y="371"/>
    </contour>
  </outline>
</glyph>
